M48
METRIC,TZ
T1C0.300
T2C0.400
T3C0.800
T4C1.000
%
G90
G05
T1
X121200Y-35900
X121200Y-51100
X121200Y-66500
X121300Y-83400
X121300Y-99800
X121300Y-114400
X121400Y-91000
X121700Y-96600
X122000Y-106900
X122000Y-122400
X122400Y-87000
X122500Y-101500
X123000Y-121900
X123300Y-90900
X123400Y-114300
X124600Y-107500
X124800Y-59100
X125600Y-42500
X126200Y-74900
X126300Y-98700
X127500Y-99700
X127600Y-35900
X127600Y-41100
X127600Y-47300
X127600Y-78500
X127600Y-93200
X127800Y-56300
X127800Y-62700
X128000Y-71700
X128400Y-123000
X129300Y-87000
X129500Y-97900
X129800Y-44300
X130000Y-106400
X130200Y-74900
X130300Y-59600
X130300Y-95500
X130500Y-116500
X130600Y-123000
X130800Y-57100
X130800Y-72300
X130800Y-120600
X130900Y-104200
X132000Y-82800
X132400Y-80400
X132400Y-89400
X132400Y-106400
X132600Y-48700
X132900Y-114600
X133000Y-109600
X133800Y-66100
X133900Y-85000
X134000Y-50900
X134000Y-97100
X134400Y-117400
X134600Y-123000
X134800Y-44500
X134800Y-99200
X135000Y-59700
X135000Y-74900
X135290Y-53170
X135290Y-68410
X135800Y-95100
X135800Y-121000
X136000Y-85200
X136400Y-35900
X136400Y-41300
X136560Y-55710
X136560Y-70950
X136600Y-62700
X136600Y-78500
X136800Y-89600
X137400Y-101800
X137600Y-99200
X137800Y-97100
X137900Y-83700
X138200Y-48700
X138400Y-44300
X139100Y-59700
X139100Y-68410
X139100Y-74900
X139600Y-57100
X139600Y-72300
X140000Y-47500
X140370Y-53170
X140500Y-83700
X140500Y-123000
X141000Y-115600
X141100Y-119500
X141600Y-90800
X141600Y-95200
X141600Y-100400
X141600Y-106200
X142000Y-117400
X142200Y-113800
X142910Y-54440
X142910Y-69680
X143800Y-44300
X144000Y-59700
X144000Y-74900
X144400Y-100400
X144800Y-80400
X145400Y-35900
X145400Y-41300
X145400Y-50900
X145400Y-62700
X145400Y-66100
X145400Y-78500
X145450Y-55710
X145450Y-70950
X145800Y-47500
X146400Y-115400
X146500Y-120600
X146600Y-90600
X147200Y-44300
X147600Y-101600
X147990Y-54440
X147990Y-69680
X148000Y-46500
X148000Y-59700
X148000Y-74900
X148000Y-108000
X148600Y-57100
X149800Y-119500
X150200Y-87000
X151000Y-103000
X152600Y-44300
X152600Y-46500
X152800Y-59700
X152800Y-74900
X152800Y-80400
X152800Y-92800
X152800Y-96400
X153000Y-87000
X154200Y-35900
X154200Y-41300
X154200Y-116000
X154340Y-55710
X154340Y-70950
X154400Y-62700
X154400Y-66100
X154400Y-78500
X154400Y-84000
X154400Y-99200
X154700Y-120300
X154700Y-122900
X156000Y-44300
X156200Y-45700
X156400Y-50900
X156900Y-59700
X156900Y-74900
X157200Y-120600
X157200Y-123000
X157400Y-57100
X157400Y-72300
X158000Y-108000
X158800Y-86600
X158800Y-101800
X159200Y-84000
X159200Y-99200
X159800Y-116000
X161600Y-44300
X161600Y-59700
X161600Y-92800
X161600Y-96400
X161770Y-87950
X161770Y-103190
X161800Y-74900
X161800Y-80400
X161800Y-117800
X161800Y-123000
X163200Y-35900
X163200Y-41100
X163200Y-78500
X163200Y-84000
X163230Y-55710
X163230Y-70950
X163400Y-62500
X163400Y-66100
X163400Y-99200
X163400Y-114600
X165200Y-42900
X165800Y-59700
X165800Y-74900
X166200Y-57100
X166200Y-72300
X167000Y-50900
X167600Y-86600
X167600Y-101800
X167800Y-35900
X167800Y-38300
X168100Y-84000
X168100Y-99200
X168600Y-108000
X168800Y-113200
X169000Y-114600
X170300Y-36000
X170300Y-38600
X170600Y-59700
X170600Y-74900
X170600Y-80400
X170600Y-92800
X170600Y-96200
X170660Y-87950
X170660Y-103190
X170800Y-42900
X170800Y-117600
X170800Y-123000
X172000Y-71900
X172200Y-62500
X172200Y-66100
X172200Y-78500
X172200Y-84000
X172200Y-99200
X172400Y-112400
X172400Y-114600
X174000Y-55900
X174800Y-71900
X175200Y-39400
X176400Y-101800
X177000Y-50900
X177000Y-84000
X177000Y-99200
X177000Y-112400
X177010Y-89220
X177010Y-104460
X177400Y-57300
X177800Y-114600
X178400Y-68300
X178500Y-38300
X178600Y-43500
X179200Y-111400
X179550Y-87950
X179550Y-103190
X179600Y-80400
X179600Y-92800
X179600Y-96200
X179600Y-108000
X179600Y-117600
X179600Y-123000
X180200Y-78500
X180600Y-58500
X181000Y-84000
X181000Y-99200
X181200Y-114600
X182090Y-89220
X182090Y-104460
X182800Y-45100
X183000Y-41500
X183400Y-52700
X183400Y-58500
X183400Y-63700
X183400Y-68100
X183900Y-39400
X184000Y-43300
X184500Y-35900
X184500Y-75200
X184630Y-105730
X185000Y-111400
X185400Y-86600
X185400Y-101800
X185900Y-84000
X185900Y-90490
X185900Y-99200
X186600Y-114600
X186800Y-110200
X187100Y-75200
X187200Y-61800
X187400Y-59700
X187600Y-57100
X188200Y-69300
X188400Y-80400
X188400Y-96200
X188440Y-87950
X188440Y-103190
X188600Y-117600
X188600Y-123000
X189000Y-73700
X189200Y-37900
X189200Y-63800
X189710Y-90490
X189710Y-105730
X190000Y-84000
X190000Y-99200
X190200Y-59700
X190200Y-114400
X190400Y-35900
X190600Y-41500
X191000Y-61800
X191000Y-108000
X191100Y-73900
X191200Y-92800
X192000Y-49300
X192100Y-44300
X192400Y-110200
X192600Y-52500
X192600Y-69500
X192600Y-78500
X193000Y-76100
X194100Y-54700
X194200Y-38300
X194200Y-86600
X194200Y-101800
X194400Y-35900
X194500Y-42400
X194700Y-63400
X194700Y-99300
X194800Y-84000
X195000Y-52500
X195200Y-114600
X195500Y-61000
X195700Y-71900
X196600Y-35900
X197000Y-87200
X197200Y-96200
X197200Y-102600
X197400Y-65700
X197400Y-80400
X197400Y-111600
X197400Y-117800
X197400Y-123000
X197500Y-59200
X198700Y-60200
X198800Y-84000
X199400Y-116400
X200200Y-99800
X200400Y-51400
X201600Y-44600
X201700Y-68000
X202000Y-37000
X202500Y-57400
X202600Y-71900
X203000Y-36500
X203000Y-52000
X203300Y-62300
X203600Y-67900
X203700Y-44500
X203700Y-59100
X203700Y-75500
X203800Y-92400
X203800Y-107800
X203800Y-123000
T2
X123500Y-105500
X123503Y-108701
X124600Y-104700
X124800Y-96275
X124988Y-95218
X125035Y-103549
X125760Y-102400
X126100Y-109600
X126600Y-94100
X127100Y-95200
X127600Y-96500
X127900Y-91325
X128600Y-114900
X129200Y-94400
X129200Y-110700
X133700Y-89775
X134300Y-94100
X142300Y-116100
X143300Y-117900
X151300Y-119000
X173700Y-39900
X181700Y-41000
X182700Y-42800
X190700Y-64800
X191300Y-69125
X195800Y-48200
X195800Y-64500
X196400Y-44000
X197100Y-67575
X197400Y-62400
X197900Y-63700
X198400Y-64800
X198900Y-49300
X199240Y-56500
X199965Y-55351
X200012Y-63682
X200200Y-62625
X200400Y-54200
X201497Y-50199
X201500Y-53400
T3
X123000Y-81700
X123000Y-89320
X125540Y-81700
X125540Y-89320
X128080Y-81700
X128080Y-89320
X130620Y-81700
X130620Y-89320
X194380Y-69580
X194380Y-77200
X196920Y-69580
X196920Y-77200
X199460Y-69580
X199460Y-77200
X202000Y-69580
X202000Y-77200
T4
X181500Y-76900
X184040Y-76900
X186580Y-76900
X161770Y-82870
X161770Y-85370
X197330Y-82910
X197330Y-85410
X179840Y-71900
X182380Y-71900
X184920Y-71900
X187460Y-71900
X190000Y-71900
X161770Y-113350
X161770Y-115850
X188440Y-82870
X188440Y-85370
X154340Y-73530
X154340Y-76030
X145450Y-58290
X145450Y-60790
X172120Y-73530
X172120Y-76030
X179550Y-113350
X179550Y-115850
X127670Y-58290
X127670Y-60790
X197330Y-98110
X197330Y-100610
X163230Y-58290
X163230Y-60790
X170660Y-113350
X170660Y-115850
X172120Y-58290
X172120Y-60790
X127670Y-73490
X127670Y-75990
X136560Y-43050
X136560Y-45550
X138420Y-82000
X140960Y-82000
X143500Y-82000
X145450Y-43050
X145450Y-45550
X145450Y-73530
X145450Y-76030
X197330Y-113390
X197330Y-115890
X127670Y-43010
X127670Y-45510
X152880Y-82870
X152880Y-85370
X161770Y-98110
X161770Y-100610
X136560Y-73530
X136560Y-76030
X136560Y-58290
X136560Y-60790
X188440Y-98110
X188440Y-100610
X163230Y-73530
X163230Y-76030
X170660Y-98110
X170660Y-100610
X163230Y-43050
X163230Y-45550
X188440Y-113350
X188440Y-115850
X179550Y-82870
X179550Y-85370
X179550Y-98110
X179550Y-100610
X154340Y-58290
X154340Y-60790
X135000Y-87000
X137540Y-87000
X140080Y-87000
X142620Y-87000
X145160Y-87000
X152880Y-98110
X152880Y-100610
X154340Y-43050
X154340Y-45550
X170660Y-82870
X170660Y-85370
T0
M30
