M48
METRIC,TZ
T1C0.300
T2C0.400
T3C0.850
T4C0.950
T5C1.000
%
G90
G05
T1
X126000Y-111100
X126020Y-123512
X126100Y-48000
X126100Y-71700
X126150Y-115700
X126200Y-113000
X126250Y-112000
X126900Y-94500
X127100Y-41000
X127100Y-97400
X127200Y-120800
X127300Y-101500
X127400Y-104500
X128200Y-90400
X128500Y-87000
X128950Y-123150
X129100Y-56000
X129800Y-78000
X130000Y-81000
X130300Y-104100
X130700Y-120200
X130900Y-117000
X131700Y-88200
X132300Y-106600
X132700Y-122900
X133100Y-42500
X133300Y-111300
X133600Y-50000
X133600Y-53600
X133675Y-87275
X134100Y-67600
X134400Y-45000
X134500Y-103400
X134600Y-74700
X134700Y-59500
X134700Y-70700
X135500Y-122900
X135655Y-117160
X136000Y-111200
X136200Y-102000
X136400Y-87200
X137000Y-71600
X137100Y-56000
X137300Y-103200
X137700Y-67600
X137800Y-61700
X139000Y-87400
X139200Y-90600
X139700Y-122900
X139900Y-84700
X139900Y-111200
X140100Y-118500
X140300Y-106300
X141100Y-78000
X141700Y-90600
X141700Y-111000
X141800Y-108200
X142000Y-86600
X142200Y-66400
X142500Y-120800
X143000Y-116000
X143300Y-74800
X143600Y-50000
X143600Y-59500
X143600Y-70400
X144100Y-41000
X144200Y-113800
X144700Y-46400
X144900Y-95300
X145300Y-99900
X145700Y-71600
X146000Y-106000
X146100Y-109800
X146700Y-86100
X147000Y-95200
X147000Y-113700
X147000Y-116100
X147100Y-62000
X147100Y-91200
X147500Y-120800
X147600Y-66400
X147740Y-59350
X148100Y-56000
X148600Y-118400
X149500Y-115700
X149700Y-53700
X150400Y-66900
X150500Y-88400
X151100Y-41000
X151100Y-121000
X152000Y-97400
X152000Y-107000
X152350Y-74800
X152500Y-59500
X152500Y-61850
X152500Y-70500
X152500Y-82000
X153000Y-112700
X153100Y-56000
X153300Y-85400
X153300Y-117500
X155100Y-50000
X156000Y-66900
X156500Y-46800
X156630Y-59350
X156700Y-88400
X156900Y-85300
X156900Y-100500
X157100Y-116900
X157100Y-121100
X157700Y-62500
X158100Y-41000
X158500Y-53700
X158600Y-78000
X159600Y-69800
X161300Y-59500
X161300Y-74800
X161400Y-71900
X161500Y-99500
X161900Y-90100
X162200Y-103150
X162500Y-82000
X162500Y-110000
X162500Y-118000
X162500Y-120800
X162800Y-88200
X163600Y-67500
X164100Y-46500
X164700Y-62500
X165100Y-41000
X165100Y-50000
X165100Y-57000
X165500Y-71700
X165520Y-59350
X165800Y-88300
X165800Y-100500
X165900Y-85200
X170200Y-74800
X170300Y-59500
X170300Y-71700
X170580Y-100650
X170600Y-88300
X171000Y-103000
X171000Y-110000
X171000Y-119000
X171400Y-97500
X172000Y-113500
X172500Y-92500
X173300Y-71800
X173600Y-39200
X173600Y-42000
X173600Y-50000
X173600Y-78000
X173900Y-56850
X174200Y-69900
X174600Y-60500
X174700Y-88100
X174800Y-85200
X174800Y-100500
X176500Y-90200
X177500Y-82000
X177600Y-106300
X178000Y-119000
X178400Y-97500
X179000Y-38900
X179000Y-43100
X179200Y-59500
X179200Y-74700
X179400Y-71600
X179470Y-100650
X179600Y-113200
X180100Y-93100
X181000Y-110000
X182800Y-42500
X182800Y-74600
X183000Y-104000
X183100Y-47300
X183600Y-78000
X183600Y-89500
X183600Y-98150
X183600Y-100500
X183750Y-85200
X184100Y-53000
X184100Y-62600
X185000Y-39000
X185000Y-119000
X185600Y-71600
X185700Y-93100
X186400Y-106300
X186600Y-44300
X187500Y-41600
X188000Y-104000
X188360Y-100650
X188500Y-93600
X188600Y-39200
X189000Y-68800
X189000Y-98000
X189100Y-43900
X189100Y-46300
X189100Y-64800
X189400Y-73900
X190000Y-50200
X190100Y-54000
X190400Y-88400
X190800Y-60100
X191200Y-64700
X191400Y-113600
X191900Y-46200
X192000Y-119000
X192500Y-89600
X192500Y-100500
X192500Y-110000
X192800Y-85200
X193100Y-44000
X193600Y-39200
X193900Y-93600
X194100Y-73400
X194300Y-51800
X194400Y-49000
X194400Y-69400
X195000Y-82000
X195800Y-53700
X196000Y-41500
X196200Y-48800
X196200Y-75300
X196400Y-37100
X196900Y-69400
X197100Y-72600
X198300Y-98300
X198400Y-92400
X198800Y-56800
X199000Y-104000
X199100Y-88400
X199700Y-72800
X199900Y-58000
X200100Y-48800
X200445Y-42840
X200600Y-37100
X201400Y-89300
X201400Y-100500
X201500Y-85300
X201600Y-56600
X201700Y-115000
X202000Y-92400
X202425Y-72725
X202500Y-106400
X202500Y-110000
X202800Y-48700
X203000Y-117500
X203400Y-37100
X203800Y-53400
X204400Y-71800
X205200Y-43000
X205400Y-39800
X205800Y-55900
X206100Y-79000
X206300Y-82000
X207000Y-104000
X207150Y-36850
X207600Y-73000
X207900Y-69600
X208700Y-55500
X208800Y-58500
X208900Y-39200
X209000Y-62600
X209000Y-119000
X209200Y-65500
X209850Y-48000
X209900Y-47000
X209950Y-44300
X210000Y-88300
X210000Y-112000
X210080Y-36488
X210100Y-48900
T2
X126900Y-92300
X127100Y-63000
X129200Y-94600
X129900Y-95400
X131152Y-101014
X131700Y-94000
X131718Y-95024
X131900Y-120300
X132500Y-97800
X133000Y-96000
X133100Y-93000
X133222Y-96975
X133538Y-121640
X134300Y-105300
X134670Y-96137
X137900Y-90500
X138100Y-63600
X139500Y-63600
X140100Y-93800
X140500Y-95100
X140700Y-63600
X141800Y-95900
X150188Y-92628
X150823Y-102519
X150895Y-101285
X151297Y-92628
X151723Y-102957
X151864Y-101586
X152567Y-92628
X152590Y-103587
X153009Y-102413
X183091Y-57587
X183510Y-56413
X183533Y-67372
X184236Y-58414
X184377Y-57043
X184803Y-67372
X185205Y-58715
X185277Y-57481
X185912Y-67372
X194300Y-64100
X195400Y-96400
X195600Y-64900
X196000Y-66200
X196600Y-96400
X198000Y-96400
X198200Y-69500
X201430Y-63863
X201800Y-54700
X202562Y-38360
X202878Y-63025
X203000Y-67000
X203100Y-64000
X203600Y-62200
X204200Y-39700
X204382Y-64976
X204400Y-66000
X204948Y-58986
X206200Y-64600
X206900Y-65400
X209000Y-97000
X209200Y-67700
T3
X198065Y-76000
X200565Y-76000
X203065Y-76000
X205565Y-76000
X208065Y-76000
X128035Y-84000
X130535Y-84000
X133035Y-84000
X135535Y-84000
X138035Y-84000
T4
X142680Y-84140
X145180Y-84140
X147680Y-84140
X188420Y-75860
X190920Y-75860
X193420Y-75860
T5
X158130Y-45380
X158130Y-47880
X173120Y-99420
X173120Y-101920
X145200Y-73320
X145200Y-75820
X169080Y-112120
X169080Y-114620
X127420Y-73320
X127420Y-75820
X199790Y-84180
X199790Y-86680
X171870Y-73320
X171870Y-75820
X186860Y-112120
X186860Y-114620
X190900Y-99420
X190900Y-101920
X136310Y-73320
X136310Y-75820
X127420Y-58080
X127420Y-60580
X173120Y-84180
X173120Y-86680
X136310Y-58080
X136310Y-60580
X182010Y-99420
X182010Y-101920
X190900Y-84180
X190900Y-86680
X164230Y-84180
X164230Y-86680
X155340Y-99420
X155340Y-101920
X162980Y-73320
X162980Y-75820
X154090Y-58080
X154090Y-60580
X164230Y-99420
X164230Y-101920
X199790Y-99420
X199790Y-101920
X208680Y-99420
X208680Y-101920
X177970Y-112120
X177970Y-114620
X180760Y-73320
X180760Y-75820
X182010Y-84180
X182010Y-86680
X180760Y-58080
X180760Y-60580
X171870Y-58080
X171870Y-60580
X145200Y-58080
X145200Y-60580
X162980Y-58080
X162980Y-60580
X208680Y-84180
X208680Y-86680
X154090Y-73320
X154090Y-75820
X149240Y-45380
X149240Y-47880
X167020Y-45380
X167020Y-47880
X155340Y-84180
X155340Y-86680
T0
M30
