G04 #@! TF.GenerationSoftware,KiCad,Pcbnew,(5.1.5)-3*
G04 #@! TF.CreationDate,2019-12-27T07:21:43+09:00*
G04 #@! TF.ProjectId,Solenoid_Valve-fin,536f6c65-6e6f-4696-945f-56616c76652d,rev?*
G04 #@! TF.SameCoordinates,Original*
G04 #@! TF.FileFunction,Legend,Bot*
G04 #@! TF.FilePolarity,Positive*
%FSLAX46Y46*%
G04 Gerber Fmt 4.6, Leading zero omitted, Abs format (unit mm)*
G04 Created by KiCad (PCBNEW (5.1.5)-3) date 2019-12-27 07:21:43*
%MOMM*%
%LPD*%
G04 APERTURE LIST*
%ADD10C,0.090000*%
%ADD11C,0.300000*%
%ADD12C,0.120000*%
%ADD13C,0.100000*%
%ADD14C,0.200000*%
%ADD15C,0.150000*%
%ADD16C,0.254000*%
G04 APERTURE END LIST*
D10*
X141642857Y-31171428D02*
X141442857Y-31771428D01*
X141242857Y-31171428D01*
X140700000Y-31714285D02*
X140728571Y-31742857D01*
X140814285Y-31771428D01*
X140871428Y-31771428D01*
X140957142Y-31742857D01*
X141014285Y-31685714D01*
X141042857Y-31628571D01*
X141071428Y-31514285D01*
X141071428Y-31428571D01*
X141042857Y-31314285D01*
X141014285Y-31257142D01*
X140957142Y-31200000D01*
X140871428Y-31171428D01*
X140814285Y-31171428D01*
X140728571Y-31200000D01*
X140700000Y-31228571D01*
X140442857Y-31771428D02*
X140442857Y-31171428D01*
X140214285Y-31171428D01*
X140157142Y-31200000D01*
X140128571Y-31228571D01*
X140100000Y-31285714D01*
X140100000Y-31371428D01*
X140128571Y-31428571D01*
X140157142Y-31457142D01*
X140214285Y-31485714D01*
X140442857Y-31485714D01*
X139985714Y-31828571D02*
X139528571Y-31828571D01*
X139471428Y-31171428D02*
X139128571Y-31171428D01*
X139300000Y-31771428D02*
X139300000Y-31171428D01*
X138985714Y-31171428D02*
X138585714Y-31771428D01*
X138585714Y-31171428D02*
X138985714Y-31771428D01*
X143087142Y-32200000D02*
X143144285Y-32171428D01*
X143230000Y-32171428D01*
X143315714Y-32200000D01*
X143372857Y-32257142D01*
X143401428Y-32314285D01*
X143430000Y-32428571D01*
X143430000Y-32514285D01*
X143401428Y-32628571D01*
X143372857Y-32685714D01*
X143315714Y-32742857D01*
X143230000Y-32771428D01*
X143172857Y-32771428D01*
X143087142Y-32742857D01*
X143058571Y-32714285D01*
X143058571Y-32514285D01*
X143172857Y-32514285D01*
X142801428Y-32771428D02*
X142801428Y-32171428D01*
X142458571Y-32771428D01*
X142458571Y-32171428D01*
X142172857Y-32771428D02*
X142172857Y-32171428D01*
X142030000Y-32171428D01*
X141944285Y-32200000D01*
X141887142Y-32257142D01*
X141858571Y-32314285D01*
X141830000Y-32428571D01*
X141830000Y-32514285D01*
X141858571Y-32628571D01*
X141887142Y-32685714D01*
X141944285Y-32742857D01*
X142030000Y-32771428D01*
X142172857Y-32771428D01*
X139158571Y-32171428D02*
X138958571Y-32771428D01*
X138758571Y-32171428D01*
X138615714Y-32171428D02*
X138215714Y-32771428D01*
X138215714Y-32171428D02*
X138615714Y-32771428D01*
X137987142Y-32771428D02*
X137987142Y-32171428D01*
X137758571Y-32171428D01*
X137701428Y-32200000D01*
X137672857Y-32228571D01*
X137644285Y-32285714D01*
X137644285Y-32371428D01*
X137672857Y-32428571D01*
X137701428Y-32457142D01*
X137758571Y-32485714D01*
X137987142Y-32485714D01*
X137530000Y-32828571D02*
X137072857Y-32828571D01*
X137015714Y-32171428D02*
X136672857Y-32171428D01*
X136844285Y-32771428D02*
X136844285Y-32171428D01*
X136530000Y-32171428D02*
X136130000Y-32771428D01*
X136130000Y-32171428D02*
X136530000Y-32771428D01*
D11*
X229714285Y-78904761D02*
X229047619Y-80904761D01*
X228380952Y-78904761D01*
X227714285Y-80142857D02*
X226190476Y-80142857D01*
X224095238Y-80714285D02*
X224190476Y-80809523D01*
X224476190Y-80904761D01*
X224666666Y-80904761D01*
X224952380Y-80809523D01*
X225142857Y-80619047D01*
X225238095Y-80428571D01*
X225333333Y-80047619D01*
X225333333Y-79761904D01*
X225238095Y-79380952D01*
X225142857Y-79190476D01*
X224952380Y-79000000D01*
X224666666Y-78904761D01*
X224476190Y-78904761D01*
X224190476Y-79000000D01*
X224095238Y-79095238D01*
X223238095Y-78904761D02*
X223238095Y-80523809D01*
X223142857Y-80714285D01*
X223047619Y-80809523D01*
X222857142Y-80904761D01*
X222476190Y-80904761D01*
X222285714Y-80809523D01*
X222190476Y-80714285D01*
X222095238Y-80523809D01*
X222095238Y-78904761D01*
X221428571Y-78904761D02*
X220285714Y-78904761D01*
X220857142Y-80904761D02*
X220857142Y-78904761D01*
D12*
X220000000Y-80000000D02*
X110000000Y-80000000D01*
D10*
X143087142Y-82200000D02*
X143144285Y-82171428D01*
X143230000Y-82171428D01*
X143315714Y-82200000D01*
X143372857Y-82257142D01*
X143401428Y-82314285D01*
X143430000Y-82428571D01*
X143430000Y-82514285D01*
X143401428Y-82628571D01*
X143372857Y-82685714D01*
X143315714Y-82742857D01*
X143230000Y-82771428D01*
X143172857Y-82771428D01*
X143087142Y-82742857D01*
X143058571Y-82714285D01*
X143058571Y-82514285D01*
X143172857Y-82514285D01*
X142801428Y-82771428D02*
X142801428Y-82171428D01*
X142458571Y-82771428D01*
X142458571Y-82171428D01*
X142172857Y-82771428D02*
X142172857Y-82171428D01*
X142030000Y-82171428D01*
X141944285Y-82200000D01*
X141887142Y-82257142D01*
X141858571Y-82314285D01*
X141830000Y-82428571D01*
X141830000Y-82514285D01*
X141858571Y-82628571D01*
X141887142Y-82685714D01*
X141944285Y-82742857D01*
X142030000Y-82771428D01*
X142172857Y-82771428D01*
X141642857Y-81171428D02*
X141442857Y-81771428D01*
X141242857Y-81171428D01*
X140700000Y-81714285D02*
X140728571Y-81742857D01*
X140814285Y-81771428D01*
X140871428Y-81771428D01*
X140957142Y-81742857D01*
X141014285Y-81685714D01*
X141042857Y-81628571D01*
X141071428Y-81514285D01*
X141071428Y-81428571D01*
X141042857Y-81314285D01*
X141014285Y-81257142D01*
X140957142Y-81200000D01*
X140871428Y-81171428D01*
X140814285Y-81171428D01*
X140728571Y-81200000D01*
X140700000Y-81228571D01*
X140442857Y-81771428D02*
X140442857Y-81171428D01*
X140214285Y-81171428D01*
X140157142Y-81200000D01*
X140128571Y-81228571D01*
X140100000Y-81285714D01*
X140100000Y-81371428D01*
X140128571Y-81428571D01*
X140157142Y-81457142D01*
X140214285Y-81485714D01*
X140442857Y-81485714D01*
X139985714Y-81828571D02*
X139528571Y-81828571D01*
X139471428Y-81171428D02*
X139128571Y-81171428D01*
X139300000Y-81771428D02*
X139300000Y-81171428D01*
X138985714Y-81171428D02*
X138585714Y-81771428D01*
X138585714Y-81171428D02*
X138985714Y-81771428D01*
X139158571Y-82171428D02*
X138958571Y-82771428D01*
X138758571Y-82171428D01*
X138615714Y-82171428D02*
X138215714Y-82771428D01*
X138215714Y-82171428D02*
X138615714Y-82771428D01*
X137987142Y-82771428D02*
X137987142Y-82171428D01*
X137758571Y-82171428D01*
X137701428Y-82200000D01*
X137672857Y-82228571D01*
X137644285Y-82285714D01*
X137644285Y-82371428D01*
X137672857Y-82428571D01*
X137701428Y-82457142D01*
X137758571Y-82485714D01*
X137987142Y-82485714D01*
X137530000Y-82828571D02*
X137072857Y-82828571D01*
X137015714Y-82171428D02*
X136672857Y-82171428D01*
X136844285Y-82771428D02*
X136844285Y-82171428D01*
X136530000Y-82171428D02*
X136130000Y-82771428D01*
X136130000Y-82171428D02*
X136530000Y-82771428D01*
D12*
X126441422Y-69210000D02*
X126958578Y-69210000D01*
X126441422Y-67790000D02*
X126958578Y-67790000D01*
X128150132Y-49559179D02*
X127938000Y-49771311D01*
X127938000Y-49771311D02*
X127725868Y-49559179D01*
X132831179Y-44878132D02*
X133043311Y-44666000D01*
X133043311Y-44666000D02*
X132831179Y-44453868D01*
X123044821Y-44453868D02*
X122832689Y-44666000D01*
X122832689Y-44666000D02*
X123044821Y-44878132D01*
X127725868Y-39772821D02*
X127938000Y-39560689D01*
X127938000Y-39560689D02*
X128150132Y-39772821D01*
X128150132Y-39772821D02*
X129079977Y-38842976D01*
X120185000Y-36750000D02*
X120185000Y-35500000D01*
X121435000Y-36750000D02*
X120185000Y-36750000D01*
X134835000Y-31250000D02*
X128035000Y-31250000D01*
X134835000Y-34200000D02*
X134835000Y-31250000D01*
X135585000Y-34200000D02*
X134835000Y-34200000D01*
X121235000Y-31250000D02*
X128035000Y-31250000D01*
X121235000Y-34200000D02*
X121235000Y-31250000D01*
X120485000Y-34200000D02*
X121235000Y-34200000D01*
X135585000Y-36450000D02*
X133785000Y-36450000D01*
X135585000Y-35700000D02*
X135585000Y-36450000D01*
X133785000Y-35700000D02*
X135585000Y-35700000D01*
X133785000Y-36450000D02*
X133785000Y-35700000D01*
X122285000Y-36450000D02*
X120485000Y-36450000D01*
X122285000Y-35700000D02*
X122285000Y-36450000D01*
X120485000Y-35700000D02*
X122285000Y-35700000D01*
X120485000Y-36450000D02*
X120485000Y-35700000D01*
X132285000Y-36450000D02*
X123785000Y-36450000D01*
X132285000Y-35700000D02*
X132285000Y-36450000D01*
X123785000Y-35700000D02*
X132285000Y-35700000D01*
X123785000Y-36450000D02*
X123785000Y-35700000D01*
X135595000Y-36460000D02*
X120475000Y-36460000D01*
X135595000Y-30490000D02*
X135595000Y-36460000D01*
X120475000Y-30490000D02*
X135595000Y-30490000D01*
X120475000Y-36460000D02*
X120475000Y-30490000D01*
X120490000Y-40049221D02*
X120490000Y-40374779D01*
X121510000Y-40049221D02*
X121510000Y-40374779D01*
D13*
X143240000Y-36700000D02*
X142940000Y-36700000D01*
X143240000Y-36700000D02*
X143240000Y-37000000D01*
X143240000Y-47100000D02*
X142940000Y-47100000D01*
X138840000Y-37000000D02*
X138840000Y-36700000D01*
X138840000Y-36700000D02*
X139140000Y-36700000D01*
X139240000Y-47100000D02*
X138840000Y-47100000D01*
X138840000Y-47100000D02*
X138840000Y-46800000D01*
X138840000Y-46800000D02*
X138240000Y-46800000D01*
X143240000Y-46800000D02*
X143240000Y-47100000D01*
X143300000Y-47995000D02*
X143000000Y-47995000D01*
X143300000Y-47995000D02*
X143300000Y-48295000D01*
X143300000Y-58395000D02*
X143000000Y-58395000D01*
X138900000Y-48295000D02*
X138900000Y-47995000D01*
X138900000Y-47995000D02*
X139200000Y-47995000D01*
X139300000Y-58395000D02*
X138900000Y-58395000D01*
X138900000Y-58395000D02*
X138900000Y-58095000D01*
X138900000Y-58095000D02*
X138300000Y-58095000D01*
X143300000Y-58095000D02*
X143300000Y-58395000D01*
D12*
X144110000Y-66860000D02*
X142850000Y-66860000D01*
X137290000Y-66860000D02*
X138550000Y-66860000D01*
X144110000Y-63100000D02*
X144110000Y-66860000D01*
X137290000Y-60850000D02*
X137290000Y-66860000D01*
X169475000Y-61718000D02*
X169475000Y-67403000D01*
X169475000Y-67403000D02*
X166305000Y-67403000D01*
X166305000Y-67403000D02*
X166305000Y-61718000D01*
X182405000Y-49018000D02*
X182405000Y-54703000D01*
X182405000Y-54703000D02*
X179235000Y-54703000D01*
X179235000Y-54703000D02*
X179235000Y-49018000D01*
X200185000Y-49018000D02*
X200185000Y-54703000D01*
X200185000Y-54703000D02*
X197015000Y-54703000D01*
X197015000Y-54703000D02*
X197015000Y-49018000D01*
X146910000Y-61696578D02*
X146910000Y-61179422D01*
X145490000Y-61696578D02*
X145490000Y-61179422D01*
X127496578Y-51890000D02*
X126979422Y-51890000D01*
X127496578Y-53310000D02*
X126979422Y-53310000D01*
X134690000Y-63803422D02*
X134690000Y-64320578D01*
X136110000Y-63803422D02*
X136110000Y-64320578D01*
D14*
X129900000Y-54850000D02*
X126700000Y-54850000D01*
X126700000Y-54850000D02*
X126700000Y-59750000D01*
X126700000Y-59750000D02*
X129900000Y-59750000D01*
X129900000Y-59750000D02*
X129900000Y-54850000D01*
X131775000Y-54695000D02*
X130250000Y-54695000D01*
D12*
X155735000Y-49420000D02*
X155735000Y-55105000D01*
X155735000Y-55105000D02*
X152565000Y-55105000D01*
X152565000Y-55105000D02*
X152565000Y-49420000D01*
X173515000Y-49188000D02*
X173515000Y-54873000D01*
X173515000Y-54873000D02*
X170345000Y-54873000D01*
X170345000Y-54873000D02*
X170345000Y-49188000D01*
X145590000Y-65941422D02*
X145590000Y-66458578D01*
X147010000Y-65941422D02*
X147010000Y-66458578D01*
X136010000Y-58958578D02*
X136010000Y-58441422D01*
X134590000Y-58958578D02*
X134590000Y-58441422D01*
X155550000Y-63245000D02*
X155550000Y-64745000D01*
X155550000Y-64745000D02*
X155280000Y-64745000D01*
X155280000Y-64745000D02*
X155280000Y-67575000D01*
X148650000Y-63245000D02*
X148650000Y-64745000D01*
X148650000Y-64745000D02*
X148920000Y-64745000D01*
X148920000Y-64745000D02*
X148920000Y-65845000D01*
X200185000Y-33778000D02*
X200185000Y-39463000D01*
X200185000Y-39463000D02*
X197015000Y-39463000D01*
X197015000Y-39463000D02*
X197015000Y-33778000D01*
X173515000Y-33778000D02*
X173515000Y-39463000D01*
X173515000Y-39463000D02*
X170345000Y-39463000D01*
X170345000Y-39463000D02*
X170345000Y-33778000D01*
X178365000Y-61718000D02*
X178365000Y-67403000D01*
X178365000Y-67403000D02*
X175195000Y-67403000D01*
X175195000Y-67403000D02*
X175195000Y-61718000D01*
X198890000Y-41885000D02*
X204575000Y-41885000D01*
X204575000Y-41885000D02*
X204575000Y-45055000D01*
X204575000Y-45055000D02*
X198890000Y-45055000D01*
X188755000Y-61718000D02*
X188755000Y-67403000D01*
X188755000Y-67403000D02*
X185585000Y-67403000D01*
X185585000Y-67403000D02*
X185585000Y-61718000D01*
X191295000Y-49018000D02*
X191295000Y-54703000D01*
X191295000Y-54703000D02*
X188125000Y-54703000D01*
X188125000Y-54703000D02*
X188125000Y-49018000D01*
X199050000Y-58275000D02*
X204735000Y-58275000D01*
X204735000Y-58275000D02*
X204735000Y-61445000D01*
X204735000Y-61445000D02*
X199050000Y-61445000D01*
X164625000Y-33778000D02*
X164625000Y-39463000D01*
X164625000Y-39463000D02*
X161455000Y-39463000D01*
X161455000Y-39463000D02*
X161455000Y-33778000D01*
X158910000Y-66261252D02*
X158910000Y-65738748D01*
X157490000Y-66261252D02*
X157490000Y-65738748D01*
X164625000Y-49018000D02*
X164625000Y-54703000D01*
X164625000Y-54703000D02*
X161455000Y-54703000D01*
X161455000Y-54703000D02*
X161455000Y-49018000D01*
X191295000Y-33778000D02*
X191295000Y-39463000D01*
X191295000Y-39463000D02*
X188125000Y-39463000D01*
X188125000Y-39463000D02*
X188125000Y-33778000D01*
X155585000Y-33778000D02*
X155585000Y-39463000D01*
X155585000Y-39463000D02*
X152415000Y-39463000D01*
X152415000Y-39463000D02*
X152415000Y-33778000D01*
X182405000Y-33778000D02*
X182405000Y-39463000D01*
X182405000Y-39463000D02*
X179235000Y-39463000D01*
X179235000Y-39463000D02*
X179235000Y-33778000D01*
X130075000Y-66895000D02*
X128125000Y-66895000D01*
X130075000Y-66895000D02*
X132025000Y-66895000D01*
X130075000Y-61775000D02*
X128125000Y-61775000D01*
X130075000Y-61775000D02*
X133525000Y-61775000D01*
X152415000Y-89463000D02*
X152415000Y-83778000D01*
X155585000Y-89463000D02*
X152415000Y-89463000D01*
X155585000Y-83778000D02*
X155585000Y-89463000D01*
X161455000Y-89463000D02*
X161455000Y-83778000D01*
X164625000Y-89463000D02*
X161455000Y-89463000D01*
X164625000Y-83778000D02*
X164625000Y-89463000D01*
X179235000Y-89463000D02*
X179235000Y-83778000D01*
X182405000Y-89463000D02*
X179235000Y-89463000D01*
X182405000Y-83778000D02*
X182405000Y-89463000D01*
X204735000Y-111445000D02*
X199050000Y-111445000D01*
X204735000Y-108275000D02*
X204735000Y-111445000D01*
X199050000Y-108275000D02*
X204735000Y-108275000D01*
X197015000Y-104703000D02*
X197015000Y-99018000D01*
X200185000Y-104703000D02*
X197015000Y-104703000D01*
X200185000Y-99018000D02*
X200185000Y-104703000D01*
X188125000Y-104703000D02*
X188125000Y-99018000D01*
X191295000Y-104703000D02*
X188125000Y-104703000D01*
X191295000Y-99018000D02*
X191295000Y-104703000D01*
X170345000Y-89463000D02*
X170345000Y-83778000D01*
X173515000Y-89463000D02*
X170345000Y-89463000D01*
X173515000Y-83778000D02*
X173515000Y-89463000D01*
X188125000Y-89463000D02*
X188125000Y-83778000D01*
X191295000Y-89463000D02*
X188125000Y-89463000D01*
X191295000Y-83778000D02*
X191295000Y-89463000D01*
X197015000Y-89463000D02*
X197015000Y-83778000D01*
X200185000Y-89463000D02*
X197015000Y-89463000D01*
X200185000Y-83778000D02*
X200185000Y-89463000D01*
X204575000Y-95055000D02*
X198890000Y-95055000D01*
X204575000Y-91885000D02*
X204575000Y-95055000D01*
X198890000Y-91885000D02*
X204575000Y-91885000D01*
X179235000Y-104703000D02*
X179235000Y-99018000D01*
X182405000Y-104703000D02*
X179235000Y-104703000D01*
X182405000Y-99018000D02*
X182405000Y-104703000D01*
X170345000Y-104873000D02*
X170345000Y-99188000D01*
X173515000Y-104873000D02*
X170345000Y-104873000D01*
X173515000Y-99188000D02*
X173515000Y-104873000D01*
X161455000Y-104703000D02*
X161455000Y-99018000D01*
X164625000Y-104703000D02*
X161455000Y-104703000D01*
X164625000Y-99018000D02*
X164625000Y-104703000D01*
X152565000Y-105105000D02*
X152565000Y-99420000D01*
X155735000Y-105105000D02*
X152565000Y-105105000D01*
X155735000Y-99420000D02*
X155735000Y-105105000D01*
X175195000Y-117403000D02*
X175195000Y-111718000D01*
X178365000Y-117403000D02*
X175195000Y-117403000D01*
X178365000Y-111718000D02*
X178365000Y-117403000D01*
X166305000Y-117403000D02*
X166305000Y-111718000D01*
X169475000Y-117403000D02*
X166305000Y-117403000D01*
X169475000Y-111718000D02*
X169475000Y-117403000D01*
X185585000Y-117403000D02*
X185585000Y-111718000D01*
X188755000Y-117403000D02*
X185585000Y-117403000D01*
X188755000Y-111718000D02*
X188755000Y-117403000D01*
X148920000Y-114745000D02*
X148920000Y-115845000D01*
X148650000Y-114745000D02*
X148920000Y-114745000D01*
X148650000Y-113245000D02*
X148650000Y-114745000D01*
X155280000Y-114745000D02*
X155280000Y-117575000D01*
X155550000Y-114745000D02*
X155280000Y-114745000D01*
X155550000Y-113245000D02*
X155550000Y-114745000D01*
X134590000Y-108958578D02*
X134590000Y-108441422D01*
X136010000Y-108958578D02*
X136010000Y-108441422D01*
X145490000Y-111696578D02*
X145490000Y-111179422D01*
X146910000Y-111696578D02*
X146910000Y-111179422D01*
X147010000Y-115941422D02*
X147010000Y-116458578D01*
X145590000Y-115941422D02*
X145590000Y-116458578D01*
X157490000Y-116261252D02*
X157490000Y-115738748D01*
X158910000Y-116261252D02*
X158910000Y-115738748D01*
X137290000Y-110850000D02*
X137290000Y-116860000D01*
X144110000Y-113100000D02*
X144110000Y-116860000D01*
X137290000Y-116860000D02*
X138550000Y-116860000D01*
X144110000Y-116860000D02*
X142850000Y-116860000D01*
X130075000Y-111775000D02*
X133525000Y-111775000D01*
X130075000Y-111775000D02*
X128125000Y-111775000D01*
X130075000Y-116895000D02*
X132025000Y-116895000D01*
X130075000Y-116895000D02*
X128125000Y-116895000D01*
X128150132Y-89772821D02*
X129079977Y-88842976D01*
X127938000Y-89560689D02*
X128150132Y-89772821D01*
X127725868Y-89772821D02*
X127938000Y-89560689D01*
X122832689Y-94666000D02*
X123044821Y-94878132D01*
X123044821Y-94453868D02*
X122832689Y-94666000D01*
X133043311Y-94666000D02*
X132831179Y-94453868D01*
X132831179Y-94878132D02*
X133043311Y-94666000D01*
X127938000Y-99771311D02*
X127725868Y-99559179D01*
X128150132Y-99559179D02*
X127938000Y-99771311D01*
X121510000Y-90049221D02*
X121510000Y-90374779D01*
X120490000Y-90049221D02*
X120490000Y-90374779D01*
D13*
X143240000Y-96800000D02*
X143240000Y-97100000D01*
X138840000Y-96800000D02*
X138240000Y-96800000D01*
X138840000Y-97100000D02*
X138840000Y-96800000D01*
X139240000Y-97100000D02*
X138840000Y-97100000D01*
X138840000Y-86700000D02*
X139140000Y-86700000D01*
X138840000Y-87000000D02*
X138840000Y-86700000D01*
X143240000Y-97100000D02*
X142940000Y-97100000D01*
X143240000Y-86700000D02*
X143240000Y-87000000D01*
X143240000Y-86700000D02*
X142940000Y-86700000D01*
X143300000Y-108095000D02*
X143300000Y-108395000D01*
X138900000Y-108095000D02*
X138300000Y-108095000D01*
X138900000Y-108395000D02*
X138900000Y-108095000D01*
X139300000Y-108395000D02*
X138900000Y-108395000D01*
X138900000Y-97995000D02*
X139200000Y-97995000D01*
X138900000Y-98295000D02*
X138900000Y-97995000D01*
X143300000Y-108395000D02*
X143000000Y-108395000D01*
X143300000Y-97995000D02*
X143300000Y-98295000D01*
X143300000Y-97995000D02*
X143000000Y-97995000D01*
D12*
X120475000Y-86460000D02*
X120475000Y-80490000D01*
X120475000Y-80490000D02*
X135595000Y-80490000D01*
X135595000Y-80490000D02*
X135595000Y-86460000D01*
X135595000Y-86460000D02*
X120475000Y-86460000D01*
X123785000Y-86450000D02*
X123785000Y-85700000D01*
X123785000Y-85700000D02*
X132285000Y-85700000D01*
X132285000Y-85700000D02*
X132285000Y-86450000D01*
X132285000Y-86450000D02*
X123785000Y-86450000D01*
X120485000Y-86450000D02*
X120485000Y-85700000D01*
X120485000Y-85700000D02*
X122285000Y-85700000D01*
X122285000Y-85700000D02*
X122285000Y-86450000D01*
X122285000Y-86450000D02*
X120485000Y-86450000D01*
X133785000Y-86450000D02*
X133785000Y-85700000D01*
X133785000Y-85700000D02*
X135585000Y-85700000D01*
X135585000Y-85700000D02*
X135585000Y-86450000D01*
X135585000Y-86450000D02*
X133785000Y-86450000D01*
X120485000Y-84200000D02*
X121235000Y-84200000D01*
X121235000Y-84200000D02*
X121235000Y-81250000D01*
X121235000Y-81250000D02*
X128035000Y-81250000D01*
X135585000Y-84200000D02*
X134835000Y-84200000D01*
X134835000Y-84200000D02*
X134835000Y-81250000D01*
X134835000Y-81250000D02*
X128035000Y-81250000D01*
X121435000Y-86750000D02*
X120185000Y-86750000D01*
X120185000Y-86750000D02*
X120185000Y-85500000D01*
D14*
X131775000Y-104695000D02*
X130250000Y-104695000D01*
X129900000Y-109750000D02*
X129900000Y-104850000D01*
X126700000Y-109750000D02*
X129900000Y-109750000D01*
X126700000Y-104850000D02*
X126700000Y-109750000D01*
X129900000Y-104850000D02*
X126700000Y-104850000D01*
D12*
X136110000Y-113803422D02*
X136110000Y-114320578D01*
X134690000Y-113803422D02*
X134690000Y-114320578D01*
X126441422Y-117790000D02*
X126958578Y-117790000D01*
X126441422Y-119210000D02*
X126958578Y-119210000D01*
X127496578Y-103310000D02*
X126979422Y-103310000D01*
X127496578Y-101890000D02*
X126979422Y-101890000D01*
D15*
X126866666Y-70507142D02*
X126914285Y-70554761D01*
X127057142Y-70602380D01*
X127152380Y-70602380D01*
X127295238Y-70554761D01*
X127390476Y-70459523D01*
X127438095Y-70364285D01*
X127485714Y-70173809D01*
X127485714Y-70030952D01*
X127438095Y-69840476D01*
X127390476Y-69745238D01*
X127295238Y-69650000D01*
X127152380Y-69602380D01*
X127057142Y-69602380D01*
X126914285Y-69650000D01*
X126866666Y-69697619D01*
X125961904Y-69602380D02*
X126438095Y-69602380D01*
X126485714Y-70078571D01*
X126438095Y-70030952D01*
X126342857Y-69983333D01*
X126104761Y-69983333D01*
X126009523Y-70030952D01*
X125961904Y-70078571D01*
X125914285Y-70173809D01*
X125914285Y-70411904D01*
X125961904Y-70507142D01*
X126009523Y-70554761D01*
X126104761Y-70602380D01*
X126342857Y-70602380D01*
X126438095Y-70554761D01*
X126485714Y-70507142D01*
X123931734Y-39582238D02*
X124504154Y-40154658D01*
X124537826Y-40255673D01*
X124537826Y-40323017D01*
X124504154Y-40424032D01*
X124369467Y-40558719D01*
X124268452Y-40592391D01*
X124201108Y-40592391D01*
X124100093Y-40558719D01*
X123527673Y-39986299D01*
X123291971Y-40356689D02*
X123224628Y-40356689D01*
X123123612Y-40390360D01*
X122955254Y-40558719D01*
X122921582Y-40659734D01*
X122921582Y-40727078D01*
X122955254Y-40828093D01*
X123022597Y-40895437D01*
X123157284Y-40962780D01*
X123965406Y-40962780D01*
X123527673Y-41400513D01*
X128368333Y-37002380D02*
X128368333Y-37716666D01*
X128415952Y-37859523D01*
X128511190Y-37954761D01*
X128654047Y-38002380D01*
X128749285Y-38002380D01*
X127939761Y-37097619D02*
X127892142Y-37050000D01*
X127796904Y-37002380D01*
X127558809Y-37002380D01*
X127463571Y-37050000D01*
X127415952Y-37097619D01*
X127368333Y-37192857D01*
X127368333Y-37288095D01*
X127415952Y-37430952D01*
X127987380Y-38002380D01*
X127368333Y-38002380D01*
X120022380Y-40045333D02*
X119546190Y-39712000D01*
X120022380Y-39473904D02*
X119022380Y-39473904D01*
X119022380Y-39854857D01*
X119070000Y-39950095D01*
X119117619Y-39997714D01*
X119212857Y-40045333D01*
X119355714Y-40045333D01*
X119450952Y-39997714D01*
X119498571Y-39950095D01*
X119546190Y-39854857D01*
X119546190Y-39473904D01*
X119117619Y-40426285D02*
X119070000Y-40473904D01*
X119022380Y-40569142D01*
X119022380Y-40807238D01*
X119070000Y-40902476D01*
X119117619Y-40950095D01*
X119212857Y-40997714D01*
X119308095Y-40997714D01*
X119450952Y-40950095D01*
X120022380Y-40378666D01*
X120022380Y-40997714D01*
X146387619Y-41804761D02*
X146340000Y-41709523D01*
X146244761Y-41614285D01*
X146101904Y-41471428D01*
X146054285Y-41376190D01*
X146054285Y-41280952D01*
X146292380Y-41328571D02*
X146244761Y-41233333D01*
X146149523Y-41138095D01*
X145959047Y-41090476D01*
X145625714Y-41090476D01*
X145435238Y-41138095D01*
X145340000Y-41233333D01*
X145292380Y-41328571D01*
X145292380Y-41519047D01*
X145340000Y-41614285D01*
X145435238Y-41709523D01*
X145625714Y-41757142D01*
X145959047Y-41757142D01*
X146149523Y-41709523D01*
X146244761Y-41614285D01*
X146292380Y-41519047D01*
X146292380Y-41328571D01*
X145387619Y-42138095D02*
X145340000Y-42185714D01*
X145292380Y-42280952D01*
X145292380Y-42519047D01*
X145340000Y-42614285D01*
X145387619Y-42661904D01*
X145482857Y-42709523D01*
X145578095Y-42709523D01*
X145720952Y-42661904D01*
X146292380Y-42090476D01*
X146292380Y-42709523D01*
X146447619Y-53099761D02*
X146400000Y-53004523D01*
X146304761Y-52909285D01*
X146161904Y-52766428D01*
X146114285Y-52671190D01*
X146114285Y-52575952D01*
X146352380Y-52623571D02*
X146304761Y-52528333D01*
X146209523Y-52433095D01*
X146019047Y-52385476D01*
X145685714Y-52385476D01*
X145495238Y-52433095D01*
X145400000Y-52528333D01*
X145352380Y-52623571D01*
X145352380Y-52814047D01*
X145400000Y-52909285D01*
X145495238Y-53004523D01*
X145685714Y-53052142D01*
X146019047Y-53052142D01*
X146209523Y-53004523D01*
X146304761Y-52909285D01*
X146352380Y-52814047D01*
X146352380Y-52623571D01*
X146352380Y-54004523D02*
X146352380Y-53433095D01*
X146352380Y-53718809D02*
X145352380Y-53718809D01*
X145495238Y-53623571D01*
X145590476Y-53528333D01*
X145638095Y-53433095D01*
X135652380Y-64188095D02*
X136461904Y-64188095D01*
X136557142Y-64235714D01*
X136604761Y-64283333D01*
X136652380Y-64378571D01*
X136652380Y-64569047D01*
X136604761Y-64664285D01*
X136557142Y-64711904D01*
X136461904Y-64759523D01*
X135652380Y-64759523D01*
X135652380Y-65711904D02*
X135652380Y-65235714D01*
X136128571Y-65188095D01*
X136080952Y-65235714D01*
X136033333Y-65330952D01*
X136033333Y-65569047D01*
X136080952Y-65664285D01*
X136128571Y-65711904D01*
X136223809Y-65759523D01*
X136461904Y-65759523D01*
X136557142Y-65711904D01*
X136604761Y-65664285D01*
X136652380Y-65569047D01*
X136652380Y-65330952D01*
X136604761Y-65235714D01*
X136557142Y-65188095D01*
X170622380Y-63479904D02*
X169622380Y-63479904D01*
X169622380Y-63718000D01*
X169670000Y-63860857D01*
X169765238Y-63956095D01*
X169860476Y-64003714D01*
X170050952Y-64051333D01*
X170193809Y-64051333D01*
X170384285Y-64003714D01*
X170479523Y-63956095D01*
X170574761Y-63860857D01*
X170622380Y-63718000D01*
X170622380Y-63479904D01*
X169622380Y-64384666D02*
X169622380Y-65003714D01*
X170003333Y-64670380D01*
X170003333Y-64813238D01*
X170050952Y-64908476D01*
X170098571Y-64956095D01*
X170193809Y-65003714D01*
X170431904Y-65003714D01*
X170527142Y-64956095D01*
X170574761Y-64908476D01*
X170622380Y-64813238D01*
X170622380Y-64527523D01*
X170574761Y-64432285D01*
X170527142Y-64384666D01*
X183552380Y-50779904D02*
X182552380Y-50779904D01*
X182552380Y-51018000D01*
X182600000Y-51160857D01*
X182695238Y-51256095D01*
X182790476Y-51303714D01*
X182980952Y-51351333D01*
X183123809Y-51351333D01*
X183314285Y-51303714D01*
X183409523Y-51256095D01*
X183504761Y-51160857D01*
X183552380Y-51018000D01*
X183552380Y-50779904D01*
X183552380Y-51827523D02*
X183552380Y-52018000D01*
X183504761Y-52113238D01*
X183457142Y-52160857D01*
X183314285Y-52256095D01*
X183123809Y-52303714D01*
X182742857Y-52303714D01*
X182647619Y-52256095D01*
X182600000Y-52208476D01*
X182552380Y-52113238D01*
X182552380Y-51922761D01*
X182600000Y-51827523D01*
X182647619Y-51779904D01*
X182742857Y-51732285D01*
X182980952Y-51732285D01*
X183076190Y-51779904D01*
X183123809Y-51827523D01*
X183171428Y-51922761D01*
X183171428Y-52113238D01*
X183123809Y-52208476D01*
X183076190Y-52256095D01*
X182980952Y-52303714D01*
X201332380Y-50303714D02*
X200332380Y-50303714D01*
X200332380Y-50541809D01*
X200380000Y-50684666D01*
X200475238Y-50779904D01*
X200570476Y-50827523D01*
X200760952Y-50875142D01*
X200903809Y-50875142D01*
X201094285Y-50827523D01*
X201189523Y-50779904D01*
X201284761Y-50684666D01*
X201332380Y-50541809D01*
X201332380Y-50303714D01*
X201332380Y-51827523D02*
X201332380Y-51256095D01*
X201332380Y-51541809D02*
X200332380Y-51541809D01*
X200475238Y-51446571D01*
X200570476Y-51351333D01*
X200618095Y-51256095D01*
X200332380Y-52732285D02*
X200332380Y-52256095D01*
X200808571Y-52208476D01*
X200760952Y-52256095D01*
X200713333Y-52351333D01*
X200713333Y-52589428D01*
X200760952Y-52684666D01*
X200808571Y-52732285D01*
X200903809Y-52779904D01*
X201141904Y-52779904D01*
X201237142Y-52732285D01*
X201284761Y-52684666D01*
X201332380Y-52589428D01*
X201332380Y-52351333D01*
X201284761Y-52256095D01*
X201237142Y-52208476D01*
X148207142Y-61271333D02*
X148254761Y-61223714D01*
X148302380Y-61080857D01*
X148302380Y-60985619D01*
X148254761Y-60842761D01*
X148159523Y-60747523D01*
X148064285Y-60699904D01*
X147873809Y-60652285D01*
X147730952Y-60652285D01*
X147540476Y-60699904D01*
X147445238Y-60747523D01*
X147350000Y-60842761D01*
X147302380Y-60985619D01*
X147302380Y-61080857D01*
X147350000Y-61223714D01*
X147397619Y-61271333D01*
X148302380Y-61747523D02*
X148302380Y-61938000D01*
X148254761Y-62033238D01*
X148207142Y-62080857D01*
X148064285Y-62176095D01*
X147873809Y-62223714D01*
X147492857Y-62223714D01*
X147397619Y-62176095D01*
X147350000Y-62128476D01*
X147302380Y-62033238D01*
X147302380Y-61842761D01*
X147350000Y-61747523D01*
X147397619Y-61699904D01*
X147492857Y-61652285D01*
X147730952Y-61652285D01*
X147826190Y-61699904D01*
X147873809Y-61747523D01*
X147921428Y-61842761D01*
X147921428Y-62033238D01*
X147873809Y-62128476D01*
X147826190Y-62176095D01*
X147730952Y-62223714D01*
X127404666Y-51307142D02*
X127452285Y-51354761D01*
X127595142Y-51402380D01*
X127690380Y-51402380D01*
X127833238Y-51354761D01*
X127928476Y-51259523D01*
X127976095Y-51164285D01*
X128023714Y-50973809D01*
X128023714Y-50830952D01*
X127976095Y-50640476D01*
X127928476Y-50545238D01*
X127833238Y-50450000D01*
X127690380Y-50402380D01*
X127595142Y-50402380D01*
X127452285Y-50450000D01*
X127404666Y-50497619D01*
X126547523Y-50735714D02*
X126547523Y-51402380D01*
X126785619Y-50354761D02*
X127023714Y-51069047D01*
X126404666Y-51069047D01*
X134107142Y-63895333D02*
X134154761Y-63847714D01*
X134202380Y-63704857D01*
X134202380Y-63609619D01*
X134154761Y-63466761D01*
X134059523Y-63371523D01*
X133964285Y-63323904D01*
X133773809Y-63276285D01*
X133630952Y-63276285D01*
X133440476Y-63323904D01*
X133345238Y-63371523D01*
X133250000Y-63466761D01*
X133202380Y-63609619D01*
X133202380Y-63704857D01*
X133250000Y-63847714D01*
X133297619Y-63895333D01*
X133202380Y-64752476D02*
X133202380Y-64562000D01*
X133250000Y-64466761D01*
X133297619Y-64419142D01*
X133440476Y-64323904D01*
X133630952Y-64276285D01*
X134011904Y-64276285D01*
X134107142Y-64323904D01*
X134154761Y-64371523D01*
X134202380Y-64466761D01*
X134202380Y-64657238D01*
X134154761Y-64752476D01*
X134107142Y-64800095D01*
X134011904Y-64847714D01*
X133773809Y-64847714D01*
X133678571Y-64800095D01*
X133630952Y-64752476D01*
X133583333Y-64657238D01*
X133583333Y-64466761D01*
X133630952Y-64371523D01*
X133678571Y-64323904D01*
X133773809Y-64276285D01*
D16*
X129539761Y-57874523D02*
X129539761Y-56604523D01*
X128209285Y-57753571D02*
X128269761Y-57814047D01*
X128451190Y-57874523D01*
X128572142Y-57874523D01*
X128753571Y-57814047D01*
X128874523Y-57693095D01*
X128935000Y-57572142D01*
X128995476Y-57330238D01*
X128995476Y-57148809D01*
X128935000Y-56906904D01*
X128874523Y-56785952D01*
X128753571Y-56665000D01*
X128572142Y-56604523D01*
X128451190Y-56604523D01*
X128269761Y-56665000D01*
X128209285Y-56725476D01*
X126999761Y-57874523D02*
X127725476Y-57874523D01*
X127362619Y-57874523D02*
X127362619Y-56604523D01*
X127483571Y-56785952D01*
X127604523Y-56906904D01*
X127725476Y-56967380D01*
D15*
X156882380Y-51181904D02*
X155882380Y-51181904D01*
X155882380Y-51420000D01*
X155930000Y-51562857D01*
X156025238Y-51658095D01*
X156120476Y-51705714D01*
X156310952Y-51753333D01*
X156453809Y-51753333D01*
X156644285Y-51705714D01*
X156739523Y-51658095D01*
X156834761Y-51562857D01*
X156882380Y-51420000D01*
X156882380Y-51181904D01*
X155882380Y-52610476D02*
X155882380Y-52420000D01*
X155930000Y-52324761D01*
X155977619Y-52277142D01*
X156120476Y-52181904D01*
X156310952Y-52134285D01*
X156691904Y-52134285D01*
X156787142Y-52181904D01*
X156834761Y-52229523D01*
X156882380Y-52324761D01*
X156882380Y-52515238D01*
X156834761Y-52610476D01*
X156787142Y-52658095D01*
X156691904Y-52705714D01*
X156453809Y-52705714D01*
X156358571Y-52658095D01*
X156310952Y-52610476D01*
X156263333Y-52515238D01*
X156263333Y-52324761D01*
X156310952Y-52229523D01*
X156358571Y-52181904D01*
X156453809Y-52134285D01*
X174662380Y-50949904D02*
X173662380Y-50949904D01*
X173662380Y-51188000D01*
X173710000Y-51330857D01*
X173805238Y-51426095D01*
X173900476Y-51473714D01*
X174090952Y-51521333D01*
X174233809Y-51521333D01*
X174424285Y-51473714D01*
X174519523Y-51426095D01*
X174614761Y-51330857D01*
X174662380Y-51188000D01*
X174662380Y-50949904D01*
X174090952Y-52092761D02*
X174043333Y-51997523D01*
X173995714Y-51949904D01*
X173900476Y-51902285D01*
X173852857Y-51902285D01*
X173757619Y-51949904D01*
X173710000Y-51997523D01*
X173662380Y-52092761D01*
X173662380Y-52283238D01*
X173710000Y-52378476D01*
X173757619Y-52426095D01*
X173852857Y-52473714D01*
X173900476Y-52473714D01*
X173995714Y-52426095D01*
X174043333Y-52378476D01*
X174090952Y-52283238D01*
X174090952Y-52092761D01*
X174138571Y-51997523D01*
X174186190Y-51949904D01*
X174281428Y-51902285D01*
X174471904Y-51902285D01*
X174567142Y-51949904D01*
X174614761Y-51997523D01*
X174662380Y-52092761D01*
X174662380Y-52283238D01*
X174614761Y-52378476D01*
X174567142Y-52426095D01*
X174471904Y-52473714D01*
X174281428Y-52473714D01*
X174186190Y-52426095D01*
X174138571Y-52378476D01*
X174090952Y-52283238D01*
X145007142Y-66033333D02*
X145054761Y-65985714D01*
X145102380Y-65842857D01*
X145102380Y-65747619D01*
X145054761Y-65604761D01*
X144959523Y-65509523D01*
X144864285Y-65461904D01*
X144673809Y-65414285D01*
X144530952Y-65414285D01*
X144340476Y-65461904D01*
X144245238Y-65509523D01*
X144150000Y-65604761D01*
X144102380Y-65747619D01*
X144102380Y-65842857D01*
X144150000Y-65985714D01*
X144197619Y-66033333D01*
X144530952Y-66604761D02*
X144483333Y-66509523D01*
X144435714Y-66461904D01*
X144340476Y-66414285D01*
X144292857Y-66414285D01*
X144197619Y-66461904D01*
X144150000Y-66509523D01*
X144102380Y-66604761D01*
X144102380Y-66795238D01*
X144150000Y-66890476D01*
X144197619Y-66938095D01*
X144292857Y-66985714D01*
X144340476Y-66985714D01*
X144435714Y-66938095D01*
X144483333Y-66890476D01*
X144530952Y-66795238D01*
X144530952Y-66604761D01*
X144578571Y-66509523D01*
X144626190Y-66461904D01*
X144721428Y-66414285D01*
X144911904Y-66414285D01*
X145007142Y-66461904D01*
X145054761Y-66509523D01*
X145102380Y-66604761D01*
X145102380Y-66795238D01*
X145054761Y-66890476D01*
X145007142Y-66938095D01*
X144911904Y-66985714D01*
X144721428Y-66985714D01*
X144626190Y-66938095D01*
X144578571Y-66890476D01*
X144530952Y-66795238D01*
X137307142Y-58057142D02*
X137354761Y-58009523D01*
X137402380Y-57866666D01*
X137402380Y-57771428D01*
X137354761Y-57628571D01*
X137259523Y-57533333D01*
X137164285Y-57485714D01*
X136973809Y-57438095D01*
X136830952Y-57438095D01*
X136640476Y-57485714D01*
X136545238Y-57533333D01*
X136450000Y-57628571D01*
X136402380Y-57771428D01*
X136402380Y-57866666D01*
X136450000Y-58009523D01*
X136497619Y-58057142D01*
X137402380Y-59009523D02*
X137402380Y-58438095D01*
X137402380Y-58723809D02*
X136402380Y-58723809D01*
X136545238Y-58628571D01*
X136640476Y-58533333D01*
X136688095Y-58438095D01*
X136402380Y-59628571D02*
X136402380Y-59723809D01*
X136450000Y-59819047D01*
X136497619Y-59866666D01*
X136592857Y-59914285D01*
X136783333Y-59961904D01*
X137021428Y-59961904D01*
X137211904Y-59914285D01*
X137307142Y-59866666D01*
X137354761Y-59819047D01*
X137402380Y-59723809D01*
X137402380Y-59628571D01*
X137354761Y-59533333D01*
X137307142Y-59485714D01*
X137211904Y-59438095D01*
X137021428Y-59390476D01*
X136783333Y-59390476D01*
X136592857Y-59438095D01*
X136497619Y-59485714D01*
X136450000Y-59533333D01*
X136402380Y-59628571D01*
X156052380Y-61513095D02*
X156861904Y-61513095D01*
X156957142Y-61560714D01*
X157004761Y-61608333D01*
X157052380Y-61703571D01*
X157052380Y-61894047D01*
X157004761Y-61989285D01*
X156957142Y-62036904D01*
X156861904Y-62084523D01*
X156052380Y-62084523D01*
X156385714Y-62989285D02*
X157052380Y-62989285D01*
X156004761Y-62751190D02*
X156719047Y-62513095D01*
X156719047Y-63132142D01*
X201332380Y-35063714D02*
X200332380Y-35063714D01*
X200332380Y-35301809D01*
X200380000Y-35444666D01*
X200475238Y-35539904D01*
X200570476Y-35587523D01*
X200760952Y-35635142D01*
X200903809Y-35635142D01*
X201094285Y-35587523D01*
X201189523Y-35539904D01*
X201284761Y-35444666D01*
X201332380Y-35301809D01*
X201332380Y-35063714D01*
X201332380Y-36587523D02*
X201332380Y-36016095D01*
X201332380Y-36301809D02*
X200332380Y-36301809D01*
X200475238Y-36206571D01*
X200570476Y-36111333D01*
X200618095Y-36016095D01*
X201332380Y-37539904D02*
X201332380Y-36968476D01*
X201332380Y-37254190D02*
X200332380Y-37254190D01*
X200475238Y-37158952D01*
X200570476Y-37063714D01*
X200618095Y-36968476D01*
X174662380Y-35063714D02*
X173662380Y-35063714D01*
X173662380Y-35301809D01*
X173710000Y-35444666D01*
X173805238Y-35539904D01*
X173900476Y-35587523D01*
X174090952Y-35635142D01*
X174233809Y-35635142D01*
X174424285Y-35587523D01*
X174519523Y-35539904D01*
X174614761Y-35444666D01*
X174662380Y-35301809D01*
X174662380Y-35063714D01*
X174662380Y-36587523D02*
X174662380Y-36016095D01*
X174662380Y-36301809D02*
X173662380Y-36301809D01*
X173805238Y-36206571D01*
X173900476Y-36111333D01*
X173948095Y-36016095D01*
X173662380Y-36920857D02*
X173662380Y-37539904D01*
X174043333Y-37206571D01*
X174043333Y-37349428D01*
X174090952Y-37444666D01*
X174138571Y-37492285D01*
X174233809Y-37539904D01*
X174471904Y-37539904D01*
X174567142Y-37492285D01*
X174614761Y-37444666D01*
X174662380Y-37349428D01*
X174662380Y-37063714D01*
X174614761Y-36968476D01*
X174567142Y-36920857D01*
X179512380Y-63479904D02*
X178512380Y-63479904D01*
X178512380Y-63718000D01*
X178560000Y-63860857D01*
X178655238Y-63956095D01*
X178750476Y-64003714D01*
X178940952Y-64051333D01*
X179083809Y-64051333D01*
X179274285Y-64003714D01*
X179369523Y-63956095D01*
X179464761Y-63860857D01*
X179512380Y-63718000D01*
X179512380Y-63479904D01*
X178845714Y-64908476D02*
X179512380Y-64908476D01*
X178464761Y-64670380D02*
X179179047Y-64432285D01*
X179179047Y-65051333D01*
X202604285Y-41642380D02*
X202604285Y-40642380D01*
X202366190Y-40642380D01*
X202223333Y-40690000D01*
X202128095Y-40785238D01*
X202080476Y-40880476D01*
X202032857Y-41070952D01*
X202032857Y-41213809D01*
X202080476Y-41404285D01*
X202128095Y-41499523D01*
X202223333Y-41594761D01*
X202366190Y-41642380D01*
X202604285Y-41642380D01*
X201080476Y-41642380D02*
X201651904Y-41642380D01*
X201366190Y-41642380D02*
X201366190Y-40642380D01*
X201461428Y-40785238D01*
X201556666Y-40880476D01*
X201651904Y-40928095D01*
X200461428Y-40642380D02*
X200366190Y-40642380D01*
X200270952Y-40690000D01*
X200223333Y-40737619D01*
X200175714Y-40832857D01*
X200128095Y-41023333D01*
X200128095Y-41261428D01*
X200175714Y-41451904D01*
X200223333Y-41547142D01*
X200270952Y-41594761D01*
X200366190Y-41642380D01*
X200461428Y-41642380D01*
X200556666Y-41594761D01*
X200604285Y-41547142D01*
X200651904Y-41451904D01*
X200699523Y-41261428D01*
X200699523Y-41023333D01*
X200651904Y-40832857D01*
X200604285Y-40737619D01*
X200556666Y-40690000D01*
X200461428Y-40642380D01*
X189902380Y-63479904D02*
X188902380Y-63479904D01*
X188902380Y-63718000D01*
X188950000Y-63860857D01*
X189045238Y-63956095D01*
X189140476Y-64003714D01*
X189330952Y-64051333D01*
X189473809Y-64051333D01*
X189664285Y-64003714D01*
X189759523Y-63956095D01*
X189854761Y-63860857D01*
X189902380Y-63718000D01*
X189902380Y-63479904D01*
X188997619Y-64432285D02*
X188950000Y-64479904D01*
X188902380Y-64575142D01*
X188902380Y-64813238D01*
X188950000Y-64908476D01*
X188997619Y-64956095D01*
X189092857Y-65003714D01*
X189188095Y-65003714D01*
X189330952Y-64956095D01*
X189902380Y-64384666D01*
X189902380Y-65003714D01*
X192442380Y-50303714D02*
X191442380Y-50303714D01*
X191442380Y-50541809D01*
X191490000Y-50684666D01*
X191585238Y-50779904D01*
X191680476Y-50827523D01*
X191870952Y-50875142D01*
X192013809Y-50875142D01*
X192204285Y-50827523D01*
X192299523Y-50779904D01*
X192394761Y-50684666D01*
X192442380Y-50541809D01*
X192442380Y-50303714D01*
X192442380Y-51827523D02*
X192442380Y-51256095D01*
X192442380Y-51541809D02*
X191442380Y-51541809D01*
X191585238Y-51446571D01*
X191680476Y-51351333D01*
X191728095Y-51256095D01*
X191775714Y-52684666D02*
X192442380Y-52684666D01*
X191394761Y-52446571D02*
X192109047Y-52208476D01*
X192109047Y-52827523D01*
X202764285Y-58032380D02*
X202764285Y-57032380D01*
X202526190Y-57032380D01*
X202383333Y-57080000D01*
X202288095Y-57175238D01*
X202240476Y-57270476D01*
X202192857Y-57460952D01*
X202192857Y-57603809D01*
X202240476Y-57794285D01*
X202288095Y-57889523D01*
X202383333Y-57984761D01*
X202526190Y-58032380D01*
X202764285Y-58032380D01*
X201240476Y-58032380D02*
X201811904Y-58032380D01*
X201526190Y-58032380D02*
X201526190Y-57032380D01*
X201621428Y-57175238D01*
X201716666Y-57270476D01*
X201811904Y-57318095D01*
X200383333Y-57032380D02*
X200573809Y-57032380D01*
X200669047Y-57080000D01*
X200716666Y-57127619D01*
X200811904Y-57270476D01*
X200859523Y-57460952D01*
X200859523Y-57841904D01*
X200811904Y-57937142D01*
X200764285Y-57984761D01*
X200669047Y-58032380D01*
X200478571Y-58032380D01*
X200383333Y-57984761D01*
X200335714Y-57937142D01*
X200288095Y-57841904D01*
X200288095Y-57603809D01*
X200335714Y-57508571D01*
X200383333Y-57460952D01*
X200478571Y-57413333D01*
X200669047Y-57413333D01*
X200764285Y-57460952D01*
X200811904Y-57508571D01*
X200859523Y-57603809D01*
X165772380Y-35063714D02*
X164772380Y-35063714D01*
X164772380Y-35301809D01*
X164820000Y-35444666D01*
X164915238Y-35539904D01*
X165010476Y-35587523D01*
X165200952Y-35635142D01*
X165343809Y-35635142D01*
X165534285Y-35587523D01*
X165629523Y-35539904D01*
X165724761Y-35444666D01*
X165772380Y-35301809D01*
X165772380Y-35063714D01*
X165772380Y-36587523D02*
X165772380Y-36016095D01*
X165772380Y-36301809D02*
X164772380Y-36301809D01*
X164915238Y-36206571D01*
X165010476Y-36111333D01*
X165058095Y-36016095D01*
X165200952Y-37158952D02*
X165153333Y-37063714D01*
X165105714Y-37016095D01*
X165010476Y-36968476D01*
X164962857Y-36968476D01*
X164867619Y-37016095D01*
X164820000Y-37063714D01*
X164772380Y-37158952D01*
X164772380Y-37349428D01*
X164820000Y-37444666D01*
X164867619Y-37492285D01*
X164962857Y-37539904D01*
X165010476Y-37539904D01*
X165105714Y-37492285D01*
X165153333Y-37444666D01*
X165200952Y-37349428D01*
X165200952Y-37158952D01*
X165248571Y-37063714D01*
X165296190Y-37016095D01*
X165391428Y-36968476D01*
X165581904Y-36968476D01*
X165677142Y-37016095D01*
X165724761Y-37063714D01*
X165772380Y-37158952D01*
X165772380Y-37349428D01*
X165724761Y-37444666D01*
X165677142Y-37492285D01*
X165581904Y-37539904D01*
X165391428Y-37539904D01*
X165296190Y-37492285D01*
X165248571Y-37444666D01*
X165200952Y-37349428D01*
X160207142Y-65833333D02*
X160254761Y-65785714D01*
X160302380Y-65642857D01*
X160302380Y-65547619D01*
X160254761Y-65404761D01*
X160159523Y-65309523D01*
X160064285Y-65261904D01*
X159873809Y-65214285D01*
X159730952Y-65214285D01*
X159540476Y-65261904D01*
X159445238Y-65309523D01*
X159350000Y-65404761D01*
X159302380Y-65547619D01*
X159302380Y-65642857D01*
X159350000Y-65785714D01*
X159397619Y-65833333D01*
X159302380Y-66166666D02*
X159302380Y-66833333D01*
X160302380Y-66404761D01*
X165772380Y-50779904D02*
X164772380Y-50779904D01*
X164772380Y-51018000D01*
X164820000Y-51160857D01*
X164915238Y-51256095D01*
X165010476Y-51303714D01*
X165200952Y-51351333D01*
X165343809Y-51351333D01*
X165534285Y-51303714D01*
X165629523Y-51256095D01*
X165724761Y-51160857D01*
X165772380Y-51018000D01*
X165772380Y-50779904D01*
X164772380Y-51684666D02*
X164772380Y-52351333D01*
X165772380Y-51922761D01*
X192442380Y-35063714D02*
X191442380Y-35063714D01*
X191442380Y-35301809D01*
X191490000Y-35444666D01*
X191585238Y-35539904D01*
X191680476Y-35587523D01*
X191870952Y-35635142D01*
X192013809Y-35635142D01*
X192204285Y-35587523D01*
X192299523Y-35539904D01*
X192394761Y-35444666D01*
X192442380Y-35301809D01*
X192442380Y-35063714D01*
X192442380Y-36587523D02*
X192442380Y-36016095D01*
X192442380Y-36301809D02*
X191442380Y-36301809D01*
X191585238Y-36206571D01*
X191680476Y-36111333D01*
X191728095Y-36016095D01*
X191537619Y-36968476D02*
X191490000Y-37016095D01*
X191442380Y-37111333D01*
X191442380Y-37349428D01*
X191490000Y-37444666D01*
X191537619Y-37492285D01*
X191632857Y-37539904D01*
X191728095Y-37539904D01*
X191870952Y-37492285D01*
X192442380Y-36920857D01*
X192442380Y-37539904D01*
X156732380Y-35063714D02*
X155732380Y-35063714D01*
X155732380Y-35301809D01*
X155780000Y-35444666D01*
X155875238Y-35539904D01*
X155970476Y-35587523D01*
X156160952Y-35635142D01*
X156303809Y-35635142D01*
X156494285Y-35587523D01*
X156589523Y-35539904D01*
X156684761Y-35444666D01*
X156732380Y-35301809D01*
X156732380Y-35063714D01*
X156732380Y-36587523D02*
X156732380Y-36016095D01*
X156732380Y-36301809D02*
X155732380Y-36301809D01*
X155875238Y-36206571D01*
X155970476Y-36111333D01*
X156018095Y-36016095D01*
X156732380Y-37063714D02*
X156732380Y-37254190D01*
X156684761Y-37349428D01*
X156637142Y-37397047D01*
X156494285Y-37492285D01*
X156303809Y-37539904D01*
X155922857Y-37539904D01*
X155827619Y-37492285D01*
X155780000Y-37444666D01*
X155732380Y-37349428D01*
X155732380Y-37158952D01*
X155780000Y-37063714D01*
X155827619Y-37016095D01*
X155922857Y-36968476D01*
X156160952Y-36968476D01*
X156256190Y-37016095D01*
X156303809Y-37063714D01*
X156351428Y-37158952D01*
X156351428Y-37349428D01*
X156303809Y-37444666D01*
X156256190Y-37492285D01*
X156160952Y-37539904D01*
X183552380Y-35063714D02*
X182552380Y-35063714D01*
X182552380Y-35301809D01*
X182600000Y-35444666D01*
X182695238Y-35539904D01*
X182790476Y-35587523D01*
X182980952Y-35635142D01*
X183123809Y-35635142D01*
X183314285Y-35587523D01*
X183409523Y-35539904D01*
X183504761Y-35444666D01*
X183552380Y-35301809D01*
X183552380Y-35063714D01*
X183552380Y-36587523D02*
X183552380Y-36016095D01*
X183552380Y-36301809D02*
X182552380Y-36301809D01*
X182695238Y-36206571D01*
X182790476Y-36111333D01*
X182838095Y-36016095D01*
X182552380Y-36920857D02*
X182552380Y-37587523D01*
X183552380Y-37158952D01*
X130836904Y-60387380D02*
X130836904Y-61196904D01*
X130789285Y-61292142D01*
X130741666Y-61339761D01*
X130646428Y-61387380D01*
X130455952Y-61387380D01*
X130360714Y-61339761D01*
X130313095Y-61292142D01*
X130265476Y-61196904D01*
X130265476Y-60387380D01*
X129884523Y-60387380D02*
X129265476Y-60387380D01*
X129598809Y-60768333D01*
X129455952Y-60768333D01*
X129360714Y-60815952D01*
X129313095Y-60863571D01*
X129265476Y-60958809D01*
X129265476Y-61196904D01*
X129313095Y-61292142D01*
X129360714Y-61339761D01*
X129455952Y-61387380D01*
X129741666Y-61387380D01*
X129836904Y-61339761D01*
X129884523Y-61292142D01*
X156732380Y-85063714D02*
X155732380Y-85063714D01*
X155732380Y-85301809D01*
X155780000Y-85444666D01*
X155875238Y-85539904D01*
X155970476Y-85587523D01*
X156160952Y-85635142D01*
X156303809Y-85635142D01*
X156494285Y-85587523D01*
X156589523Y-85539904D01*
X156684761Y-85444666D01*
X156732380Y-85301809D01*
X156732380Y-85063714D01*
X156732380Y-86587523D02*
X156732380Y-86016095D01*
X156732380Y-86301809D02*
X155732380Y-86301809D01*
X155875238Y-86206571D01*
X155970476Y-86111333D01*
X156018095Y-86016095D01*
X156732380Y-87063714D02*
X156732380Y-87254190D01*
X156684761Y-87349428D01*
X156637142Y-87397047D01*
X156494285Y-87492285D01*
X156303809Y-87539904D01*
X155922857Y-87539904D01*
X155827619Y-87492285D01*
X155780000Y-87444666D01*
X155732380Y-87349428D01*
X155732380Y-87158952D01*
X155780000Y-87063714D01*
X155827619Y-87016095D01*
X155922857Y-86968476D01*
X156160952Y-86968476D01*
X156256190Y-87016095D01*
X156303809Y-87063714D01*
X156351428Y-87158952D01*
X156351428Y-87349428D01*
X156303809Y-87444666D01*
X156256190Y-87492285D01*
X156160952Y-87539904D01*
X165772380Y-85063714D02*
X164772380Y-85063714D01*
X164772380Y-85301809D01*
X164820000Y-85444666D01*
X164915238Y-85539904D01*
X165010476Y-85587523D01*
X165200952Y-85635142D01*
X165343809Y-85635142D01*
X165534285Y-85587523D01*
X165629523Y-85539904D01*
X165724761Y-85444666D01*
X165772380Y-85301809D01*
X165772380Y-85063714D01*
X165772380Y-86587523D02*
X165772380Y-86016095D01*
X165772380Y-86301809D02*
X164772380Y-86301809D01*
X164915238Y-86206571D01*
X165010476Y-86111333D01*
X165058095Y-86016095D01*
X165200952Y-87158952D02*
X165153333Y-87063714D01*
X165105714Y-87016095D01*
X165010476Y-86968476D01*
X164962857Y-86968476D01*
X164867619Y-87016095D01*
X164820000Y-87063714D01*
X164772380Y-87158952D01*
X164772380Y-87349428D01*
X164820000Y-87444666D01*
X164867619Y-87492285D01*
X164962857Y-87539904D01*
X165010476Y-87539904D01*
X165105714Y-87492285D01*
X165153333Y-87444666D01*
X165200952Y-87349428D01*
X165200952Y-87158952D01*
X165248571Y-87063714D01*
X165296190Y-87016095D01*
X165391428Y-86968476D01*
X165581904Y-86968476D01*
X165677142Y-87016095D01*
X165724761Y-87063714D01*
X165772380Y-87158952D01*
X165772380Y-87349428D01*
X165724761Y-87444666D01*
X165677142Y-87492285D01*
X165581904Y-87539904D01*
X165391428Y-87539904D01*
X165296190Y-87492285D01*
X165248571Y-87444666D01*
X165200952Y-87349428D01*
X183552380Y-85063714D02*
X182552380Y-85063714D01*
X182552380Y-85301809D01*
X182600000Y-85444666D01*
X182695238Y-85539904D01*
X182790476Y-85587523D01*
X182980952Y-85635142D01*
X183123809Y-85635142D01*
X183314285Y-85587523D01*
X183409523Y-85539904D01*
X183504761Y-85444666D01*
X183552380Y-85301809D01*
X183552380Y-85063714D01*
X183552380Y-86587523D02*
X183552380Y-86016095D01*
X183552380Y-86301809D02*
X182552380Y-86301809D01*
X182695238Y-86206571D01*
X182790476Y-86111333D01*
X182838095Y-86016095D01*
X182552380Y-86920857D02*
X182552380Y-87587523D01*
X183552380Y-87158952D01*
X202764285Y-108032380D02*
X202764285Y-107032380D01*
X202526190Y-107032380D01*
X202383333Y-107080000D01*
X202288095Y-107175238D01*
X202240476Y-107270476D01*
X202192857Y-107460952D01*
X202192857Y-107603809D01*
X202240476Y-107794285D01*
X202288095Y-107889523D01*
X202383333Y-107984761D01*
X202526190Y-108032380D01*
X202764285Y-108032380D01*
X201240476Y-108032380D02*
X201811904Y-108032380D01*
X201526190Y-108032380D02*
X201526190Y-107032380D01*
X201621428Y-107175238D01*
X201716666Y-107270476D01*
X201811904Y-107318095D01*
X200383333Y-107032380D02*
X200573809Y-107032380D01*
X200669047Y-107080000D01*
X200716666Y-107127619D01*
X200811904Y-107270476D01*
X200859523Y-107460952D01*
X200859523Y-107841904D01*
X200811904Y-107937142D01*
X200764285Y-107984761D01*
X200669047Y-108032380D01*
X200478571Y-108032380D01*
X200383333Y-107984761D01*
X200335714Y-107937142D01*
X200288095Y-107841904D01*
X200288095Y-107603809D01*
X200335714Y-107508571D01*
X200383333Y-107460952D01*
X200478571Y-107413333D01*
X200669047Y-107413333D01*
X200764285Y-107460952D01*
X200811904Y-107508571D01*
X200859523Y-107603809D01*
X201332380Y-100303714D02*
X200332380Y-100303714D01*
X200332380Y-100541809D01*
X200380000Y-100684666D01*
X200475238Y-100779904D01*
X200570476Y-100827523D01*
X200760952Y-100875142D01*
X200903809Y-100875142D01*
X201094285Y-100827523D01*
X201189523Y-100779904D01*
X201284761Y-100684666D01*
X201332380Y-100541809D01*
X201332380Y-100303714D01*
X201332380Y-101827523D02*
X201332380Y-101256095D01*
X201332380Y-101541809D02*
X200332380Y-101541809D01*
X200475238Y-101446571D01*
X200570476Y-101351333D01*
X200618095Y-101256095D01*
X200332380Y-102732285D02*
X200332380Y-102256095D01*
X200808571Y-102208476D01*
X200760952Y-102256095D01*
X200713333Y-102351333D01*
X200713333Y-102589428D01*
X200760952Y-102684666D01*
X200808571Y-102732285D01*
X200903809Y-102779904D01*
X201141904Y-102779904D01*
X201237142Y-102732285D01*
X201284761Y-102684666D01*
X201332380Y-102589428D01*
X201332380Y-102351333D01*
X201284761Y-102256095D01*
X201237142Y-102208476D01*
X192442380Y-100303714D02*
X191442380Y-100303714D01*
X191442380Y-100541809D01*
X191490000Y-100684666D01*
X191585238Y-100779904D01*
X191680476Y-100827523D01*
X191870952Y-100875142D01*
X192013809Y-100875142D01*
X192204285Y-100827523D01*
X192299523Y-100779904D01*
X192394761Y-100684666D01*
X192442380Y-100541809D01*
X192442380Y-100303714D01*
X192442380Y-101827523D02*
X192442380Y-101256095D01*
X192442380Y-101541809D02*
X191442380Y-101541809D01*
X191585238Y-101446571D01*
X191680476Y-101351333D01*
X191728095Y-101256095D01*
X191775714Y-102684666D02*
X192442380Y-102684666D01*
X191394761Y-102446571D02*
X192109047Y-102208476D01*
X192109047Y-102827523D01*
X174662380Y-85063714D02*
X173662380Y-85063714D01*
X173662380Y-85301809D01*
X173710000Y-85444666D01*
X173805238Y-85539904D01*
X173900476Y-85587523D01*
X174090952Y-85635142D01*
X174233809Y-85635142D01*
X174424285Y-85587523D01*
X174519523Y-85539904D01*
X174614761Y-85444666D01*
X174662380Y-85301809D01*
X174662380Y-85063714D01*
X174662380Y-86587523D02*
X174662380Y-86016095D01*
X174662380Y-86301809D02*
X173662380Y-86301809D01*
X173805238Y-86206571D01*
X173900476Y-86111333D01*
X173948095Y-86016095D01*
X173662380Y-86920857D02*
X173662380Y-87539904D01*
X174043333Y-87206571D01*
X174043333Y-87349428D01*
X174090952Y-87444666D01*
X174138571Y-87492285D01*
X174233809Y-87539904D01*
X174471904Y-87539904D01*
X174567142Y-87492285D01*
X174614761Y-87444666D01*
X174662380Y-87349428D01*
X174662380Y-87063714D01*
X174614761Y-86968476D01*
X174567142Y-86920857D01*
X192442380Y-85063714D02*
X191442380Y-85063714D01*
X191442380Y-85301809D01*
X191490000Y-85444666D01*
X191585238Y-85539904D01*
X191680476Y-85587523D01*
X191870952Y-85635142D01*
X192013809Y-85635142D01*
X192204285Y-85587523D01*
X192299523Y-85539904D01*
X192394761Y-85444666D01*
X192442380Y-85301809D01*
X192442380Y-85063714D01*
X192442380Y-86587523D02*
X192442380Y-86016095D01*
X192442380Y-86301809D02*
X191442380Y-86301809D01*
X191585238Y-86206571D01*
X191680476Y-86111333D01*
X191728095Y-86016095D01*
X191537619Y-86968476D02*
X191490000Y-87016095D01*
X191442380Y-87111333D01*
X191442380Y-87349428D01*
X191490000Y-87444666D01*
X191537619Y-87492285D01*
X191632857Y-87539904D01*
X191728095Y-87539904D01*
X191870952Y-87492285D01*
X192442380Y-86920857D01*
X192442380Y-87539904D01*
X201332380Y-85063714D02*
X200332380Y-85063714D01*
X200332380Y-85301809D01*
X200380000Y-85444666D01*
X200475238Y-85539904D01*
X200570476Y-85587523D01*
X200760952Y-85635142D01*
X200903809Y-85635142D01*
X201094285Y-85587523D01*
X201189523Y-85539904D01*
X201284761Y-85444666D01*
X201332380Y-85301809D01*
X201332380Y-85063714D01*
X201332380Y-86587523D02*
X201332380Y-86016095D01*
X201332380Y-86301809D02*
X200332380Y-86301809D01*
X200475238Y-86206571D01*
X200570476Y-86111333D01*
X200618095Y-86016095D01*
X201332380Y-87539904D02*
X201332380Y-86968476D01*
X201332380Y-87254190D02*
X200332380Y-87254190D01*
X200475238Y-87158952D01*
X200570476Y-87063714D01*
X200618095Y-86968476D01*
X202604285Y-91642380D02*
X202604285Y-90642380D01*
X202366190Y-90642380D01*
X202223333Y-90690000D01*
X202128095Y-90785238D01*
X202080476Y-90880476D01*
X202032857Y-91070952D01*
X202032857Y-91213809D01*
X202080476Y-91404285D01*
X202128095Y-91499523D01*
X202223333Y-91594761D01*
X202366190Y-91642380D01*
X202604285Y-91642380D01*
X201080476Y-91642380D02*
X201651904Y-91642380D01*
X201366190Y-91642380D02*
X201366190Y-90642380D01*
X201461428Y-90785238D01*
X201556666Y-90880476D01*
X201651904Y-90928095D01*
X200461428Y-90642380D02*
X200366190Y-90642380D01*
X200270952Y-90690000D01*
X200223333Y-90737619D01*
X200175714Y-90832857D01*
X200128095Y-91023333D01*
X200128095Y-91261428D01*
X200175714Y-91451904D01*
X200223333Y-91547142D01*
X200270952Y-91594761D01*
X200366190Y-91642380D01*
X200461428Y-91642380D01*
X200556666Y-91594761D01*
X200604285Y-91547142D01*
X200651904Y-91451904D01*
X200699523Y-91261428D01*
X200699523Y-91023333D01*
X200651904Y-90832857D01*
X200604285Y-90737619D01*
X200556666Y-90690000D01*
X200461428Y-90642380D01*
X183552380Y-100779904D02*
X182552380Y-100779904D01*
X182552380Y-101018000D01*
X182600000Y-101160857D01*
X182695238Y-101256095D01*
X182790476Y-101303714D01*
X182980952Y-101351333D01*
X183123809Y-101351333D01*
X183314285Y-101303714D01*
X183409523Y-101256095D01*
X183504761Y-101160857D01*
X183552380Y-101018000D01*
X183552380Y-100779904D01*
X183552380Y-101827523D02*
X183552380Y-102018000D01*
X183504761Y-102113238D01*
X183457142Y-102160857D01*
X183314285Y-102256095D01*
X183123809Y-102303714D01*
X182742857Y-102303714D01*
X182647619Y-102256095D01*
X182600000Y-102208476D01*
X182552380Y-102113238D01*
X182552380Y-101922761D01*
X182600000Y-101827523D01*
X182647619Y-101779904D01*
X182742857Y-101732285D01*
X182980952Y-101732285D01*
X183076190Y-101779904D01*
X183123809Y-101827523D01*
X183171428Y-101922761D01*
X183171428Y-102113238D01*
X183123809Y-102208476D01*
X183076190Y-102256095D01*
X182980952Y-102303714D01*
X174662380Y-100949904D02*
X173662380Y-100949904D01*
X173662380Y-101188000D01*
X173710000Y-101330857D01*
X173805238Y-101426095D01*
X173900476Y-101473714D01*
X174090952Y-101521333D01*
X174233809Y-101521333D01*
X174424285Y-101473714D01*
X174519523Y-101426095D01*
X174614761Y-101330857D01*
X174662380Y-101188000D01*
X174662380Y-100949904D01*
X174090952Y-102092761D02*
X174043333Y-101997523D01*
X173995714Y-101949904D01*
X173900476Y-101902285D01*
X173852857Y-101902285D01*
X173757619Y-101949904D01*
X173710000Y-101997523D01*
X173662380Y-102092761D01*
X173662380Y-102283238D01*
X173710000Y-102378476D01*
X173757619Y-102426095D01*
X173852857Y-102473714D01*
X173900476Y-102473714D01*
X173995714Y-102426095D01*
X174043333Y-102378476D01*
X174090952Y-102283238D01*
X174090952Y-102092761D01*
X174138571Y-101997523D01*
X174186190Y-101949904D01*
X174281428Y-101902285D01*
X174471904Y-101902285D01*
X174567142Y-101949904D01*
X174614761Y-101997523D01*
X174662380Y-102092761D01*
X174662380Y-102283238D01*
X174614761Y-102378476D01*
X174567142Y-102426095D01*
X174471904Y-102473714D01*
X174281428Y-102473714D01*
X174186190Y-102426095D01*
X174138571Y-102378476D01*
X174090952Y-102283238D01*
X165772380Y-100779904D02*
X164772380Y-100779904D01*
X164772380Y-101018000D01*
X164820000Y-101160857D01*
X164915238Y-101256095D01*
X165010476Y-101303714D01*
X165200952Y-101351333D01*
X165343809Y-101351333D01*
X165534285Y-101303714D01*
X165629523Y-101256095D01*
X165724761Y-101160857D01*
X165772380Y-101018000D01*
X165772380Y-100779904D01*
X164772380Y-101684666D02*
X164772380Y-102351333D01*
X165772380Y-101922761D01*
X156882380Y-101181904D02*
X155882380Y-101181904D01*
X155882380Y-101420000D01*
X155930000Y-101562857D01*
X156025238Y-101658095D01*
X156120476Y-101705714D01*
X156310952Y-101753333D01*
X156453809Y-101753333D01*
X156644285Y-101705714D01*
X156739523Y-101658095D01*
X156834761Y-101562857D01*
X156882380Y-101420000D01*
X156882380Y-101181904D01*
X155882380Y-102610476D02*
X155882380Y-102420000D01*
X155930000Y-102324761D01*
X155977619Y-102277142D01*
X156120476Y-102181904D01*
X156310952Y-102134285D01*
X156691904Y-102134285D01*
X156787142Y-102181904D01*
X156834761Y-102229523D01*
X156882380Y-102324761D01*
X156882380Y-102515238D01*
X156834761Y-102610476D01*
X156787142Y-102658095D01*
X156691904Y-102705714D01*
X156453809Y-102705714D01*
X156358571Y-102658095D01*
X156310952Y-102610476D01*
X156263333Y-102515238D01*
X156263333Y-102324761D01*
X156310952Y-102229523D01*
X156358571Y-102181904D01*
X156453809Y-102134285D01*
X179512380Y-113479904D02*
X178512380Y-113479904D01*
X178512380Y-113718000D01*
X178560000Y-113860857D01*
X178655238Y-113956095D01*
X178750476Y-114003714D01*
X178940952Y-114051333D01*
X179083809Y-114051333D01*
X179274285Y-114003714D01*
X179369523Y-113956095D01*
X179464761Y-113860857D01*
X179512380Y-113718000D01*
X179512380Y-113479904D01*
X178845714Y-114908476D02*
X179512380Y-114908476D01*
X178464761Y-114670380D02*
X179179047Y-114432285D01*
X179179047Y-115051333D01*
X170622380Y-113479904D02*
X169622380Y-113479904D01*
X169622380Y-113718000D01*
X169670000Y-113860857D01*
X169765238Y-113956095D01*
X169860476Y-114003714D01*
X170050952Y-114051333D01*
X170193809Y-114051333D01*
X170384285Y-114003714D01*
X170479523Y-113956095D01*
X170574761Y-113860857D01*
X170622380Y-113718000D01*
X170622380Y-113479904D01*
X169622380Y-114384666D02*
X169622380Y-115003714D01*
X170003333Y-114670380D01*
X170003333Y-114813238D01*
X170050952Y-114908476D01*
X170098571Y-114956095D01*
X170193809Y-115003714D01*
X170431904Y-115003714D01*
X170527142Y-114956095D01*
X170574761Y-114908476D01*
X170622380Y-114813238D01*
X170622380Y-114527523D01*
X170574761Y-114432285D01*
X170527142Y-114384666D01*
X189902380Y-113479904D02*
X188902380Y-113479904D01*
X188902380Y-113718000D01*
X188950000Y-113860857D01*
X189045238Y-113956095D01*
X189140476Y-114003714D01*
X189330952Y-114051333D01*
X189473809Y-114051333D01*
X189664285Y-114003714D01*
X189759523Y-113956095D01*
X189854761Y-113860857D01*
X189902380Y-113718000D01*
X189902380Y-113479904D01*
X188997619Y-114432285D02*
X188950000Y-114479904D01*
X188902380Y-114575142D01*
X188902380Y-114813238D01*
X188950000Y-114908476D01*
X188997619Y-114956095D01*
X189092857Y-115003714D01*
X189188095Y-115003714D01*
X189330952Y-114956095D01*
X189902380Y-114384666D01*
X189902380Y-115003714D01*
X156052380Y-111513095D02*
X156861904Y-111513095D01*
X156957142Y-111560714D01*
X157004761Y-111608333D01*
X157052380Y-111703571D01*
X157052380Y-111894047D01*
X157004761Y-111989285D01*
X156957142Y-112036904D01*
X156861904Y-112084523D01*
X156052380Y-112084523D01*
X156385714Y-112989285D02*
X157052380Y-112989285D01*
X156004761Y-112751190D02*
X156719047Y-112513095D01*
X156719047Y-113132142D01*
X137307142Y-108057142D02*
X137354761Y-108009523D01*
X137402380Y-107866666D01*
X137402380Y-107771428D01*
X137354761Y-107628571D01*
X137259523Y-107533333D01*
X137164285Y-107485714D01*
X136973809Y-107438095D01*
X136830952Y-107438095D01*
X136640476Y-107485714D01*
X136545238Y-107533333D01*
X136450000Y-107628571D01*
X136402380Y-107771428D01*
X136402380Y-107866666D01*
X136450000Y-108009523D01*
X136497619Y-108057142D01*
X137402380Y-109009523D02*
X137402380Y-108438095D01*
X137402380Y-108723809D02*
X136402380Y-108723809D01*
X136545238Y-108628571D01*
X136640476Y-108533333D01*
X136688095Y-108438095D01*
X136402380Y-109628571D02*
X136402380Y-109723809D01*
X136450000Y-109819047D01*
X136497619Y-109866666D01*
X136592857Y-109914285D01*
X136783333Y-109961904D01*
X137021428Y-109961904D01*
X137211904Y-109914285D01*
X137307142Y-109866666D01*
X137354761Y-109819047D01*
X137402380Y-109723809D01*
X137402380Y-109628571D01*
X137354761Y-109533333D01*
X137307142Y-109485714D01*
X137211904Y-109438095D01*
X137021428Y-109390476D01*
X136783333Y-109390476D01*
X136592857Y-109438095D01*
X136497619Y-109485714D01*
X136450000Y-109533333D01*
X136402380Y-109628571D01*
X148207142Y-111271333D02*
X148254761Y-111223714D01*
X148302380Y-111080857D01*
X148302380Y-110985619D01*
X148254761Y-110842761D01*
X148159523Y-110747523D01*
X148064285Y-110699904D01*
X147873809Y-110652285D01*
X147730952Y-110652285D01*
X147540476Y-110699904D01*
X147445238Y-110747523D01*
X147350000Y-110842761D01*
X147302380Y-110985619D01*
X147302380Y-111080857D01*
X147350000Y-111223714D01*
X147397619Y-111271333D01*
X148302380Y-111747523D02*
X148302380Y-111938000D01*
X148254761Y-112033238D01*
X148207142Y-112080857D01*
X148064285Y-112176095D01*
X147873809Y-112223714D01*
X147492857Y-112223714D01*
X147397619Y-112176095D01*
X147350000Y-112128476D01*
X147302380Y-112033238D01*
X147302380Y-111842761D01*
X147350000Y-111747523D01*
X147397619Y-111699904D01*
X147492857Y-111652285D01*
X147730952Y-111652285D01*
X147826190Y-111699904D01*
X147873809Y-111747523D01*
X147921428Y-111842761D01*
X147921428Y-112033238D01*
X147873809Y-112128476D01*
X147826190Y-112176095D01*
X147730952Y-112223714D01*
X145007142Y-116033333D02*
X145054761Y-115985714D01*
X145102380Y-115842857D01*
X145102380Y-115747619D01*
X145054761Y-115604761D01*
X144959523Y-115509523D01*
X144864285Y-115461904D01*
X144673809Y-115414285D01*
X144530952Y-115414285D01*
X144340476Y-115461904D01*
X144245238Y-115509523D01*
X144150000Y-115604761D01*
X144102380Y-115747619D01*
X144102380Y-115842857D01*
X144150000Y-115985714D01*
X144197619Y-116033333D01*
X144530952Y-116604761D02*
X144483333Y-116509523D01*
X144435714Y-116461904D01*
X144340476Y-116414285D01*
X144292857Y-116414285D01*
X144197619Y-116461904D01*
X144150000Y-116509523D01*
X144102380Y-116604761D01*
X144102380Y-116795238D01*
X144150000Y-116890476D01*
X144197619Y-116938095D01*
X144292857Y-116985714D01*
X144340476Y-116985714D01*
X144435714Y-116938095D01*
X144483333Y-116890476D01*
X144530952Y-116795238D01*
X144530952Y-116604761D01*
X144578571Y-116509523D01*
X144626190Y-116461904D01*
X144721428Y-116414285D01*
X144911904Y-116414285D01*
X145007142Y-116461904D01*
X145054761Y-116509523D01*
X145102380Y-116604761D01*
X145102380Y-116795238D01*
X145054761Y-116890476D01*
X145007142Y-116938095D01*
X144911904Y-116985714D01*
X144721428Y-116985714D01*
X144626190Y-116938095D01*
X144578571Y-116890476D01*
X144530952Y-116795238D01*
X160207142Y-115833333D02*
X160254761Y-115785714D01*
X160302380Y-115642857D01*
X160302380Y-115547619D01*
X160254761Y-115404761D01*
X160159523Y-115309523D01*
X160064285Y-115261904D01*
X159873809Y-115214285D01*
X159730952Y-115214285D01*
X159540476Y-115261904D01*
X159445238Y-115309523D01*
X159350000Y-115404761D01*
X159302380Y-115547619D01*
X159302380Y-115642857D01*
X159350000Y-115785714D01*
X159397619Y-115833333D01*
X159302380Y-116166666D02*
X159302380Y-116833333D01*
X160302380Y-116404761D01*
X135652380Y-114188095D02*
X136461904Y-114188095D01*
X136557142Y-114235714D01*
X136604761Y-114283333D01*
X136652380Y-114378571D01*
X136652380Y-114569047D01*
X136604761Y-114664285D01*
X136557142Y-114711904D01*
X136461904Y-114759523D01*
X135652380Y-114759523D01*
X135652380Y-115711904D02*
X135652380Y-115235714D01*
X136128571Y-115188095D01*
X136080952Y-115235714D01*
X136033333Y-115330952D01*
X136033333Y-115569047D01*
X136080952Y-115664285D01*
X136128571Y-115711904D01*
X136223809Y-115759523D01*
X136461904Y-115759523D01*
X136557142Y-115711904D01*
X136604761Y-115664285D01*
X136652380Y-115569047D01*
X136652380Y-115330952D01*
X136604761Y-115235714D01*
X136557142Y-115188095D01*
X130836904Y-110387380D02*
X130836904Y-111196904D01*
X130789285Y-111292142D01*
X130741666Y-111339761D01*
X130646428Y-111387380D01*
X130455952Y-111387380D01*
X130360714Y-111339761D01*
X130313095Y-111292142D01*
X130265476Y-111196904D01*
X130265476Y-110387380D01*
X129884523Y-110387380D02*
X129265476Y-110387380D01*
X129598809Y-110768333D01*
X129455952Y-110768333D01*
X129360714Y-110815952D01*
X129313095Y-110863571D01*
X129265476Y-110958809D01*
X129265476Y-111196904D01*
X129313095Y-111292142D01*
X129360714Y-111339761D01*
X129455952Y-111387380D01*
X129741666Y-111387380D01*
X129836904Y-111339761D01*
X129884523Y-111292142D01*
X123931734Y-89582238D02*
X124504154Y-90154658D01*
X124537826Y-90255673D01*
X124537826Y-90323017D01*
X124504154Y-90424032D01*
X124369467Y-90558719D01*
X124268452Y-90592391D01*
X124201108Y-90592391D01*
X124100093Y-90558719D01*
X123527673Y-89986299D01*
X123291971Y-90356689D02*
X123224628Y-90356689D01*
X123123612Y-90390360D01*
X122955254Y-90558719D01*
X122921582Y-90659734D01*
X122921582Y-90727078D01*
X122955254Y-90828093D01*
X123022597Y-90895437D01*
X123157284Y-90962780D01*
X123965406Y-90962780D01*
X123527673Y-91400513D01*
X120022380Y-90045333D02*
X119546190Y-89712000D01*
X120022380Y-89473904D02*
X119022380Y-89473904D01*
X119022380Y-89854857D01*
X119070000Y-89950095D01*
X119117619Y-89997714D01*
X119212857Y-90045333D01*
X119355714Y-90045333D01*
X119450952Y-89997714D01*
X119498571Y-89950095D01*
X119546190Y-89854857D01*
X119546190Y-89473904D01*
X119117619Y-90426285D02*
X119070000Y-90473904D01*
X119022380Y-90569142D01*
X119022380Y-90807238D01*
X119070000Y-90902476D01*
X119117619Y-90950095D01*
X119212857Y-90997714D01*
X119308095Y-90997714D01*
X119450952Y-90950095D01*
X120022380Y-90378666D01*
X120022380Y-90997714D01*
X146387619Y-91804761D02*
X146340000Y-91709523D01*
X146244761Y-91614285D01*
X146101904Y-91471428D01*
X146054285Y-91376190D01*
X146054285Y-91280952D01*
X146292380Y-91328571D02*
X146244761Y-91233333D01*
X146149523Y-91138095D01*
X145959047Y-91090476D01*
X145625714Y-91090476D01*
X145435238Y-91138095D01*
X145340000Y-91233333D01*
X145292380Y-91328571D01*
X145292380Y-91519047D01*
X145340000Y-91614285D01*
X145435238Y-91709523D01*
X145625714Y-91757142D01*
X145959047Y-91757142D01*
X146149523Y-91709523D01*
X146244761Y-91614285D01*
X146292380Y-91519047D01*
X146292380Y-91328571D01*
X145387619Y-92138095D02*
X145340000Y-92185714D01*
X145292380Y-92280952D01*
X145292380Y-92519047D01*
X145340000Y-92614285D01*
X145387619Y-92661904D01*
X145482857Y-92709523D01*
X145578095Y-92709523D01*
X145720952Y-92661904D01*
X146292380Y-92090476D01*
X146292380Y-92709523D01*
X146447619Y-103099761D02*
X146400000Y-103004523D01*
X146304761Y-102909285D01*
X146161904Y-102766428D01*
X146114285Y-102671190D01*
X146114285Y-102575952D01*
X146352380Y-102623571D02*
X146304761Y-102528333D01*
X146209523Y-102433095D01*
X146019047Y-102385476D01*
X145685714Y-102385476D01*
X145495238Y-102433095D01*
X145400000Y-102528333D01*
X145352380Y-102623571D01*
X145352380Y-102814047D01*
X145400000Y-102909285D01*
X145495238Y-103004523D01*
X145685714Y-103052142D01*
X146019047Y-103052142D01*
X146209523Y-103004523D01*
X146304761Y-102909285D01*
X146352380Y-102814047D01*
X146352380Y-102623571D01*
X146352380Y-104004523D02*
X146352380Y-103433095D01*
X146352380Y-103718809D02*
X145352380Y-103718809D01*
X145495238Y-103623571D01*
X145590476Y-103528333D01*
X145638095Y-103433095D01*
X128368333Y-87002380D02*
X128368333Y-87716666D01*
X128415952Y-87859523D01*
X128511190Y-87954761D01*
X128654047Y-88002380D01*
X128749285Y-88002380D01*
X127939761Y-87097619D02*
X127892142Y-87050000D01*
X127796904Y-87002380D01*
X127558809Y-87002380D01*
X127463571Y-87050000D01*
X127415952Y-87097619D01*
X127368333Y-87192857D01*
X127368333Y-87288095D01*
X127415952Y-87430952D01*
X127987380Y-88002380D01*
X127368333Y-88002380D01*
D16*
X129539761Y-107874523D02*
X129539761Y-106604523D01*
X128209285Y-107753571D02*
X128269761Y-107814047D01*
X128451190Y-107874523D01*
X128572142Y-107874523D01*
X128753571Y-107814047D01*
X128874523Y-107693095D01*
X128935000Y-107572142D01*
X128995476Y-107330238D01*
X128995476Y-107148809D01*
X128935000Y-106906904D01*
X128874523Y-106785952D01*
X128753571Y-106665000D01*
X128572142Y-106604523D01*
X128451190Y-106604523D01*
X128269761Y-106665000D01*
X128209285Y-106725476D01*
X126999761Y-107874523D02*
X127725476Y-107874523D01*
X127362619Y-107874523D02*
X127362619Y-106604523D01*
X127483571Y-106785952D01*
X127604523Y-106906904D01*
X127725476Y-106967380D01*
D15*
X134107142Y-113895333D02*
X134154761Y-113847714D01*
X134202380Y-113704857D01*
X134202380Y-113609619D01*
X134154761Y-113466761D01*
X134059523Y-113371523D01*
X133964285Y-113323904D01*
X133773809Y-113276285D01*
X133630952Y-113276285D01*
X133440476Y-113323904D01*
X133345238Y-113371523D01*
X133250000Y-113466761D01*
X133202380Y-113609619D01*
X133202380Y-113704857D01*
X133250000Y-113847714D01*
X133297619Y-113895333D01*
X133202380Y-114752476D02*
X133202380Y-114562000D01*
X133250000Y-114466761D01*
X133297619Y-114419142D01*
X133440476Y-114323904D01*
X133630952Y-114276285D01*
X134011904Y-114276285D01*
X134107142Y-114323904D01*
X134154761Y-114371523D01*
X134202380Y-114466761D01*
X134202380Y-114657238D01*
X134154761Y-114752476D01*
X134107142Y-114800095D01*
X134011904Y-114847714D01*
X133773809Y-114847714D01*
X133678571Y-114800095D01*
X133630952Y-114752476D01*
X133583333Y-114657238D01*
X133583333Y-114466761D01*
X133630952Y-114371523D01*
X133678571Y-114323904D01*
X133773809Y-114276285D01*
X126866666Y-120507142D02*
X126914285Y-120554761D01*
X127057142Y-120602380D01*
X127152380Y-120602380D01*
X127295238Y-120554761D01*
X127390476Y-120459523D01*
X127438095Y-120364285D01*
X127485714Y-120173809D01*
X127485714Y-120030952D01*
X127438095Y-119840476D01*
X127390476Y-119745238D01*
X127295238Y-119650000D01*
X127152380Y-119602380D01*
X127057142Y-119602380D01*
X126914285Y-119650000D01*
X126866666Y-119697619D01*
X125961904Y-119602380D02*
X126438095Y-119602380D01*
X126485714Y-120078571D01*
X126438095Y-120030952D01*
X126342857Y-119983333D01*
X126104761Y-119983333D01*
X126009523Y-120030952D01*
X125961904Y-120078571D01*
X125914285Y-120173809D01*
X125914285Y-120411904D01*
X125961904Y-120507142D01*
X126009523Y-120554761D01*
X126104761Y-120602380D01*
X126342857Y-120602380D01*
X126438095Y-120554761D01*
X126485714Y-120507142D01*
X127404666Y-101307142D02*
X127452285Y-101354761D01*
X127595142Y-101402380D01*
X127690380Y-101402380D01*
X127833238Y-101354761D01*
X127928476Y-101259523D01*
X127976095Y-101164285D01*
X128023714Y-100973809D01*
X128023714Y-100830952D01*
X127976095Y-100640476D01*
X127928476Y-100545238D01*
X127833238Y-100450000D01*
X127690380Y-100402380D01*
X127595142Y-100402380D01*
X127452285Y-100450000D01*
X127404666Y-100497619D01*
X126547523Y-100735714D02*
X126547523Y-101402380D01*
X126785619Y-100354761D02*
X127023714Y-101069047D01*
X126404666Y-101069047D01*
M02*
