G04 #@! TF.GenerationSoftware,KiCad,Pcbnew,(5.1.5)-3*
G04 #@! TF.CreationDate,2019-12-27T07:21:44+09:00*
G04 #@! TF.ProjectId,Solenoid_Valve-fin,536f6c65-6e6f-4696-945f-56616c76652d,rev?*
G04 #@! TF.SameCoordinates,Original*
G04 #@! TF.FileFunction,Profile,NP*
%FSLAX46Y46*%
G04 Gerber Fmt 4.6, Leading zero omitted, Abs format (unit mm)*
G04 Created by KiCad (PCBNEW (5.1.5)-3) date 2019-12-27 07:21:44*
%MOMM*%
%LPD*%
G04 APERTURE LIST*
%ADD10C,0.050000*%
G04 APERTURE END LIST*
D10*
X202450000Y-80000000D02*
X204950000Y-80000000D01*
X120000000Y-80000000D02*
X123500000Y-80000000D01*
X133400000Y-80000000D02*
X131600000Y-80000000D01*
X202450000Y-30000000D02*
G75*
G02X205950000Y-33500000I0J-3500000D01*
G01*
X131600000Y-80000000D02*
X131600000Y-70800000D01*
X204950000Y-80000000D02*
X204950000Y-70550000D01*
X120000000Y-80000000D02*
X120000000Y-33500000D01*
X123500000Y-30000000D02*
X202450000Y-30000000D01*
X131600000Y-70800000D02*
X133400000Y-70800000D01*
X133400000Y-70800000D02*
X133400000Y-80000000D01*
X205950000Y-33500000D02*
X205950000Y-70500000D01*
X120000000Y-33500000D02*
G75*
G02X123500000Y-30000000I3500000J0D01*
G01*
X204950000Y-70550000D02*
X204950000Y-70500000D01*
X204950000Y-70500000D02*
X205950000Y-70500000D01*
X204950000Y-120500000D02*
X205950000Y-120500000D01*
X204950000Y-120550000D02*
X204950000Y-120500000D01*
X204950000Y-130000000D02*
X204950000Y-120550000D01*
X120000000Y-83500000D02*
G75*
G02X123500000Y-80000000I3500000J0D01*
G01*
X202450000Y-80000000D02*
G75*
G02X205950000Y-83500000I0J-3500000D01*
G01*
X131600000Y-120800000D02*
X133400000Y-120800000D01*
X205950000Y-83500000D02*
X205950000Y-120500000D01*
X133400000Y-130000000D02*
X141000000Y-130000000D01*
X120000000Y-130000000D02*
X120000000Y-83500000D01*
X204950000Y-130000000D02*
X141000000Y-130000000D01*
X133400000Y-120800000D02*
X133400000Y-130000000D01*
X131600000Y-130000000D02*
X131600000Y-120800000D01*
X120000000Y-130000000D02*
X131600000Y-130000000D01*
M02*
