M48
; DRILL file {KiCad (5.1.5)-3} date 2019/12/27 7:21:54
; FORMAT={-:-/ absolute / metric / decimal}
; #@! TF.CreationDate,2019-12-27T07:21:54+09:00
; #@! TF.GenerationSoftware,Kicad,Pcbnew,(5.1.5)-3
FMAT,2
METRIC
T1C0.300
T2C0.400
T3C0.950
T4C1.000
%
G90
G05
T1
X121.0Y-62.0
X121.0Y-63.0
X121.0Y-64.0
X121.0Y-65.0
X121.0Y-112.0
X121.0Y-113.0
X121.0Y-114.0
X121.0Y-115.0
X121.408Y-73.591
X121.408Y-123.591
X121.8Y-51.4
X121.8Y-101.4
X122.8Y-68.4
X122.8Y-118.4
X123.5Y-37.0
X123.5Y-87.0
X123.8Y-73.4
X123.8Y-123.4
X125.7Y-70.2
X125.7Y-120.2
X125.9Y-67.0
X125.9Y-117.0
X126.4Y-38.2
X126.4Y-88.2
X128.675Y-37.275
X128.675Y-87.275
X129.0Y-61.4
X129.0Y-111.4
X129.2Y-62.9
X129.2Y-112.9
X130.655Y-67.16
X130.655Y-117.16
X131.0Y-37.4
X131.0Y-61.2
X131.0Y-87.4
X131.0Y-111.2
X131.2Y-52.0
X131.2Y-102.0
X134.0Y-37.4
X134.0Y-87.4
X134.5Y-43.4
X134.5Y-93.4
X134.9Y-34.7
X134.9Y-84.7
X135.1Y-67.16
X135.1Y-68.43
X135.1Y-117.16
X135.1Y-118.43
X135.3Y-56.741
X135.3Y-106.741
X136.6Y-58.2
X136.6Y-108.2
X137.5Y-70.8
X137.5Y-120.8
X138.0Y-66.0
X138.0Y-116.0
X138.275Y-36.2
X138.275Y-86.2
X139.2Y-63.8
X139.2Y-113.8
X141.0Y-56.0
X141.0Y-106.0
X141.9Y-45.6
X141.9Y-95.6
X142.5Y-70.8
X142.5Y-120.8
X147.0Y-38.4
X147.0Y-88.4
X147.5Y-32.5
X147.5Y-70.8
X147.5Y-82.5
X147.5Y-120.8
X148.3Y-35.7
X148.3Y-85.7
X152.5Y-70.8
X152.5Y-120.8
X156.5Y-49.5
X156.5Y-99.5
X157.2Y-53.15
X157.2Y-103.15
X157.5Y-32.5
X157.5Y-60.0
X157.5Y-70.8
X157.5Y-82.5
X157.5Y-110.0
X157.5Y-120.8
X159.0Y-39.0
X159.0Y-89.0
X165.58Y-50.65
X165.58Y-100.65
X166.0Y-53.0
X166.0Y-60.0
X166.0Y-69.0
X166.0Y-103.0
X166.0Y-110.0
X166.0Y-119.0
X167.5Y-42.5
X167.5Y-92.5
X168.0Y-39.0
X168.0Y-89.0
X172.5Y-32.5
X172.5Y-82.5
X173.0Y-69.0
X173.0Y-119.0
X174.47Y-50.65
X174.47Y-100.65
X176.0Y-60.0
X176.0Y-110.0
X177.5Y-42.5
X177.5Y-92.5
X178.0Y-54.0
X178.0Y-104.0
X178.6Y-48.15
X178.6Y-98.15
X178.75Y-35.2
X178.75Y-85.2
X180.0Y-69.0
X180.0Y-119.0
X183.0Y-54.0
X183.0Y-104.0
X183.36Y-50.65
X183.36Y-100.65
X184.0Y-48.0
X184.0Y-98.0
X187.0Y-69.0
X187.0Y-119.0
X187.5Y-42.5
X187.5Y-60.0
X187.5Y-92.5
X187.5Y-110.0
X187.8Y-35.2
X187.8Y-85.2
X190.0Y-32.5
X190.0Y-82.5
X194.0Y-54.0
X194.0Y-104.0
X197.5Y-42.5
X197.5Y-60.0
X197.5Y-67.5
X197.5Y-92.5
X197.5Y-110.0
X197.5Y-117.5
X201.9Y-35.7
X201.9Y-85.7
T2
X120.801Y-38.591
X120.801Y-88.591
X122.021Y-43.945
X122.021Y-93.945
X122.101Y-39.432
X122.101Y-89.432
X124.225Y-38.657
X124.225Y-88.657
X124.853Y-44.47
X124.853Y-94.47
X126.152Y-51.014
X126.152Y-101.014
X126.296Y-46.873
X126.296Y-96.873
X126.9Y-70.3
X126.9Y-120.3
X127.023Y-47.599
X127.023Y-97.599
X127.34Y-45.275
X127.34Y-95.275
X128.538Y-71.64
X128.538Y-121.64
X128.75Y-43.03
X128.75Y-93.03
X129.3Y-55.3
X129.3Y-105.3
X129.67Y-46.137
X129.67Y-96.137
X133.509Y-44.922
X133.509Y-94.922
X143.99Y-64.62
X143.99Y-114.62
X145.188Y-42.628
X145.188Y-92.628
X145.823Y-52.519
X145.823Y-102.519
X145.895Y-51.285
X145.895Y-101.285
X146.297Y-42.628
X146.297Y-92.628
X146.723Y-52.957
X146.723Y-102.957
X146.864Y-51.586
X146.864Y-101.586
X147.567Y-42.628
X147.567Y-92.628
X147.59Y-53.587
X147.59Y-103.587
X148.009Y-52.413
X148.009Y-102.413
X190.4Y-46.4
X190.4Y-96.4
X191.6Y-46.4
X191.6Y-96.4
X193.0Y-46.4
X193.0Y-96.4
X204.0Y-47.0
X204.0Y-97.0
T3
X123.035Y-34.0
X125.535Y-34.0
X128.035Y-34.0
X130.535Y-34.0
X133.035Y-34.0
X137.68Y-34.14
X140.18Y-34.14
X142.68Y-34.14
X123.035Y-84.0
X125.535Y-84.0
X128.035Y-84.0
X130.535Y-84.0
X133.035Y-84.0
X137.68Y-84.14
X140.18Y-84.14
X142.68Y-84.14
T4
X150.34Y-84.18
X150.34Y-86.68
X150.34Y-49.42
X150.34Y-51.92
X150.34Y-99.42
X150.34Y-101.92
X159.23Y-34.18
X159.23Y-36.68
X185.9Y-99.42
X185.9Y-101.92
X150.34Y-34.18
X150.34Y-36.68
X194.79Y-49.42
X194.79Y-51.92
X181.86Y-62.12
X181.86Y-64.62
X168.12Y-49.42
X168.12Y-51.92
X185.9Y-84.18
X185.9Y-86.68
X159.23Y-49.42
X159.23Y-51.92
X177.01Y-34.18
X177.01Y-36.68
X164.08Y-62.12
X164.08Y-64.62
X172.97Y-62.12
X172.97Y-64.62
X164.08Y-112.12
X164.08Y-114.62
X168.12Y-84.18
X168.12Y-86.68
X203.68Y-49.42
X203.68Y-51.92
X177.01Y-49.42
X177.01Y-51.92
X159.23Y-99.42
X159.23Y-101.92
X168.12Y-99.42
X168.12Y-101.92
X185.9Y-34.18
X185.9Y-36.68
X159.23Y-84.18
X159.23Y-86.68
X203.68Y-34.18
X203.68Y-36.68
X194.79Y-84.18
X194.79Y-86.68
X181.86Y-112.12
X181.86Y-114.62
X194.79Y-99.42
X194.79Y-101.92
X177.01Y-84.18
X177.01Y-86.68
X172.97Y-112.12
X172.97Y-114.62
X185.9Y-49.42
X185.9Y-51.92
X177.01Y-99.42
X177.01Y-101.92
X194.79Y-34.18
X194.79Y-36.68
X168.12Y-34.18
X168.12Y-36.68
X203.68Y-84.18
X203.68Y-86.68
X203.68Y-99.42
X203.68Y-101.92
T0
M30
