M48
; DRILL file {KiCad (5.1.4)-1} date 2019/11/07 17:31:23
; FORMAT={3:3/ absolute / metric / suppress leading zeros}
; #@! TF.CreationDate,2019-11-07T17:31:23+09:00
; #@! TF.GenerationSoftware,Kicad,Pcbnew,(5.1.4)-1
; #@! TF.FileFunction,Plated,1,2,PTH
FMAT,2
METRIC,TZ
T1C0.300
T2C0.400
T3C0.950
T4C1.000
%
G90
G05
T1
X121000Y-58000
X121000Y-113500
X121400Y-80800
X121408Y-123592
X121800Y-101400
X122500Y-42500
X122500Y-50000
X122500Y-67500
X122500Y-77500
X122800Y-118400
X123500Y-87000
X123800Y-123400
X126000Y-118200
X126400Y-88200
X128500Y-111000
X130000Y-123000
X130008Y-121508
X130200Y-86800
X130655Y-117160
X131200Y-102000
X131341Y-120175
X132500Y-42500
X132500Y-50000
X132500Y-67500
X133659Y-120175
X134000Y-87400
X135000Y-123000
X135075Y-121591
X135100Y-117160
X135100Y-118430
X135200Y-85400
X135300Y-106741
X136000Y-56000
X136600Y-108200
X137000Y-122000
X138000Y-116000
X139000Y-86200
X139200Y-113800
X140000Y-77500
X140000Y-122000
X141000Y-106000
X142500Y-50000
X142500Y-67500
X143000Y-41000
X145000Y-119000
X146000Y-62000
X146530Y-85410
X146640Y-59350
X147000Y-56000
X147000Y-89000
X147500Y-82500
X150000Y-41000
X152000Y-56000
X152500Y-50000
X152500Y-67500
X155530Y-59350
X156500Y-99500
X157000Y-41000
X157500Y-77500
X157500Y-82500
X157500Y-110000
X159000Y-89000
X159800Y-113300
X162000Y-71000
X162500Y-50000
X162500Y-67500
X164000Y-41000
X164000Y-57000
X164420Y-59350
X165580Y-100650
X166000Y-103000
X166000Y-119000
X167500Y-92500
X167500Y-110000
X168000Y-89000
X170200Y-46700
X171000Y-71000
X172500Y-50000
X172500Y-77500
X172500Y-82500
X173000Y-119000
X173500Y-60500
X174470Y-100650
X177500Y-92500
X177500Y-110000
X178000Y-104000
X180000Y-119000
X182500Y-77500
X183000Y-71000
X183000Y-104000
X183360Y-100650
X183470Y-74590
X184000Y-98000
X185000Y-41000
X187000Y-119000
X187500Y-92500
X187500Y-110000
X189000Y-54000
X190000Y-38000
X190000Y-82500
X190800Y-46200
X191000Y-73800
X192000Y-44000
X193000Y-38000
X193400Y-51800
X194000Y-104000
X194700Y-53259
X194800Y-74600
X194900Y-41570
X194900Y-42840
X194925Y-38409
X195000Y-37000
X196000Y-72600
X196341Y-39825
X197500Y-92500
X197500Y-110000
X197500Y-117500
X198659Y-39825
X198800Y-58000
X199345Y-42840
X199800Y-73200
X199992Y-38492
X200000Y-37000
X201500Y-49000
X203600Y-71800
X204000Y-41800
X206200Y-36600
X206500Y-73000
X207200Y-41600
X207500Y-82500
X207500Y-92500
X207500Y-110000
X207500Y-117500
X208200Y-58600
X208592Y-36409
X208600Y-79200
X209000Y-46500
X209000Y-102000
T2
X120914Y-88379
X122021Y-93945
X122101Y-89432
X124225Y-88657
X124675Y-89660
X124853Y-94470
X126152Y-101014
X126296Y-96873
X127023Y-97599
X127340Y-95275
X127500Y-120200
X128538Y-121640
X129300Y-105300
X129670Y-96137
X133509Y-94922
X137000Y-63600
X138400Y-63600
X139600Y-63600
X143990Y-114620
X145188Y-92628
X145823Y-102519
X145895Y-101285
X146297Y-92628
X146723Y-102957
X146864Y-101586
X147567Y-92628
X147590Y-103587
X148009Y-102413
X158000Y-116500
X159000Y-116500
X160100Y-116500
X169900Y-43500
X171000Y-43500
X172000Y-43500
X181991Y-57587
X182410Y-56413
X182433Y-67372
X183136Y-58414
X183277Y-57043
X183703Y-67372
X184105Y-58715
X184177Y-57481
X184812Y-67372
X186010Y-45380
X190400Y-96400
X191600Y-96400
X193000Y-96400
X196491Y-65078
X200330Y-63863
X200700Y-54700
X201462Y-38360
X202500Y-39800
X202660Y-64725
X202977Y-62401
X203704Y-63127
X203848Y-58986
X205147Y-65530
X205325Y-70340
X205775Y-71343
X207899Y-70568
X207979Y-66055
X209086Y-71621
T3
X196000Y-76000
X198500Y-76000
X201000Y-76000
X203500Y-76000
X206000Y-76000
X124000Y-84000
X126500Y-84000
X129000Y-84000
X131500Y-84000
X134000Y-84000
T4
X144100Y-58080
X144100Y-60580
X203680Y-84180
X203680Y-86680
X152990Y-73320
X152990Y-75820
X189000Y-76000
X191500Y-76000
X135210Y-73320
X135210Y-75820
X168120Y-99420
X168120Y-101920
X159230Y-84180
X159230Y-86680
X144100Y-73320
X144100Y-75820
X161880Y-73320
X161880Y-75820
X174470Y-112120
X174470Y-114620
X203680Y-99420
X203680Y-101920
X164420Y-45380
X164420Y-47880
X135210Y-58080
X135210Y-60580
X170770Y-73320
X170770Y-75820
X183360Y-112120
X183360Y-114620
X161880Y-58080
X161880Y-60580
X126320Y-73320
X126320Y-75820
X138500Y-84000
X141000Y-84000
X152990Y-58080
X152990Y-60580
X185900Y-84180
X185900Y-86680
X165580Y-112120
X165580Y-114620
X177010Y-84180
X177010Y-86680
X150340Y-84180
X150340Y-86680
X185900Y-99420
X185900Y-101920
X194790Y-84180
X194790Y-86680
X179660Y-58080
X179660Y-60580
X177010Y-99420
X177010Y-101920
X126320Y-58080
X126320Y-60580
X150340Y-99420
X150340Y-101920
X155530Y-45380
X155530Y-47880
X159230Y-99420
X159230Y-101920
X170770Y-58080
X170770Y-60580
X194790Y-99420
X194790Y-101920
X146640Y-45380
X146640Y-47880
X179660Y-73320
X179660Y-75820
X168120Y-84180
X168120Y-86680
T0
M30
