G04 #@! TF.GenerationSoftware,KiCad,Pcbnew,(5.1.4)-1*
G04 #@! TF.CreationDate,2019-11-07T17:31:05+09:00*
G04 #@! TF.ProjectId,Solenoid_Valve-fin,536f6c65-6e6f-4696-945f-56616c76652d,rev?*
G04 #@! TF.SameCoordinates,Original*
G04 #@! TF.FileFunction,Legend,Bot*
G04 #@! TF.FilePolarity,Positive*
%FSLAX46Y46*%
G04 Gerber Fmt 4.6, Leading zero omitted, Abs format (unit mm)*
G04 Created by KiCad (PCBNEW (5.1.4)-1) date 2019-11-07 17:31:05*
%MOMM*%
%LPD*%
G04 APERTURE LIST*
%ADD10C,0.300000*%
%ADD11C,0.120000*%
%ADD12C,0.100000*%
%ADD13C,0.200000*%
%ADD14C,0.150000*%
%ADD15C,0.254000*%
G04 APERTURE END LIST*
D10*
X229714285Y-78904761D02*
X229047619Y-80904761D01*
X228380952Y-78904761D01*
X227714285Y-80142857D02*
X226190476Y-80142857D01*
X224095238Y-80714285D02*
X224190476Y-80809523D01*
X224476190Y-80904761D01*
X224666666Y-80904761D01*
X224952380Y-80809523D01*
X225142857Y-80619047D01*
X225238095Y-80428571D01*
X225333333Y-80047619D01*
X225333333Y-79761904D01*
X225238095Y-79380952D01*
X225142857Y-79190476D01*
X224952380Y-79000000D01*
X224666666Y-78904761D01*
X224476190Y-78904761D01*
X224190476Y-79000000D01*
X224095238Y-79095238D01*
X223238095Y-78904761D02*
X223238095Y-80523809D01*
X223142857Y-80714285D01*
X223047619Y-80809523D01*
X222857142Y-80904761D01*
X222476190Y-80904761D01*
X222285714Y-80809523D01*
X222190476Y-80714285D01*
X222095238Y-80523809D01*
X222095238Y-78904761D01*
X221428571Y-78904761D02*
X220285714Y-78904761D01*
X220857142Y-80904761D02*
X220857142Y-78904761D01*
D11*
X220000000Y-80000000D02*
X110000000Y-80000000D01*
X209510000Y-69950779D02*
X209510000Y-69625221D01*
X208490000Y-69950779D02*
X208490000Y-69625221D01*
D12*
X186700000Y-62005000D02*
X187000000Y-62005000D01*
X186700000Y-62005000D02*
X186700000Y-61705000D01*
X186700000Y-51605000D02*
X187000000Y-51605000D01*
X191100000Y-61705000D02*
X191100000Y-62005000D01*
X191100000Y-62005000D02*
X190800000Y-62005000D01*
X190700000Y-51605000D02*
X191100000Y-51605000D01*
X191100000Y-51605000D02*
X191100000Y-51905000D01*
X191100000Y-51905000D02*
X191700000Y-51905000D01*
X186700000Y-51905000D02*
X186700000Y-51605000D01*
X186760000Y-73300000D02*
X187060000Y-73300000D01*
X186760000Y-73300000D02*
X186760000Y-73000000D01*
X186760000Y-62900000D02*
X187060000Y-62900000D01*
X191160000Y-73000000D02*
X191160000Y-73300000D01*
X191160000Y-73300000D02*
X190860000Y-73300000D01*
X190760000Y-62900000D02*
X191160000Y-62900000D01*
X191160000Y-62900000D02*
X191160000Y-63200000D01*
X191160000Y-63200000D02*
X191760000Y-63200000D01*
X186760000Y-63200000D02*
X186760000Y-62900000D01*
D11*
X201849868Y-60440821D02*
X202062000Y-60228689D01*
X202062000Y-60228689D02*
X202274132Y-60440821D01*
X197168821Y-65121868D02*
X196956689Y-65334000D01*
X196956689Y-65334000D02*
X197168821Y-65546132D01*
X206955179Y-65546132D02*
X207167311Y-65334000D01*
X207167311Y-65334000D02*
X206955179Y-65121868D01*
X202274132Y-70227179D02*
X202062000Y-70439311D01*
X202062000Y-70439311D02*
X201849868Y-70227179D01*
X201849868Y-70227179D02*
X200920023Y-71157024D01*
X165375000Y-60982000D02*
X165375000Y-55297000D01*
X165375000Y-55297000D02*
X168545000Y-55297000D01*
X168545000Y-55297000D02*
X168545000Y-60982000D01*
X138705000Y-76222000D02*
X138705000Y-70537000D01*
X138705000Y-70537000D02*
X141875000Y-70537000D01*
X141875000Y-70537000D02*
X141875000Y-76222000D01*
X199925000Y-43105000D02*
X201875000Y-43105000D01*
X199925000Y-43105000D02*
X197975000Y-43105000D01*
X199925000Y-48225000D02*
X201875000Y-48225000D01*
X199925000Y-48225000D02*
X196475000Y-48225000D01*
X183290000Y-48303422D02*
X183290000Y-48820578D01*
X184710000Y-48303422D02*
X184710000Y-48820578D01*
X172790000Y-44263748D02*
X172790000Y-44786252D01*
X174210000Y-44263748D02*
X174210000Y-44786252D01*
X156485000Y-76222000D02*
X156485000Y-70537000D01*
X156485000Y-70537000D02*
X159655000Y-70537000D01*
X159655000Y-70537000D02*
X159655000Y-76222000D01*
X174265000Y-60580000D02*
X174265000Y-54895000D01*
X174265000Y-54895000D02*
X177435000Y-54895000D01*
X177435000Y-54895000D02*
X177435000Y-60580000D01*
X156485000Y-60812000D02*
X156485000Y-55127000D01*
X156485000Y-55127000D02*
X159655000Y-55127000D01*
X159655000Y-55127000D02*
X159655000Y-60812000D01*
X147595000Y-60982000D02*
X147595000Y-55297000D01*
X147595000Y-55297000D02*
X150765000Y-55297000D01*
X150765000Y-55297000D02*
X150765000Y-60982000D01*
X129815000Y-76222000D02*
X129815000Y-70537000D01*
X129815000Y-70537000D02*
X132985000Y-70537000D01*
X132985000Y-70537000D02*
X132985000Y-76222000D01*
X185890000Y-43140000D02*
X187150000Y-43140000D01*
X192710000Y-43140000D02*
X191450000Y-43140000D01*
X185890000Y-46900000D02*
X185890000Y-43140000D01*
X192710000Y-49150000D02*
X192710000Y-43140000D01*
X184610000Y-44058578D02*
X184610000Y-43541422D01*
X183190000Y-44058578D02*
X183190000Y-43541422D01*
X175150000Y-46755000D02*
X175150000Y-45255000D01*
X175150000Y-45255000D02*
X175420000Y-45255000D01*
X175420000Y-45255000D02*
X175420000Y-42425000D01*
X182050000Y-46755000D02*
X182050000Y-45255000D01*
X182050000Y-45255000D02*
X181780000Y-45255000D01*
X181780000Y-45255000D02*
X181780000Y-44155000D01*
X159025000Y-48282000D02*
X159025000Y-42597000D01*
X159025000Y-42597000D02*
X162195000Y-42597000D01*
X162195000Y-42597000D02*
X162195000Y-48282000D01*
X193990000Y-51041422D02*
X193990000Y-51558578D01*
X195410000Y-51041422D02*
X195410000Y-51558578D01*
X150135000Y-48282000D02*
X150135000Y-42597000D01*
X150135000Y-42597000D02*
X153305000Y-42597000D01*
X153305000Y-42597000D02*
X153305000Y-48282000D01*
X141245000Y-48282000D02*
X141245000Y-42597000D01*
X141245000Y-42597000D02*
X144415000Y-42597000D01*
X144415000Y-42597000D02*
X144415000Y-48282000D01*
X120925000Y-76222000D02*
X120925000Y-70537000D01*
X120925000Y-70537000D02*
X124095000Y-70537000D01*
X124095000Y-70537000D02*
X124095000Y-76222000D01*
X202503422Y-58110000D02*
X203020578Y-58110000D01*
X202503422Y-56690000D02*
X203020578Y-56690000D01*
X203558578Y-40790000D02*
X203041422Y-40790000D01*
X203558578Y-42210000D02*
X203041422Y-42210000D01*
X208560000Y-73540000D02*
X208560000Y-79510000D01*
X208560000Y-79510000D02*
X193440000Y-79510000D01*
X193440000Y-79510000D02*
X193440000Y-73540000D01*
X193440000Y-73540000D02*
X208560000Y-73540000D01*
X205250000Y-73550000D02*
X205250000Y-74300000D01*
X205250000Y-74300000D02*
X196750000Y-74300000D01*
X196750000Y-74300000D02*
X196750000Y-73550000D01*
X196750000Y-73550000D02*
X205250000Y-73550000D01*
X208550000Y-73550000D02*
X208550000Y-74300000D01*
X208550000Y-74300000D02*
X206750000Y-74300000D01*
X206750000Y-74300000D02*
X206750000Y-73550000D01*
X206750000Y-73550000D02*
X208550000Y-73550000D01*
X195250000Y-73550000D02*
X195250000Y-74300000D01*
X195250000Y-74300000D02*
X193450000Y-74300000D01*
X193450000Y-74300000D02*
X193450000Y-73550000D01*
X193450000Y-73550000D02*
X195250000Y-73550000D01*
X208550000Y-75800000D02*
X207800000Y-75800000D01*
X207800000Y-75800000D02*
X207800000Y-78750000D01*
X207800000Y-78750000D02*
X201000000Y-78750000D01*
X193450000Y-75800000D02*
X194200000Y-75800000D01*
X194200000Y-75800000D02*
X194200000Y-78750000D01*
X194200000Y-78750000D02*
X201000000Y-78750000D01*
X207600000Y-73250000D02*
X208850000Y-73250000D01*
X208850000Y-73250000D02*
X208850000Y-74500000D01*
X195310000Y-46196578D02*
X195310000Y-45679422D01*
X193890000Y-46196578D02*
X193890000Y-45679422D01*
D13*
X200100000Y-55150000D02*
X203300000Y-55150000D01*
X203300000Y-55150000D02*
X203300000Y-50250000D01*
X203300000Y-50250000D02*
X200100000Y-50250000D01*
X200100000Y-50250000D02*
X200100000Y-55150000D01*
X198225000Y-55305000D02*
X199750000Y-55305000D01*
D11*
X165375000Y-76222000D02*
X165375000Y-70537000D01*
X165375000Y-70537000D02*
X168545000Y-70537000D01*
X168545000Y-70537000D02*
X168545000Y-76222000D01*
X174415000Y-76222000D02*
X174415000Y-70537000D01*
X174415000Y-70537000D02*
X177585000Y-70537000D01*
X177585000Y-70537000D02*
X177585000Y-76222000D01*
X138705000Y-60982000D02*
X138705000Y-55297000D01*
X138705000Y-55297000D02*
X141875000Y-55297000D01*
X141875000Y-55297000D02*
X141875000Y-60982000D01*
X129815000Y-60982000D02*
X129815000Y-55297000D01*
X129815000Y-55297000D02*
X132985000Y-55297000D01*
X132985000Y-55297000D02*
X132985000Y-60982000D01*
X147595000Y-76222000D02*
X147595000Y-70537000D01*
X147595000Y-70537000D02*
X150765000Y-70537000D01*
X150765000Y-70537000D02*
X150765000Y-76222000D01*
X120925000Y-60982000D02*
X120925000Y-55297000D01*
X120925000Y-55297000D02*
X124095000Y-55297000D01*
X124095000Y-55297000D02*
X124095000Y-60982000D01*
X152415000Y-89463000D02*
X152415000Y-83778000D01*
X155585000Y-89463000D02*
X152415000Y-89463000D01*
X155585000Y-83778000D02*
X155585000Y-89463000D01*
X161455000Y-89463000D02*
X161455000Y-83778000D01*
X164625000Y-89463000D02*
X161455000Y-89463000D01*
X164625000Y-83778000D02*
X164625000Y-89463000D01*
X179235000Y-89463000D02*
X179235000Y-83778000D01*
X182405000Y-89463000D02*
X179235000Y-89463000D01*
X182405000Y-83778000D02*
X182405000Y-89463000D01*
X205905000Y-104703000D02*
X205905000Y-99018000D01*
X209075000Y-104703000D02*
X205905000Y-104703000D01*
X209075000Y-99018000D02*
X209075000Y-104703000D01*
X197015000Y-104703000D02*
X197015000Y-99018000D01*
X200185000Y-104703000D02*
X197015000Y-104703000D01*
X200185000Y-99018000D02*
X200185000Y-104703000D01*
X188125000Y-104703000D02*
X188125000Y-99018000D01*
X191295000Y-104703000D02*
X188125000Y-104703000D01*
X191295000Y-99018000D02*
X191295000Y-104703000D01*
X170345000Y-89463000D02*
X170345000Y-83778000D01*
X173515000Y-89463000D02*
X170345000Y-89463000D01*
X173515000Y-83778000D02*
X173515000Y-89463000D01*
X188125000Y-89463000D02*
X188125000Y-83778000D01*
X191295000Y-89463000D02*
X188125000Y-89463000D01*
X191295000Y-83778000D02*
X191295000Y-89463000D01*
X197015000Y-89463000D02*
X197015000Y-83778000D01*
X200185000Y-89463000D02*
X197015000Y-89463000D01*
X200185000Y-83778000D02*
X200185000Y-89463000D01*
X205905000Y-89463000D02*
X205905000Y-83778000D01*
X209075000Y-89463000D02*
X205905000Y-89463000D01*
X209075000Y-83778000D02*
X209075000Y-89463000D01*
X179235000Y-104703000D02*
X179235000Y-99018000D01*
X182405000Y-104703000D02*
X179235000Y-104703000D01*
X182405000Y-99018000D02*
X182405000Y-104703000D01*
X170345000Y-104873000D02*
X170345000Y-99188000D01*
X173515000Y-104873000D02*
X170345000Y-104873000D01*
X173515000Y-99188000D02*
X173515000Y-104873000D01*
X161455000Y-104703000D02*
X161455000Y-99018000D01*
X164625000Y-104703000D02*
X161455000Y-104703000D01*
X164625000Y-99018000D02*
X164625000Y-104703000D01*
X152565000Y-105105000D02*
X152565000Y-99420000D01*
X155735000Y-105105000D02*
X152565000Y-105105000D01*
X155735000Y-99420000D02*
X155735000Y-105105000D01*
X176695000Y-117403000D02*
X176695000Y-111718000D01*
X179865000Y-117403000D02*
X176695000Y-117403000D01*
X179865000Y-111718000D02*
X179865000Y-117403000D01*
X167805000Y-117403000D02*
X167805000Y-111718000D01*
X170975000Y-117403000D02*
X167805000Y-117403000D01*
X170975000Y-111718000D02*
X170975000Y-117403000D01*
X185585000Y-117403000D02*
X185585000Y-111718000D01*
X188755000Y-117403000D02*
X185585000Y-117403000D01*
X188755000Y-111718000D02*
X188755000Y-117403000D01*
X148220000Y-114745000D02*
X148220000Y-115845000D01*
X147950000Y-114745000D02*
X148220000Y-114745000D01*
X147950000Y-113245000D02*
X147950000Y-114745000D01*
X154580000Y-114745000D02*
X154580000Y-117575000D01*
X154850000Y-114745000D02*
X154580000Y-114745000D01*
X154850000Y-113245000D02*
X154850000Y-114745000D01*
X134590000Y-108958578D02*
X134590000Y-108441422D01*
X136010000Y-108958578D02*
X136010000Y-108441422D01*
X145290000Y-111696578D02*
X145290000Y-111179422D01*
X146710000Y-111696578D02*
X146710000Y-111179422D01*
X146810000Y-115941422D02*
X146810000Y-116458578D01*
X145390000Y-115941422D02*
X145390000Y-116458578D01*
X155790000Y-115736252D02*
X155790000Y-115213748D01*
X157210000Y-115736252D02*
X157210000Y-115213748D01*
X137290000Y-110850000D02*
X137290000Y-116860000D01*
X144110000Y-113100000D02*
X144110000Y-116860000D01*
X137290000Y-116860000D02*
X138550000Y-116860000D01*
X144110000Y-116860000D02*
X142850000Y-116860000D01*
X130075000Y-111775000D02*
X133525000Y-111775000D01*
X130075000Y-111775000D02*
X128125000Y-111775000D01*
X130075000Y-116895000D02*
X132025000Y-116895000D01*
X130075000Y-116895000D02*
X128125000Y-116895000D01*
X128150132Y-89772821D02*
X129079977Y-88842976D01*
X127938000Y-89560689D02*
X128150132Y-89772821D01*
X127725868Y-89772821D02*
X127938000Y-89560689D01*
X122832689Y-94666000D02*
X123044821Y-94878132D01*
X123044821Y-94453868D02*
X122832689Y-94666000D01*
X133043311Y-94666000D02*
X132831179Y-94453868D01*
X132831179Y-94878132D02*
X133043311Y-94666000D01*
X127938000Y-99771311D02*
X127725868Y-99559179D01*
X128150132Y-99559179D02*
X127938000Y-99771311D01*
X121510000Y-90049221D02*
X121510000Y-90374779D01*
X120490000Y-90049221D02*
X120490000Y-90374779D01*
D12*
X143240000Y-96800000D02*
X143240000Y-97100000D01*
X138840000Y-96800000D02*
X138240000Y-96800000D01*
X138840000Y-97100000D02*
X138840000Y-96800000D01*
X139240000Y-97100000D02*
X138840000Y-97100000D01*
X138840000Y-86700000D02*
X139140000Y-86700000D01*
X138840000Y-87000000D02*
X138840000Y-86700000D01*
X143240000Y-97100000D02*
X142940000Y-97100000D01*
X143240000Y-86700000D02*
X143240000Y-87000000D01*
X143240000Y-86700000D02*
X142940000Y-86700000D01*
X143300000Y-108095000D02*
X143300000Y-108395000D01*
X138900000Y-108095000D02*
X138300000Y-108095000D01*
X138900000Y-108395000D02*
X138900000Y-108095000D01*
X139300000Y-108395000D02*
X138900000Y-108395000D01*
X138900000Y-97995000D02*
X139200000Y-97995000D01*
X138900000Y-98295000D02*
X138900000Y-97995000D01*
X143300000Y-108395000D02*
X143000000Y-108395000D01*
X143300000Y-97995000D02*
X143300000Y-98295000D01*
X143300000Y-97995000D02*
X143000000Y-97995000D01*
D11*
X121150000Y-86750000D02*
X121150000Y-85500000D01*
X122400000Y-86750000D02*
X121150000Y-86750000D01*
X135800000Y-81250000D02*
X129000000Y-81250000D01*
X135800000Y-84200000D02*
X135800000Y-81250000D01*
X136550000Y-84200000D02*
X135800000Y-84200000D01*
X122200000Y-81250000D02*
X129000000Y-81250000D01*
X122200000Y-84200000D02*
X122200000Y-81250000D01*
X121450000Y-84200000D02*
X122200000Y-84200000D01*
X136550000Y-86450000D02*
X134750000Y-86450000D01*
X136550000Y-85700000D02*
X136550000Y-86450000D01*
X134750000Y-85700000D02*
X136550000Y-85700000D01*
X134750000Y-86450000D02*
X134750000Y-85700000D01*
X123250000Y-86450000D02*
X121450000Y-86450000D01*
X123250000Y-85700000D02*
X123250000Y-86450000D01*
X121450000Y-85700000D02*
X123250000Y-85700000D01*
X121450000Y-86450000D02*
X121450000Y-85700000D01*
X133250000Y-86450000D02*
X124750000Y-86450000D01*
X133250000Y-85700000D02*
X133250000Y-86450000D01*
X124750000Y-85700000D02*
X133250000Y-85700000D01*
X124750000Y-86450000D02*
X124750000Y-85700000D01*
X136560000Y-86460000D02*
X121440000Y-86460000D01*
X136560000Y-80490000D02*
X136560000Y-86460000D01*
X121440000Y-80490000D02*
X136560000Y-80490000D01*
X121440000Y-86460000D02*
X121440000Y-80490000D01*
D13*
X131775000Y-104695000D02*
X130250000Y-104695000D01*
X129900000Y-109750000D02*
X129900000Y-104850000D01*
X126700000Y-109750000D02*
X129900000Y-109750000D01*
X126700000Y-104850000D02*
X126700000Y-109750000D01*
X129900000Y-104850000D02*
X126700000Y-104850000D01*
D11*
X136110000Y-113803422D02*
X136110000Y-114320578D01*
X134690000Y-113803422D02*
X134690000Y-114320578D01*
X126441422Y-117790000D02*
X126958578Y-117790000D01*
X126441422Y-119210000D02*
X126958578Y-119210000D01*
X127496578Y-103310000D02*
X126979422Y-103310000D01*
X127496578Y-101890000D02*
X126979422Y-101890000D01*
D14*
X210882380Y-69621333D02*
X210406190Y-69288000D01*
X210882380Y-69049904D02*
X209882380Y-69049904D01*
X209882380Y-69430857D01*
X209930000Y-69526095D01*
X209977619Y-69573714D01*
X210072857Y-69621333D01*
X210215714Y-69621333D01*
X210310952Y-69573714D01*
X210358571Y-69526095D01*
X210406190Y-69430857D01*
X210406190Y-69049904D01*
X209977619Y-70002285D02*
X209930000Y-70049904D01*
X209882380Y-70145142D01*
X209882380Y-70383238D01*
X209930000Y-70478476D01*
X209977619Y-70526095D01*
X210072857Y-70573714D01*
X210168095Y-70573714D01*
X210310952Y-70526095D01*
X210882380Y-69954666D01*
X210882380Y-70573714D01*
X184647619Y-56709761D02*
X184600000Y-56614523D01*
X184504761Y-56519285D01*
X184361904Y-56376428D01*
X184314285Y-56281190D01*
X184314285Y-56185952D01*
X184552380Y-56233571D02*
X184504761Y-56138333D01*
X184409523Y-56043095D01*
X184219047Y-55995476D01*
X183885714Y-55995476D01*
X183695238Y-56043095D01*
X183600000Y-56138333D01*
X183552380Y-56233571D01*
X183552380Y-56424047D01*
X183600000Y-56519285D01*
X183695238Y-56614523D01*
X183885714Y-56662142D01*
X184219047Y-56662142D01*
X184409523Y-56614523D01*
X184504761Y-56519285D01*
X184552380Y-56424047D01*
X184552380Y-56233571D01*
X184552380Y-57614523D02*
X184552380Y-57043095D01*
X184552380Y-57328809D02*
X183552380Y-57328809D01*
X183695238Y-57233571D01*
X183790476Y-57138333D01*
X183838095Y-57043095D01*
X184707619Y-68004761D02*
X184660000Y-67909523D01*
X184564761Y-67814285D01*
X184421904Y-67671428D01*
X184374285Y-67576190D01*
X184374285Y-67480952D01*
X184612380Y-67528571D02*
X184564761Y-67433333D01*
X184469523Y-67338095D01*
X184279047Y-67290476D01*
X183945714Y-67290476D01*
X183755238Y-67338095D01*
X183660000Y-67433333D01*
X183612380Y-67528571D01*
X183612380Y-67719047D01*
X183660000Y-67814285D01*
X183755238Y-67909523D01*
X183945714Y-67957142D01*
X184279047Y-67957142D01*
X184469523Y-67909523D01*
X184564761Y-67814285D01*
X184612380Y-67719047D01*
X184612380Y-67528571D01*
X183707619Y-68338095D02*
X183660000Y-68385714D01*
X183612380Y-68480952D01*
X183612380Y-68719047D01*
X183660000Y-68814285D01*
X183707619Y-68861904D01*
X183802857Y-68909523D01*
X183898095Y-68909523D01*
X184040952Y-68861904D01*
X184612380Y-68290476D01*
X184612380Y-68909523D01*
X206371310Y-68565814D02*
X206943730Y-69138234D01*
X206977402Y-69239249D01*
X206977402Y-69306593D01*
X206943730Y-69407608D01*
X206809043Y-69542295D01*
X206708028Y-69575967D01*
X206640684Y-69575967D01*
X206539669Y-69542295D01*
X205967249Y-68969875D01*
X205731547Y-69340265D02*
X205664204Y-69340265D01*
X205563188Y-69373936D01*
X205394830Y-69542295D01*
X205361158Y-69643310D01*
X205361158Y-69710654D01*
X205394830Y-69811669D01*
X205462173Y-69879013D01*
X205596860Y-69946356D01*
X206404982Y-69946356D01*
X205967249Y-70384089D01*
X165132380Y-57743904D02*
X164132380Y-57743904D01*
X164132380Y-57982000D01*
X164180000Y-58124857D01*
X164275238Y-58220095D01*
X164370476Y-58267714D01*
X164560952Y-58315333D01*
X164703809Y-58315333D01*
X164894285Y-58267714D01*
X164989523Y-58220095D01*
X165084761Y-58124857D01*
X165132380Y-57982000D01*
X165132380Y-57743904D01*
X164132380Y-58648666D02*
X164132380Y-59315333D01*
X165132380Y-58886761D01*
X138462380Y-72507714D02*
X137462380Y-72507714D01*
X137462380Y-72745809D01*
X137510000Y-72888666D01*
X137605238Y-72983904D01*
X137700476Y-73031523D01*
X137890952Y-73079142D01*
X138033809Y-73079142D01*
X138224285Y-73031523D01*
X138319523Y-72983904D01*
X138414761Y-72888666D01*
X138462380Y-72745809D01*
X138462380Y-72507714D01*
X138462380Y-74031523D02*
X138462380Y-73460095D01*
X138462380Y-73745809D02*
X137462380Y-73745809D01*
X137605238Y-73650571D01*
X137700476Y-73555333D01*
X137748095Y-73460095D01*
X137557619Y-74412476D02*
X137510000Y-74460095D01*
X137462380Y-74555333D01*
X137462380Y-74793428D01*
X137510000Y-74888666D01*
X137557619Y-74936285D01*
X137652857Y-74983904D01*
X137748095Y-74983904D01*
X137890952Y-74936285D01*
X138462380Y-74364857D01*
X138462380Y-74983904D01*
X200686904Y-48517380D02*
X200686904Y-49326904D01*
X200639285Y-49422142D01*
X200591666Y-49469761D01*
X200496428Y-49517380D01*
X200305952Y-49517380D01*
X200210714Y-49469761D01*
X200163095Y-49422142D01*
X200115476Y-49326904D01*
X200115476Y-48517380D01*
X199734523Y-48517380D02*
X199115476Y-48517380D01*
X199448809Y-48898333D01*
X199305952Y-48898333D01*
X199210714Y-48945952D01*
X199163095Y-48993571D01*
X199115476Y-49088809D01*
X199115476Y-49326904D01*
X199163095Y-49422142D01*
X199210714Y-49469761D01*
X199305952Y-49517380D01*
X199591666Y-49517380D01*
X199686904Y-49469761D01*
X199734523Y-49422142D01*
X182707142Y-48395333D02*
X182754761Y-48347714D01*
X182802380Y-48204857D01*
X182802380Y-48109619D01*
X182754761Y-47966761D01*
X182659523Y-47871523D01*
X182564285Y-47823904D01*
X182373809Y-47776285D01*
X182230952Y-47776285D01*
X182040476Y-47823904D01*
X181945238Y-47871523D01*
X181850000Y-47966761D01*
X181802380Y-48109619D01*
X181802380Y-48204857D01*
X181850000Y-48347714D01*
X181897619Y-48395333D01*
X182802380Y-48871523D02*
X182802380Y-49062000D01*
X182754761Y-49157238D01*
X182707142Y-49204857D01*
X182564285Y-49300095D01*
X182373809Y-49347714D01*
X181992857Y-49347714D01*
X181897619Y-49300095D01*
X181850000Y-49252476D01*
X181802380Y-49157238D01*
X181802380Y-48966761D01*
X181850000Y-48871523D01*
X181897619Y-48823904D01*
X181992857Y-48776285D01*
X182230952Y-48776285D01*
X182326190Y-48823904D01*
X182373809Y-48871523D01*
X182421428Y-48966761D01*
X182421428Y-49157238D01*
X182373809Y-49252476D01*
X182326190Y-49300095D01*
X182230952Y-49347714D01*
X172207142Y-44358333D02*
X172254761Y-44310714D01*
X172302380Y-44167857D01*
X172302380Y-44072619D01*
X172254761Y-43929761D01*
X172159523Y-43834523D01*
X172064285Y-43786904D01*
X171873809Y-43739285D01*
X171730952Y-43739285D01*
X171540476Y-43786904D01*
X171445238Y-43834523D01*
X171350000Y-43929761D01*
X171302380Y-44072619D01*
X171302380Y-44167857D01*
X171350000Y-44310714D01*
X171397619Y-44358333D01*
X171302380Y-44691666D02*
X171302380Y-45358333D01*
X172302380Y-44929761D01*
X156242380Y-72507714D02*
X155242380Y-72507714D01*
X155242380Y-72745809D01*
X155290000Y-72888666D01*
X155385238Y-72983904D01*
X155480476Y-73031523D01*
X155670952Y-73079142D01*
X155813809Y-73079142D01*
X156004285Y-73031523D01*
X156099523Y-72983904D01*
X156194761Y-72888666D01*
X156242380Y-72745809D01*
X156242380Y-72507714D01*
X156242380Y-74031523D02*
X156242380Y-73460095D01*
X156242380Y-73745809D02*
X155242380Y-73745809D01*
X155385238Y-73650571D01*
X155480476Y-73555333D01*
X155528095Y-73460095D01*
X155242380Y-74364857D02*
X155242380Y-74983904D01*
X155623333Y-74650571D01*
X155623333Y-74793428D01*
X155670952Y-74888666D01*
X155718571Y-74936285D01*
X155813809Y-74983904D01*
X156051904Y-74983904D01*
X156147142Y-74936285D01*
X156194761Y-74888666D01*
X156242380Y-74793428D01*
X156242380Y-74507714D01*
X156194761Y-74412476D01*
X156147142Y-74364857D01*
X174022380Y-57341904D02*
X173022380Y-57341904D01*
X173022380Y-57580000D01*
X173070000Y-57722857D01*
X173165238Y-57818095D01*
X173260476Y-57865714D01*
X173450952Y-57913333D01*
X173593809Y-57913333D01*
X173784285Y-57865714D01*
X173879523Y-57818095D01*
X173974761Y-57722857D01*
X174022380Y-57580000D01*
X174022380Y-57341904D01*
X173022380Y-58770476D02*
X173022380Y-58580000D01*
X173070000Y-58484761D01*
X173117619Y-58437142D01*
X173260476Y-58341904D01*
X173450952Y-58294285D01*
X173831904Y-58294285D01*
X173927142Y-58341904D01*
X173974761Y-58389523D01*
X174022380Y-58484761D01*
X174022380Y-58675238D01*
X173974761Y-58770476D01*
X173927142Y-58818095D01*
X173831904Y-58865714D01*
X173593809Y-58865714D01*
X173498571Y-58818095D01*
X173450952Y-58770476D01*
X173403333Y-58675238D01*
X173403333Y-58484761D01*
X173450952Y-58389523D01*
X173498571Y-58341904D01*
X173593809Y-58294285D01*
X156242380Y-57573904D02*
X155242380Y-57573904D01*
X155242380Y-57812000D01*
X155290000Y-57954857D01*
X155385238Y-58050095D01*
X155480476Y-58097714D01*
X155670952Y-58145333D01*
X155813809Y-58145333D01*
X156004285Y-58097714D01*
X156099523Y-58050095D01*
X156194761Y-57954857D01*
X156242380Y-57812000D01*
X156242380Y-57573904D01*
X155670952Y-58716761D02*
X155623333Y-58621523D01*
X155575714Y-58573904D01*
X155480476Y-58526285D01*
X155432857Y-58526285D01*
X155337619Y-58573904D01*
X155290000Y-58621523D01*
X155242380Y-58716761D01*
X155242380Y-58907238D01*
X155290000Y-59002476D01*
X155337619Y-59050095D01*
X155432857Y-59097714D01*
X155480476Y-59097714D01*
X155575714Y-59050095D01*
X155623333Y-59002476D01*
X155670952Y-58907238D01*
X155670952Y-58716761D01*
X155718571Y-58621523D01*
X155766190Y-58573904D01*
X155861428Y-58526285D01*
X156051904Y-58526285D01*
X156147142Y-58573904D01*
X156194761Y-58621523D01*
X156242380Y-58716761D01*
X156242380Y-58907238D01*
X156194761Y-59002476D01*
X156147142Y-59050095D01*
X156051904Y-59097714D01*
X155861428Y-59097714D01*
X155766190Y-59050095D01*
X155718571Y-59002476D01*
X155670952Y-58907238D01*
X147352380Y-57743904D02*
X146352380Y-57743904D01*
X146352380Y-57982000D01*
X146400000Y-58124857D01*
X146495238Y-58220095D01*
X146590476Y-58267714D01*
X146780952Y-58315333D01*
X146923809Y-58315333D01*
X147114285Y-58267714D01*
X147209523Y-58220095D01*
X147304761Y-58124857D01*
X147352380Y-57982000D01*
X147352380Y-57743904D01*
X147352380Y-58791523D02*
X147352380Y-58982000D01*
X147304761Y-59077238D01*
X147257142Y-59124857D01*
X147114285Y-59220095D01*
X146923809Y-59267714D01*
X146542857Y-59267714D01*
X146447619Y-59220095D01*
X146400000Y-59172476D01*
X146352380Y-59077238D01*
X146352380Y-58886761D01*
X146400000Y-58791523D01*
X146447619Y-58743904D01*
X146542857Y-58696285D01*
X146780952Y-58696285D01*
X146876190Y-58743904D01*
X146923809Y-58791523D01*
X146971428Y-58886761D01*
X146971428Y-59077238D01*
X146923809Y-59172476D01*
X146876190Y-59220095D01*
X146780952Y-59267714D01*
X129572380Y-72507714D02*
X128572380Y-72507714D01*
X128572380Y-72745809D01*
X128620000Y-72888666D01*
X128715238Y-72983904D01*
X128810476Y-73031523D01*
X129000952Y-73079142D01*
X129143809Y-73079142D01*
X129334285Y-73031523D01*
X129429523Y-72983904D01*
X129524761Y-72888666D01*
X129572380Y-72745809D01*
X129572380Y-72507714D01*
X129572380Y-74031523D02*
X129572380Y-73460095D01*
X129572380Y-73745809D02*
X128572380Y-73745809D01*
X128715238Y-73650571D01*
X128810476Y-73555333D01*
X128858095Y-73460095D01*
X129572380Y-74983904D02*
X129572380Y-74412476D01*
X129572380Y-74698190D02*
X128572380Y-74698190D01*
X128715238Y-74602952D01*
X128810476Y-74507714D01*
X128858095Y-74412476D01*
X193252380Y-44288095D02*
X194061904Y-44288095D01*
X194157142Y-44335714D01*
X194204761Y-44383333D01*
X194252380Y-44478571D01*
X194252380Y-44669047D01*
X194204761Y-44764285D01*
X194157142Y-44811904D01*
X194061904Y-44859523D01*
X193252380Y-44859523D01*
X193252380Y-45811904D02*
X193252380Y-45335714D01*
X193728571Y-45288095D01*
X193680952Y-45335714D01*
X193633333Y-45430952D01*
X193633333Y-45669047D01*
X193680952Y-45764285D01*
X193728571Y-45811904D01*
X193823809Y-45859523D01*
X194061904Y-45859523D01*
X194157142Y-45811904D01*
X194204761Y-45764285D01*
X194252380Y-45669047D01*
X194252380Y-45430952D01*
X194204761Y-45335714D01*
X194157142Y-45288095D01*
X185907142Y-43633333D02*
X185954761Y-43585714D01*
X186002380Y-43442857D01*
X186002380Y-43347619D01*
X185954761Y-43204761D01*
X185859523Y-43109523D01*
X185764285Y-43061904D01*
X185573809Y-43014285D01*
X185430952Y-43014285D01*
X185240476Y-43061904D01*
X185145238Y-43109523D01*
X185050000Y-43204761D01*
X185002380Y-43347619D01*
X185002380Y-43442857D01*
X185050000Y-43585714D01*
X185097619Y-43633333D01*
X185430952Y-44204761D02*
X185383333Y-44109523D01*
X185335714Y-44061904D01*
X185240476Y-44014285D01*
X185192857Y-44014285D01*
X185097619Y-44061904D01*
X185050000Y-44109523D01*
X185002380Y-44204761D01*
X185002380Y-44395238D01*
X185050000Y-44490476D01*
X185097619Y-44538095D01*
X185192857Y-44585714D01*
X185240476Y-44585714D01*
X185335714Y-44538095D01*
X185383333Y-44490476D01*
X185430952Y-44395238D01*
X185430952Y-44204761D01*
X185478571Y-44109523D01*
X185526190Y-44061904D01*
X185621428Y-44014285D01*
X185811904Y-44014285D01*
X185907142Y-44061904D01*
X185954761Y-44109523D01*
X186002380Y-44204761D01*
X186002380Y-44395238D01*
X185954761Y-44490476D01*
X185907142Y-44538095D01*
X185811904Y-44585714D01*
X185621428Y-44585714D01*
X185526190Y-44538095D01*
X185478571Y-44490476D01*
X185430952Y-44395238D01*
X173552380Y-46963095D02*
X174361904Y-46963095D01*
X174457142Y-47010714D01*
X174504761Y-47058333D01*
X174552380Y-47153571D01*
X174552380Y-47344047D01*
X174504761Y-47439285D01*
X174457142Y-47486904D01*
X174361904Y-47534523D01*
X173552380Y-47534523D01*
X173885714Y-48439285D02*
X174552380Y-48439285D01*
X173504761Y-48201190D02*
X174219047Y-47963095D01*
X174219047Y-48582142D01*
X158782380Y-45043904D02*
X157782380Y-45043904D01*
X157782380Y-45282000D01*
X157830000Y-45424857D01*
X157925238Y-45520095D01*
X158020476Y-45567714D01*
X158210952Y-45615333D01*
X158353809Y-45615333D01*
X158544285Y-45567714D01*
X158639523Y-45520095D01*
X158734761Y-45424857D01*
X158782380Y-45282000D01*
X158782380Y-45043904D01*
X157782380Y-45948666D02*
X157782380Y-46567714D01*
X158163333Y-46234380D01*
X158163333Y-46377238D01*
X158210952Y-46472476D01*
X158258571Y-46520095D01*
X158353809Y-46567714D01*
X158591904Y-46567714D01*
X158687142Y-46520095D01*
X158734761Y-46472476D01*
X158782380Y-46377238D01*
X158782380Y-46091523D01*
X158734761Y-45996285D01*
X158687142Y-45948666D01*
X193407142Y-50657142D02*
X193454761Y-50609523D01*
X193502380Y-50466666D01*
X193502380Y-50371428D01*
X193454761Y-50228571D01*
X193359523Y-50133333D01*
X193264285Y-50085714D01*
X193073809Y-50038095D01*
X192930952Y-50038095D01*
X192740476Y-50085714D01*
X192645238Y-50133333D01*
X192550000Y-50228571D01*
X192502380Y-50371428D01*
X192502380Y-50466666D01*
X192550000Y-50609523D01*
X192597619Y-50657142D01*
X193502380Y-51609523D02*
X193502380Y-51038095D01*
X193502380Y-51323809D02*
X192502380Y-51323809D01*
X192645238Y-51228571D01*
X192740476Y-51133333D01*
X192788095Y-51038095D01*
X192502380Y-52228571D02*
X192502380Y-52323809D01*
X192550000Y-52419047D01*
X192597619Y-52466666D01*
X192692857Y-52514285D01*
X192883333Y-52561904D01*
X193121428Y-52561904D01*
X193311904Y-52514285D01*
X193407142Y-52466666D01*
X193454761Y-52419047D01*
X193502380Y-52323809D01*
X193502380Y-52228571D01*
X193454761Y-52133333D01*
X193407142Y-52085714D01*
X193311904Y-52038095D01*
X193121428Y-51990476D01*
X192883333Y-51990476D01*
X192692857Y-52038095D01*
X192597619Y-52085714D01*
X192550000Y-52133333D01*
X192502380Y-52228571D01*
X149892380Y-45043904D02*
X148892380Y-45043904D01*
X148892380Y-45282000D01*
X148940000Y-45424857D01*
X149035238Y-45520095D01*
X149130476Y-45567714D01*
X149320952Y-45615333D01*
X149463809Y-45615333D01*
X149654285Y-45567714D01*
X149749523Y-45520095D01*
X149844761Y-45424857D01*
X149892380Y-45282000D01*
X149892380Y-45043904D01*
X149225714Y-46472476D02*
X149892380Y-46472476D01*
X148844761Y-46234380D02*
X149559047Y-45996285D01*
X149559047Y-46615333D01*
X141002380Y-45043904D02*
X140002380Y-45043904D01*
X140002380Y-45282000D01*
X140050000Y-45424857D01*
X140145238Y-45520095D01*
X140240476Y-45567714D01*
X140430952Y-45615333D01*
X140573809Y-45615333D01*
X140764285Y-45567714D01*
X140859523Y-45520095D01*
X140954761Y-45424857D01*
X141002380Y-45282000D01*
X141002380Y-45043904D01*
X140097619Y-45996285D02*
X140050000Y-46043904D01*
X140002380Y-46139142D01*
X140002380Y-46377238D01*
X140050000Y-46472476D01*
X140097619Y-46520095D01*
X140192857Y-46567714D01*
X140288095Y-46567714D01*
X140430952Y-46520095D01*
X141002380Y-45948666D01*
X141002380Y-46567714D01*
X120682380Y-72507714D02*
X119682380Y-72507714D01*
X119682380Y-72745809D01*
X119730000Y-72888666D01*
X119825238Y-72983904D01*
X119920476Y-73031523D01*
X120110952Y-73079142D01*
X120253809Y-73079142D01*
X120444285Y-73031523D01*
X120539523Y-72983904D01*
X120634761Y-72888666D01*
X120682380Y-72745809D01*
X120682380Y-72507714D01*
X120682380Y-74031523D02*
X120682380Y-73460095D01*
X120682380Y-73745809D02*
X119682380Y-73745809D01*
X119825238Y-73650571D01*
X119920476Y-73555333D01*
X119968095Y-73460095D01*
X119682380Y-74650571D02*
X119682380Y-74745809D01*
X119730000Y-74841047D01*
X119777619Y-74888666D01*
X119872857Y-74936285D01*
X120063333Y-74983904D01*
X120301428Y-74983904D01*
X120491904Y-74936285D01*
X120587142Y-74888666D01*
X120634761Y-74841047D01*
X120682380Y-74745809D01*
X120682380Y-74650571D01*
X120634761Y-74555333D01*
X120587142Y-74507714D01*
X120491904Y-74460095D01*
X120301428Y-74412476D01*
X120063333Y-74412476D01*
X119872857Y-74460095D01*
X119777619Y-74507714D01*
X119730000Y-74555333D01*
X119682380Y-74650571D01*
X202928666Y-59407142D02*
X202976285Y-59454761D01*
X203119142Y-59502380D01*
X203214380Y-59502380D01*
X203357238Y-59454761D01*
X203452476Y-59359523D01*
X203500095Y-59264285D01*
X203547714Y-59073809D01*
X203547714Y-58930952D01*
X203500095Y-58740476D01*
X203452476Y-58645238D01*
X203357238Y-58550000D01*
X203214380Y-58502380D01*
X203119142Y-58502380D01*
X202976285Y-58550000D01*
X202928666Y-58597619D01*
X202071523Y-58835714D02*
X202071523Y-59502380D01*
X202309619Y-58454761D02*
X202547714Y-59169047D01*
X201928666Y-59169047D01*
X203466666Y-40207142D02*
X203514285Y-40254761D01*
X203657142Y-40302380D01*
X203752380Y-40302380D01*
X203895238Y-40254761D01*
X203990476Y-40159523D01*
X204038095Y-40064285D01*
X204085714Y-39873809D01*
X204085714Y-39730952D01*
X204038095Y-39540476D01*
X203990476Y-39445238D01*
X203895238Y-39350000D01*
X203752380Y-39302380D01*
X203657142Y-39302380D01*
X203514285Y-39350000D01*
X203466666Y-39397619D01*
X202561904Y-39302380D02*
X203038095Y-39302380D01*
X203085714Y-39778571D01*
X203038095Y-39730952D01*
X202942857Y-39683333D01*
X202704761Y-39683333D01*
X202609523Y-39730952D01*
X202561904Y-39778571D01*
X202514285Y-39873809D01*
X202514285Y-40111904D01*
X202561904Y-40207142D01*
X202609523Y-40254761D01*
X202704761Y-40302380D01*
X202942857Y-40302380D01*
X203038095Y-40254761D01*
X203085714Y-40207142D01*
X201333333Y-71902380D02*
X201333333Y-72616666D01*
X201380952Y-72759523D01*
X201476190Y-72854761D01*
X201619047Y-72902380D01*
X201714285Y-72902380D01*
X200904761Y-71997619D02*
X200857142Y-71950000D01*
X200761904Y-71902380D01*
X200523809Y-71902380D01*
X200428571Y-71950000D01*
X200380952Y-71997619D01*
X200333333Y-72092857D01*
X200333333Y-72188095D01*
X200380952Y-72330952D01*
X200952380Y-72902380D01*
X200333333Y-72902380D01*
X196607142Y-45771333D02*
X196654761Y-45723714D01*
X196702380Y-45580857D01*
X196702380Y-45485619D01*
X196654761Y-45342761D01*
X196559523Y-45247523D01*
X196464285Y-45199904D01*
X196273809Y-45152285D01*
X196130952Y-45152285D01*
X195940476Y-45199904D01*
X195845238Y-45247523D01*
X195750000Y-45342761D01*
X195702380Y-45485619D01*
X195702380Y-45580857D01*
X195750000Y-45723714D01*
X195797619Y-45771333D01*
X195702380Y-46628476D02*
X195702380Y-46438000D01*
X195750000Y-46342761D01*
X195797619Y-46295142D01*
X195940476Y-46199904D01*
X196130952Y-46152285D01*
X196511904Y-46152285D01*
X196607142Y-46199904D01*
X196654761Y-46247523D01*
X196702380Y-46342761D01*
X196702380Y-46533238D01*
X196654761Y-46628476D01*
X196607142Y-46676095D01*
X196511904Y-46723714D01*
X196273809Y-46723714D01*
X196178571Y-46676095D01*
X196130952Y-46628476D01*
X196083333Y-46533238D01*
X196083333Y-46342761D01*
X196130952Y-46247523D01*
X196178571Y-46199904D01*
X196273809Y-46152285D01*
D15*
X202939761Y-53274523D02*
X202939761Y-52004523D01*
X201609285Y-53153571D02*
X201669761Y-53214047D01*
X201851190Y-53274523D01*
X201972142Y-53274523D01*
X202153571Y-53214047D01*
X202274523Y-53093095D01*
X202335000Y-52972142D01*
X202395476Y-52730238D01*
X202395476Y-52548809D01*
X202335000Y-52306904D01*
X202274523Y-52185952D01*
X202153571Y-52065000D01*
X201972142Y-52004523D01*
X201851190Y-52004523D01*
X201669761Y-52065000D01*
X201609285Y-52125476D01*
X200399761Y-53274523D02*
X201125476Y-53274523D01*
X200762619Y-53274523D02*
X200762619Y-52004523D01*
X200883571Y-52185952D01*
X201004523Y-52306904D01*
X201125476Y-52367380D01*
D14*
X165132380Y-72507714D02*
X164132380Y-72507714D01*
X164132380Y-72745809D01*
X164180000Y-72888666D01*
X164275238Y-72983904D01*
X164370476Y-73031523D01*
X164560952Y-73079142D01*
X164703809Y-73079142D01*
X164894285Y-73031523D01*
X164989523Y-72983904D01*
X165084761Y-72888666D01*
X165132380Y-72745809D01*
X165132380Y-72507714D01*
X165132380Y-74031523D02*
X165132380Y-73460095D01*
X165132380Y-73745809D02*
X164132380Y-73745809D01*
X164275238Y-73650571D01*
X164370476Y-73555333D01*
X164418095Y-73460095D01*
X164560952Y-74602952D02*
X164513333Y-74507714D01*
X164465714Y-74460095D01*
X164370476Y-74412476D01*
X164322857Y-74412476D01*
X164227619Y-74460095D01*
X164180000Y-74507714D01*
X164132380Y-74602952D01*
X164132380Y-74793428D01*
X164180000Y-74888666D01*
X164227619Y-74936285D01*
X164322857Y-74983904D01*
X164370476Y-74983904D01*
X164465714Y-74936285D01*
X164513333Y-74888666D01*
X164560952Y-74793428D01*
X164560952Y-74602952D01*
X164608571Y-74507714D01*
X164656190Y-74460095D01*
X164751428Y-74412476D01*
X164941904Y-74412476D01*
X165037142Y-74460095D01*
X165084761Y-74507714D01*
X165132380Y-74602952D01*
X165132380Y-74793428D01*
X165084761Y-74888666D01*
X165037142Y-74936285D01*
X164941904Y-74983904D01*
X164751428Y-74983904D01*
X164656190Y-74936285D01*
X164608571Y-74888666D01*
X164560952Y-74793428D01*
X174172380Y-72507714D02*
X173172380Y-72507714D01*
X173172380Y-72745809D01*
X173220000Y-72888666D01*
X173315238Y-72983904D01*
X173410476Y-73031523D01*
X173600952Y-73079142D01*
X173743809Y-73079142D01*
X173934285Y-73031523D01*
X174029523Y-72983904D01*
X174124761Y-72888666D01*
X174172380Y-72745809D01*
X174172380Y-72507714D01*
X174172380Y-74031523D02*
X174172380Y-73460095D01*
X174172380Y-73745809D02*
X173172380Y-73745809D01*
X173315238Y-73650571D01*
X173410476Y-73555333D01*
X173458095Y-73460095D01*
X174172380Y-74507714D02*
X174172380Y-74698190D01*
X174124761Y-74793428D01*
X174077142Y-74841047D01*
X173934285Y-74936285D01*
X173743809Y-74983904D01*
X173362857Y-74983904D01*
X173267619Y-74936285D01*
X173220000Y-74888666D01*
X173172380Y-74793428D01*
X173172380Y-74602952D01*
X173220000Y-74507714D01*
X173267619Y-74460095D01*
X173362857Y-74412476D01*
X173600952Y-74412476D01*
X173696190Y-74460095D01*
X173743809Y-74507714D01*
X173791428Y-74602952D01*
X173791428Y-74793428D01*
X173743809Y-74888666D01*
X173696190Y-74936285D01*
X173600952Y-74983904D01*
X138462380Y-57267714D02*
X137462380Y-57267714D01*
X137462380Y-57505809D01*
X137510000Y-57648666D01*
X137605238Y-57743904D01*
X137700476Y-57791523D01*
X137890952Y-57839142D01*
X138033809Y-57839142D01*
X138224285Y-57791523D01*
X138319523Y-57743904D01*
X138414761Y-57648666D01*
X138462380Y-57505809D01*
X138462380Y-57267714D01*
X138462380Y-58791523D02*
X138462380Y-58220095D01*
X138462380Y-58505809D02*
X137462380Y-58505809D01*
X137605238Y-58410571D01*
X137700476Y-58315333D01*
X137748095Y-58220095D01*
X137795714Y-59648666D02*
X138462380Y-59648666D01*
X137414761Y-59410571D02*
X138129047Y-59172476D01*
X138129047Y-59791523D01*
X129572380Y-57267714D02*
X128572380Y-57267714D01*
X128572380Y-57505809D01*
X128620000Y-57648666D01*
X128715238Y-57743904D01*
X128810476Y-57791523D01*
X129000952Y-57839142D01*
X129143809Y-57839142D01*
X129334285Y-57791523D01*
X129429523Y-57743904D01*
X129524761Y-57648666D01*
X129572380Y-57505809D01*
X129572380Y-57267714D01*
X129572380Y-58791523D02*
X129572380Y-58220095D01*
X129572380Y-58505809D02*
X128572380Y-58505809D01*
X128715238Y-58410571D01*
X128810476Y-58315333D01*
X128858095Y-58220095D01*
X128572380Y-59696285D02*
X128572380Y-59220095D01*
X129048571Y-59172476D01*
X129000952Y-59220095D01*
X128953333Y-59315333D01*
X128953333Y-59553428D01*
X129000952Y-59648666D01*
X129048571Y-59696285D01*
X129143809Y-59743904D01*
X129381904Y-59743904D01*
X129477142Y-59696285D01*
X129524761Y-59648666D01*
X129572380Y-59553428D01*
X129572380Y-59315333D01*
X129524761Y-59220095D01*
X129477142Y-59172476D01*
X147352380Y-72507714D02*
X146352380Y-72507714D01*
X146352380Y-72745809D01*
X146400000Y-72888666D01*
X146495238Y-72983904D01*
X146590476Y-73031523D01*
X146780952Y-73079142D01*
X146923809Y-73079142D01*
X147114285Y-73031523D01*
X147209523Y-72983904D01*
X147304761Y-72888666D01*
X147352380Y-72745809D01*
X147352380Y-72507714D01*
X147352380Y-74031523D02*
X147352380Y-73460095D01*
X147352380Y-73745809D02*
X146352380Y-73745809D01*
X146495238Y-73650571D01*
X146590476Y-73555333D01*
X146638095Y-73460095D01*
X146352380Y-74364857D02*
X146352380Y-75031523D01*
X147352380Y-74602952D01*
X120682380Y-57267714D02*
X119682380Y-57267714D01*
X119682380Y-57505809D01*
X119730000Y-57648666D01*
X119825238Y-57743904D01*
X119920476Y-57791523D01*
X120110952Y-57839142D01*
X120253809Y-57839142D01*
X120444285Y-57791523D01*
X120539523Y-57743904D01*
X120634761Y-57648666D01*
X120682380Y-57505809D01*
X120682380Y-57267714D01*
X120682380Y-58791523D02*
X120682380Y-58220095D01*
X120682380Y-58505809D02*
X119682380Y-58505809D01*
X119825238Y-58410571D01*
X119920476Y-58315333D01*
X119968095Y-58220095D01*
X119682380Y-59648666D02*
X119682380Y-59458190D01*
X119730000Y-59362952D01*
X119777619Y-59315333D01*
X119920476Y-59220095D01*
X120110952Y-59172476D01*
X120491904Y-59172476D01*
X120587142Y-59220095D01*
X120634761Y-59267714D01*
X120682380Y-59362952D01*
X120682380Y-59553428D01*
X120634761Y-59648666D01*
X120587142Y-59696285D01*
X120491904Y-59743904D01*
X120253809Y-59743904D01*
X120158571Y-59696285D01*
X120110952Y-59648666D01*
X120063333Y-59553428D01*
X120063333Y-59362952D01*
X120110952Y-59267714D01*
X120158571Y-59220095D01*
X120253809Y-59172476D01*
X156732380Y-85063714D02*
X155732380Y-85063714D01*
X155732380Y-85301809D01*
X155780000Y-85444666D01*
X155875238Y-85539904D01*
X155970476Y-85587523D01*
X156160952Y-85635142D01*
X156303809Y-85635142D01*
X156494285Y-85587523D01*
X156589523Y-85539904D01*
X156684761Y-85444666D01*
X156732380Y-85301809D01*
X156732380Y-85063714D01*
X156732380Y-86587523D02*
X156732380Y-86016095D01*
X156732380Y-86301809D02*
X155732380Y-86301809D01*
X155875238Y-86206571D01*
X155970476Y-86111333D01*
X156018095Y-86016095D01*
X156732380Y-87063714D02*
X156732380Y-87254190D01*
X156684761Y-87349428D01*
X156637142Y-87397047D01*
X156494285Y-87492285D01*
X156303809Y-87539904D01*
X155922857Y-87539904D01*
X155827619Y-87492285D01*
X155780000Y-87444666D01*
X155732380Y-87349428D01*
X155732380Y-87158952D01*
X155780000Y-87063714D01*
X155827619Y-87016095D01*
X155922857Y-86968476D01*
X156160952Y-86968476D01*
X156256190Y-87016095D01*
X156303809Y-87063714D01*
X156351428Y-87158952D01*
X156351428Y-87349428D01*
X156303809Y-87444666D01*
X156256190Y-87492285D01*
X156160952Y-87539904D01*
X165772380Y-85063714D02*
X164772380Y-85063714D01*
X164772380Y-85301809D01*
X164820000Y-85444666D01*
X164915238Y-85539904D01*
X165010476Y-85587523D01*
X165200952Y-85635142D01*
X165343809Y-85635142D01*
X165534285Y-85587523D01*
X165629523Y-85539904D01*
X165724761Y-85444666D01*
X165772380Y-85301809D01*
X165772380Y-85063714D01*
X165772380Y-86587523D02*
X165772380Y-86016095D01*
X165772380Y-86301809D02*
X164772380Y-86301809D01*
X164915238Y-86206571D01*
X165010476Y-86111333D01*
X165058095Y-86016095D01*
X165200952Y-87158952D02*
X165153333Y-87063714D01*
X165105714Y-87016095D01*
X165010476Y-86968476D01*
X164962857Y-86968476D01*
X164867619Y-87016095D01*
X164820000Y-87063714D01*
X164772380Y-87158952D01*
X164772380Y-87349428D01*
X164820000Y-87444666D01*
X164867619Y-87492285D01*
X164962857Y-87539904D01*
X165010476Y-87539904D01*
X165105714Y-87492285D01*
X165153333Y-87444666D01*
X165200952Y-87349428D01*
X165200952Y-87158952D01*
X165248571Y-87063714D01*
X165296190Y-87016095D01*
X165391428Y-86968476D01*
X165581904Y-86968476D01*
X165677142Y-87016095D01*
X165724761Y-87063714D01*
X165772380Y-87158952D01*
X165772380Y-87349428D01*
X165724761Y-87444666D01*
X165677142Y-87492285D01*
X165581904Y-87539904D01*
X165391428Y-87539904D01*
X165296190Y-87492285D01*
X165248571Y-87444666D01*
X165200952Y-87349428D01*
X183552380Y-85063714D02*
X182552380Y-85063714D01*
X182552380Y-85301809D01*
X182600000Y-85444666D01*
X182695238Y-85539904D01*
X182790476Y-85587523D01*
X182980952Y-85635142D01*
X183123809Y-85635142D01*
X183314285Y-85587523D01*
X183409523Y-85539904D01*
X183504761Y-85444666D01*
X183552380Y-85301809D01*
X183552380Y-85063714D01*
X183552380Y-86587523D02*
X183552380Y-86016095D01*
X183552380Y-86301809D02*
X182552380Y-86301809D01*
X182695238Y-86206571D01*
X182790476Y-86111333D01*
X182838095Y-86016095D01*
X182552380Y-86920857D02*
X182552380Y-87587523D01*
X183552380Y-87158952D01*
X210222380Y-100303714D02*
X209222380Y-100303714D01*
X209222380Y-100541809D01*
X209270000Y-100684666D01*
X209365238Y-100779904D01*
X209460476Y-100827523D01*
X209650952Y-100875142D01*
X209793809Y-100875142D01*
X209984285Y-100827523D01*
X210079523Y-100779904D01*
X210174761Y-100684666D01*
X210222380Y-100541809D01*
X210222380Y-100303714D01*
X210222380Y-101827523D02*
X210222380Y-101256095D01*
X210222380Y-101541809D02*
X209222380Y-101541809D01*
X209365238Y-101446571D01*
X209460476Y-101351333D01*
X209508095Y-101256095D01*
X209222380Y-102684666D02*
X209222380Y-102494190D01*
X209270000Y-102398952D01*
X209317619Y-102351333D01*
X209460476Y-102256095D01*
X209650952Y-102208476D01*
X210031904Y-102208476D01*
X210127142Y-102256095D01*
X210174761Y-102303714D01*
X210222380Y-102398952D01*
X210222380Y-102589428D01*
X210174761Y-102684666D01*
X210127142Y-102732285D01*
X210031904Y-102779904D01*
X209793809Y-102779904D01*
X209698571Y-102732285D01*
X209650952Y-102684666D01*
X209603333Y-102589428D01*
X209603333Y-102398952D01*
X209650952Y-102303714D01*
X209698571Y-102256095D01*
X209793809Y-102208476D01*
X201332380Y-100303714D02*
X200332380Y-100303714D01*
X200332380Y-100541809D01*
X200380000Y-100684666D01*
X200475238Y-100779904D01*
X200570476Y-100827523D01*
X200760952Y-100875142D01*
X200903809Y-100875142D01*
X201094285Y-100827523D01*
X201189523Y-100779904D01*
X201284761Y-100684666D01*
X201332380Y-100541809D01*
X201332380Y-100303714D01*
X201332380Y-101827523D02*
X201332380Y-101256095D01*
X201332380Y-101541809D02*
X200332380Y-101541809D01*
X200475238Y-101446571D01*
X200570476Y-101351333D01*
X200618095Y-101256095D01*
X200332380Y-102732285D02*
X200332380Y-102256095D01*
X200808571Y-102208476D01*
X200760952Y-102256095D01*
X200713333Y-102351333D01*
X200713333Y-102589428D01*
X200760952Y-102684666D01*
X200808571Y-102732285D01*
X200903809Y-102779904D01*
X201141904Y-102779904D01*
X201237142Y-102732285D01*
X201284761Y-102684666D01*
X201332380Y-102589428D01*
X201332380Y-102351333D01*
X201284761Y-102256095D01*
X201237142Y-102208476D01*
X192442380Y-100303714D02*
X191442380Y-100303714D01*
X191442380Y-100541809D01*
X191490000Y-100684666D01*
X191585238Y-100779904D01*
X191680476Y-100827523D01*
X191870952Y-100875142D01*
X192013809Y-100875142D01*
X192204285Y-100827523D01*
X192299523Y-100779904D01*
X192394761Y-100684666D01*
X192442380Y-100541809D01*
X192442380Y-100303714D01*
X192442380Y-101827523D02*
X192442380Y-101256095D01*
X192442380Y-101541809D02*
X191442380Y-101541809D01*
X191585238Y-101446571D01*
X191680476Y-101351333D01*
X191728095Y-101256095D01*
X191775714Y-102684666D02*
X192442380Y-102684666D01*
X191394761Y-102446571D02*
X192109047Y-102208476D01*
X192109047Y-102827523D01*
X174662380Y-85063714D02*
X173662380Y-85063714D01*
X173662380Y-85301809D01*
X173710000Y-85444666D01*
X173805238Y-85539904D01*
X173900476Y-85587523D01*
X174090952Y-85635142D01*
X174233809Y-85635142D01*
X174424285Y-85587523D01*
X174519523Y-85539904D01*
X174614761Y-85444666D01*
X174662380Y-85301809D01*
X174662380Y-85063714D01*
X174662380Y-86587523D02*
X174662380Y-86016095D01*
X174662380Y-86301809D02*
X173662380Y-86301809D01*
X173805238Y-86206571D01*
X173900476Y-86111333D01*
X173948095Y-86016095D01*
X173662380Y-86920857D02*
X173662380Y-87539904D01*
X174043333Y-87206571D01*
X174043333Y-87349428D01*
X174090952Y-87444666D01*
X174138571Y-87492285D01*
X174233809Y-87539904D01*
X174471904Y-87539904D01*
X174567142Y-87492285D01*
X174614761Y-87444666D01*
X174662380Y-87349428D01*
X174662380Y-87063714D01*
X174614761Y-86968476D01*
X174567142Y-86920857D01*
X192442380Y-85063714D02*
X191442380Y-85063714D01*
X191442380Y-85301809D01*
X191490000Y-85444666D01*
X191585238Y-85539904D01*
X191680476Y-85587523D01*
X191870952Y-85635142D01*
X192013809Y-85635142D01*
X192204285Y-85587523D01*
X192299523Y-85539904D01*
X192394761Y-85444666D01*
X192442380Y-85301809D01*
X192442380Y-85063714D01*
X192442380Y-86587523D02*
X192442380Y-86016095D01*
X192442380Y-86301809D02*
X191442380Y-86301809D01*
X191585238Y-86206571D01*
X191680476Y-86111333D01*
X191728095Y-86016095D01*
X191537619Y-86968476D02*
X191490000Y-87016095D01*
X191442380Y-87111333D01*
X191442380Y-87349428D01*
X191490000Y-87444666D01*
X191537619Y-87492285D01*
X191632857Y-87539904D01*
X191728095Y-87539904D01*
X191870952Y-87492285D01*
X192442380Y-86920857D01*
X192442380Y-87539904D01*
X201332380Y-85063714D02*
X200332380Y-85063714D01*
X200332380Y-85301809D01*
X200380000Y-85444666D01*
X200475238Y-85539904D01*
X200570476Y-85587523D01*
X200760952Y-85635142D01*
X200903809Y-85635142D01*
X201094285Y-85587523D01*
X201189523Y-85539904D01*
X201284761Y-85444666D01*
X201332380Y-85301809D01*
X201332380Y-85063714D01*
X201332380Y-86587523D02*
X201332380Y-86016095D01*
X201332380Y-86301809D02*
X200332380Y-86301809D01*
X200475238Y-86206571D01*
X200570476Y-86111333D01*
X200618095Y-86016095D01*
X201332380Y-87539904D02*
X201332380Y-86968476D01*
X201332380Y-87254190D02*
X200332380Y-87254190D01*
X200475238Y-87158952D01*
X200570476Y-87063714D01*
X200618095Y-86968476D01*
X210222380Y-85063714D02*
X209222380Y-85063714D01*
X209222380Y-85301809D01*
X209270000Y-85444666D01*
X209365238Y-85539904D01*
X209460476Y-85587523D01*
X209650952Y-85635142D01*
X209793809Y-85635142D01*
X209984285Y-85587523D01*
X210079523Y-85539904D01*
X210174761Y-85444666D01*
X210222380Y-85301809D01*
X210222380Y-85063714D01*
X210222380Y-86587523D02*
X210222380Y-86016095D01*
X210222380Y-86301809D02*
X209222380Y-86301809D01*
X209365238Y-86206571D01*
X209460476Y-86111333D01*
X209508095Y-86016095D01*
X209222380Y-87206571D02*
X209222380Y-87301809D01*
X209270000Y-87397047D01*
X209317619Y-87444666D01*
X209412857Y-87492285D01*
X209603333Y-87539904D01*
X209841428Y-87539904D01*
X210031904Y-87492285D01*
X210127142Y-87444666D01*
X210174761Y-87397047D01*
X210222380Y-87301809D01*
X210222380Y-87206571D01*
X210174761Y-87111333D01*
X210127142Y-87063714D01*
X210031904Y-87016095D01*
X209841428Y-86968476D01*
X209603333Y-86968476D01*
X209412857Y-87016095D01*
X209317619Y-87063714D01*
X209270000Y-87111333D01*
X209222380Y-87206571D01*
X183552380Y-100779904D02*
X182552380Y-100779904D01*
X182552380Y-101018000D01*
X182600000Y-101160857D01*
X182695238Y-101256095D01*
X182790476Y-101303714D01*
X182980952Y-101351333D01*
X183123809Y-101351333D01*
X183314285Y-101303714D01*
X183409523Y-101256095D01*
X183504761Y-101160857D01*
X183552380Y-101018000D01*
X183552380Y-100779904D01*
X183552380Y-101827523D02*
X183552380Y-102018000D01*
X183504761Y-102113238D01*
X183457142Y-102160857D01*
X183314285Y-102256095D01*
X183123809Y-102303714D01*
X182742857Y-102303714D01*
X182647619Y-102256095D01*
X182600000Y-102208476D01*
X182552380Y-102113238D01*
X182552380Y-101922761D01*
X182600000Y-101827523D01*
X182647619Y-101779904D01*
X182742857Y-101732285D01*
X182980952Y-101732285D01*
X183076190Y-101779904D01*
X183123809Y-101827523D01*
X183171428Y-101922761D01*
X183171428Y-102113238D01*
X183123809Y-102208476D01*
X183076190Y-102256095D01*
X182980952Y-102303714D01*
X174662380Y-100949904D02*
X173662380Y-100949904D01*
X173662380Y-101188000D01*
X173710000Y-101330857D01*
X173805238Y-101426095D01*
X173900476Y-101473714D01*
X174090952Y-101521333D01*
X174233809Y-101521333D01*
X174424285Y-101473714D01*
X174519523Y-101426095D01*
X174614761Y-101330857D01*
X174662380Y-101188000D01*
X174662380Y-100949904D01*
X174090952Y-102092761D02*
X174043333Y-101997523D01*
X173995714Y-101949904D01*
X173900476Y-101902285D01*
X173852857Y-101902285D01*
X173757619Y-101949904D01*
X173710000Y-101997523D01*
X173662380Y-102092761D01*
X173662380Y-102283238D01*
X173710000Y-102378476D01*
X173757619Y-102426095D01*
X173852857Y-102473714D01*
X173900476Y-102473714D01*
X173995714Y-102426095D01*
X174043333Y-102378476D01*
X174090952Y-102283238D01*
X174090952Y-102092761D01*
X174138571Y-101997523D01*
X174186190Y-101949904D01*
X174281428Y-101902285D01*
X174471904Y-101902285D01*
X174567142Y-101949904D01*
X174614761Y-101997523D01*
X174662380Y-102092761D01*
X174662380Y-102283238D01*
X174614761Y-102378476D01*
X174567142Y-102426095D01*
X174471904Y-102473714D01*
X174281428Y-102473714D01*
X174186190Y-102426095D01*
X174138571Y-102378476D01*
X174090952Y-102283238D01*
X165772380Y-100779904D02*
X164772380Y-100779904D01*
X164772380Y-101018000D01*
X164820000Y-101160857D01*
X164915238Y-101256095D01*
X165010476Y-101303714D01*
X165200952Y-101351333D01*
X165343809Y-101351333D01*
X165534285Y-101303714D01*
X165629523Y-101256095D01*
X165724761Y-101160857D01*
X165772380Y-101018000D01*
X165772380Y-100779904D01*
X164772380Y-101684666D02*
X164772380Y-102351333D01*
X165772380Y-101922761D01*
X156882380Y-101181904D02*
X155882380Y-101181904D01*
X155882380Y-101420000D01*
X155930000Y-101562857D01*
X156025238Y-101658095D01*
X156120476Y-101705714D01*
X156310952Y-101753333D01*
X156453809Y-101753333D01*
X156644285Y-101705714D01*
X156739523Y-101658095D01*
X156834761Y-101562857D01*
X156882380Y-101420000D01*
X156882380Y-101181904D01*
X155882380Y-102610476D02*
X155882380Y-102420000D01*
X155930000Y-102324761D01*
X155977619Y-102277142D01*
X156120476Y-102181904D01*
X156310952Y-102134285D01*
X156691904Y-102134285D01*
X156787142Y-102181904D01*
X156834761Y-102229523D01*
X156882380Y-102324761D01*
X156882380Y-102515238D01*
X156834761Y-102610476D01*
X156787142Y-102658095D01*
X156691904Y-102705714D01*
X156453809Y-102705714D01*
X156358571Y-102658095D01*
X156310952Y-102610476D01*
X156263333Y-102515238D01*
X156263333Y-102324761D01*
X156310952Y-102229523D01*
X156358571Y-102181904D01*
X156453809Y-102134285D01*
X181012380Y-113479904D02*
X180012380Y-113479904D01*
X180012380Y-113718000D01*
X180060000Y-113860857D01*
X180155238Y-113956095D01*
X180250476Y-114003714D01*
X180440952Y-114051333D01*
X180583809Y-114051333D01*
X180774285Y-114003714D01*
X180869523Y-113956095D01*
X180964761Y-113860857D01*
X181012380Y-113718000D01*
X181012380Y-113479904D01*
X180345714Y-114908476D02*
X181012380Y-114908476D01*
X179964761Y-114670380D02*
X180679047Y-114432285D01*
X180679047Y-115051333D01*
X172122380Y-113479904D02*
X171122380Y-113479904D01*
X171122380Y-113718000D01*
X171170000Y-113860857D01*
X171265238Y-113956095D01*
X171360476Y-114003714D01*
X171550952Y-114051333D01*
X171693809Y-114051333D01*
X171884285Y-114003714D01*
X171979523Y-113956095D01*
X172074761Y-113860857D01*
X172122380Y-113718000D01*
X172122380Y-113479904D01*
X171122380Y-114384666D02*
X171122380Y-115003714D01*
X171503333Y-114670380D01*
X171503333Y-114813238D01*
X171550952Y-114908476D01*
X171598571Y-114956095D01*
X171693809Y-115003714D01*
X171931904Y-115003714D01*
X172027142Y-114956095D01*
X172074761Y-114908476D01*
X172122380Y-114813238D01*
X172122380Y-114527523D01*
X172074761Y-114432285D01*
X172027142Y-114384666D01*
X189902380Y-113479904D02*
X188902380Y-113479904D01*
X188902380Y-113718000D01*
X188950000Y-113860857D01*
X189045238Y-113956095D01*
X189140476Y-114003714D01*
X189330952Y-114051333D01*
X189473809Y-114051333D01*
X189664285Y-114003714D01*
X189759523Y-113956095D01*
X189854761Y-113860857D01*
X189902380Y-113718000D01*
X189902380Y-113479904D01*
X188997619Y-114432285D02*
X188950000Y-114479904D01*
X188902380Y-114575142D01*
X188902380Y-114813238D01*
X188950000Y-114908476D01*
X188997619Y-114956095D01*
X189092857Y-115003714D01*
X189188095Y-115003714D01*
X189330952Y-114956095D01*
X189902380Y-114384666D01*
X189902380Y-115003714D01*
X155352380Y-111513095D02*
X156161904Y-111513095D01*
X156257142Y-111560714D01*
X156304761Y-111608333D01*
X156352380Y-111703571D01*
X156352380Y-111894047D01*
X156304761Y-111989285D01*
X156257142Y-112036904D01*
X156161904Y-112084523D01*
X155352380Y-112084523D01*
X155685714Y-112989285D02*
X156352380Y-112989285D01*
X155304761Y-112751190D02*
X156019047Y-112513095D01*
X156019047Y-113132142D01*
X137307142Y-108057142D02*
X137354761Y-108009523D01*
X137402380Y-107866666D01*
X137402380Y-107771428D01*
X137354761Y-107628571D01*
X137259523Y-107533333D01*
X137164285Y-107485714D01*
X136973809Y-107438095D01*
X136830952Y-107438095D01*
X136640476Y-107485714D01*
X136545238Y-107533333D01*
X136450000Y-107628571D01*
X136402380Y-107771428D01*
X136402380Y-107866666D01*
X136450000Y-108009523D01*
X136497619Y-108057142D01*
X137402380Y-109009523D02*
X137402380Y-108438095D01*
X137402380Y-108723809D02*
X136402380Y-108723809D01*
X136545238Y-108628571D01*
X136640476Y-108533333D01*
X136688095Y-108438095D01*
X136402380Y-109628571D02*
X136402380Y-109723809D01*
X136450000Y-109819047D01*
X136497619Y-109866666D01*
X136592857Y-109914285D01*
X136783333Y-109961904D01*
X137021428Y-109961904D01*
X137211904Y-109914285D01*
X137307142Y-109866666D01*
X137354761Y-109819047D01*
X137402380Y-109723809D01*
X137402380Y-109628571D01*
X137354761Y-109533333D01*
X137307142Y-109485714D01*
X137211904Y-109438095D01*
X137021428Y-109390476D01*
X136783333Y-109390476D01*
X136592857Y-109438095D01*
X136497619Y-109485714D01*
X136450000Y-109533333D01*
X136402380Y-109628571D01*
X148007142Y-111271333D02*
X148054761Y-111223714D01*
X148102380Y-111080857D01*
X148102380Y-110985619D01*
X148054761Y-110842761D01*
X147959523Y-110747523D01*
X147864285Y-110699904D01*
X147673809Y-110652285D01*
X147530952Y-110652285D01*
X147340476Y-110699904D01*
X147245238Y-110747523D01*
X147150000Y-110842761D01*
X147102380Y-110985619D01*
X147102380Y-111080857D01*
X147150000Y-111223714D01*
X147197619Y-111271333D01*
X148102380Y-111747523D02*
X148102380Y-111938000D01*
X148054761Y-112033238D01*
X148007142Y-112080857D01*
X147864285Y-112176095D01*
X147673809Y-112223714D01*
X147292857Y-112223714D01*
X147197619Y-112176095D01*
X147150000Y-112128476D01*
X147102380Y-112033238D01*
X147102380Y-111842761D01*
X147150000Y-111747523D01*
X147197619Y-111699904D01*
X147292857Y-111652285D01*
X147530952Y-111652285D01*
X147626190Y-111699904D01*
X147673809Y-111747523D01*
X147721428Y-111842761D01*
X147721428Y-112033238D01*
X147673809Y-112128476D01*
X147626190Y-112176095D01*
X147530952Y-112223714D01*
X144807142Y-116033333D02*
X144854761Y-115985714D01*
X144902380Y-115842857D01*
X144902380Y-115747619D01*
X144854761Y-115604761D01*
X144759523Y-115509523D01*
X144664285Y-115461904D01*
X144473809Y-115414285D01*
X144330952Y-115414285D01*
X144140476Y-115461904D01*
X144045238Y-115509523D01*
X143950000Y-115604761D01*
X143902380Y-115747619D01*
X143902380Y-115842857D01*
X143950000Y-115985714D01*
X143997619Y-116033333D01*
X144330952Y-116604761D02*
X144283333Y-116509523D01*
X144235714Y-116461904D01*
X144140476Y-116414285D01*
X144092857Y-116414285D01*
X143997619Y-116461904D01*
X143950000Y-116509523D01*
X143902380Y-116604761D01*
X143902380Y-116795238D01*
X143950000Y-116890476D01*
X143997619Y-116938095D01*
X144092857Y-116985714D01*
X144140476Y-116985714D01*
X144235714Y-116938095D01*
X144283333Y-116890476D01*
X144330952Y-116795238D01*
X144330952Y-116604761D01*
X144378571Y-116509523D01*
X144426190Y-116461904D01*
X144521428Y-116414285D01*
X144711904Y-116414285D01*
X144807142Y-116461904D01*
X144854761Y-116509523D01*
X144902380Y-116604761D01*
X144902380Y-116795238D01*
X144854761Y-116890476D01*
X144807142Y-116938095D01*
X144711904Y-116985714D01*
X144521428Y-116985714D01*
X144426190Y-116938095D01*
X144378571Y-116890476D01*
X144330952Y-116795238D01*
X158507142Y-115308333D02*
X158554761Y-115260714D01*
X158602380Y-115117857D01*
X158602380Y-115022619D01*
X158554761Y-114879761D01*
X158459523Y-114784523D01*
X158364285Y-114736904D01*
X158173809Y-114689285D01*
X158030952Y-114689285D01*
X157840476Y-114736904D01*
X157745238Y-114784523D01*
X157650000Y-114879761D01*
X157602380Y-115022619D01*
X157602380Y-115117857D01*
X157650000Y-115260714D01*
X157697619Y-115308333D01*
X157602380Y-115641666D02*
X157602380Y-116308333D01*
X158602380Y-115879761D01*
X135652380Y-114188095D02*
X136461904Y-114188095D01*
X136557142Y-114235714D01*
X136604761Y-114283333D01*
X136652380Y-114378571D01*
X136652380Y-114569047D01*
X136604761Y-114664285D01*
X136557142Y-114711904D01*
X136461904Y-114759523D01*
X135652380Y-114759523D01*
X135652380Y-115711904D02*
X135652380Y-115235714D01*
X136128571Y-115188095D01*
X136080952Y-115235714D01*
X136033333Y-115330952D01*
X136033333Y-115569047D01*
X136080952Y-115664285D01*
X136128571Y-115711904D01*
X136223809Y-115759523D01*
X136461904Y-115759523D01*
X136557142Y-115711904D01*
X136604761Y-115664285D01*
X136652380Y-115569047D01*
X136652380Y-115330952D01*
X136604761Y-115235714D01*
X136557142Y-115188095D01*
X130836904Y-110387380D02*
X130836904Y-111196904D01*
X130789285Y-111292142D01*
X130741666Y-111339761D01*
X130646428Y-111387380D01*
X130455952Y-111387380D01*
X130360714Y-111339761D01*
X130313095Y-111292142D01*
X130265476Y-111196904D01*
X130265476Y-110387380D01*
X129884523Y-110387380D02*
X129265476Y-110387380D01*
X129598809Y-110768333D01*
X129455952Y-110768333D01*
X129360714Y-110815952D01*
X129313095Y-110863571D01*
X129265476Y-110958809D01*
X129265476Y-111196904D01*
X129313095Y-111292142D01*
X129360714Y-111339761D01*
X129455952Y-111387380D01*
X129741666Y-111387380D01*
X129836904Y-111339761D01*
X129884523Y-111292142D01*
X123931734Y-89582238D02*
X124504154Y-90154658D01*
X124537826Y-90255673D01*
X124537826Y-90323017D01*
X124504154Y-90424032D01*
X124369467Y-90558719D01*
X124268452Y-90592391D01*
X124201108Y-90592391D01*
X124100093Y-90558719D01*
X123527673Y-89986299D01*
X123291971Y-90356689D02*
X123224628Y-90356689D01*
X123123612Y-90390360D01*
X122955254Y-90558719D01*
X122921582Y-90659734D01*
X122921582Y-90727078D01*
X122955254Y-90828093D01*
X123022597Y-90895437D01*
X123157284Y-90962780D01*
X123965406Y-90962780D01*
X123527673Y-91400513D01*
X120022380Y-90045333D02*
X119546190Y-89712000D01*
X120022380Y-89473904D02*
X119022380Y-89473904D01*
X119022380Y-89854857D01*
X119070000Y-89950095D01*
X119117619Y-89997714D01*
X119212857Y-90045333D01*
X119355714Y-90045333D01*
X119450952Y-89997714D01*
X119498571Y-89950095D01*
X119546190Y-89854857D01*
X119546190Y-89473904D01*
X119117619Y-90426285D02*
X119070000Y-90473904D01*
X119022380Y-90569142D01*
X119022380Y-90807238D01*
X119070000Y-90902476D01*
X119117619Y-90950095D01*
X119212857Y-90997714D01*
X119308095Y-90997714D01*
X119450952Y-90950095D01*
X120022380Y-90378666D01*
X120022380Y-90997714D01*
X146387619Y-91804761D02*
X146340000Y-91709523D01*
X146244761Y-91614285D01*
X146101904Y-91471428D01*
X146054285Y-91376190D01*
X146054285Y-91280952D01*
X146292380Y-91328571D02*
X146244761Y-91233333D01*
X146149523Y-91138095D01*
X145959047Y-91090476D01*
X145625714Y-91090476D01*
X145435238Y-91138095D01*
X145340000Y-91233333D01*
X145292380Y-91328571D01*
X145292380Y-91519047D01*
X145340000Y-91614285D01*
X145435238Y-91709523D01*
X145625714Y-91757142D01*
X145959047Y-91757142D01*
X146149523Y-91709523D01*
X146244761Y-91614285D01*
X146292380Y-91519047D01*
X146292380Y-91328571D01*
X145387619Y-92138095D02*
X145340000Y-92185714D01*
X145292380Y-92280952D01*
X145292380Y-92519047D01*
X145340000Y-92614285D01*
X145387619Y-92661904D01*
X145482857Y-92709523D01*
X145578095Y-92709523D01*
X145720952Y-92661904D01*
X146292380Y-92090476D01*
X146292380Y-92709523D01*
X146447619Y-103099761D02*
X146400000Y-103004523D01*
X146304761Y-102909285D01*
X146161904Y-102766428D01*
X146114285Y-102671190D01*
X146114285Y-102575952D01*
X146352380Y-102623571D02*
X146304761Y-102528333D01*
X146209523Y-102433095D01*
X146019047Y-102385476D01*
X145685714Y-102385476D01*
X145495238Y-102433095D01*
X145400000Y-102528333D01*
X145352380Y-102623571D01*
X145352380Y-102814047D01*
X145400000Y-102909285D01*
X145495238Y-103004523D01*
X145685714Y-103052142D01*
X146019047Y-103052142D01*
X146209523Y-103004523D01*
X146304761Y-102909285D01*
X146352380Y-102814047D01*
X146352380Y-102623571D01*
X146352380Y-104004523D02*
X146352380Y-103433095D01*
X146352380Y-103718809D02*
X145352380Y-103718809D01*
X145495238Y-103623571D01*
X145590476Y-103528333D01*
X145638095Y-103433095D01*
X129333333Y-87002380D02*
X129333333Y-87716666D01*
X129380952Y-87859523D01*
X129476190Y-87954761D01*
X129619047Y-88002380D01*
X129714285Y-88002380D01*
X128904761Y-87097619D02*
X128857142Y-87050000D01*
X128761904Y-87002380D01*
X128523809Y-87002380D01*
X128428571Y-87050000D01*
X128380952Y-87097619D01*
X128333333Y-87192857D01*
X128333333Y-87288095D01*
X128380952Y-87430952D01*
X128952380Y-88002380D01*
X128333333Y-88002380D01*
D15*
X129539761Y-107874523D02*
X129539761Y-106604523D01*
X128209285Y-107753571D02*
X128269761Y-107814047D01*
X128451190Y-107874523D01*
X128572142Y-107874523D01*
X128753571Y-107814047D01*
X128874523Y-107693095D01*
X128935000Y-107572142D01*
X128995476Y-107330238D01*
X128995476Y-107148809D01*
X128935000Y-106906904D01*
X128874523Y-106785952D01*
X128753571Y-106665000D01*
X128572142Y-106604523D01*
X128451190Y-106604523D01*
X128269761Y-106665000D01*
X128209285Y-106725476D01*
X126999761Y-107874523D02*
X127725476Y-107874523D01*
X127362619Y-107874523D02*
X127362619Y-106604523D01*
X127483571Y-106785952D01*
X127604523Y-106906904D01*
X127725476Y-106967380D01*
D14*
X134107142Y-113895333D02*
X134154761Y-113847714D01*
X134202380Y-113704857D01*
X134202380Y-113609619D01*
X134154761Y-113466761D01*
X134059523Y-113371523D01*
X133964285Y-113323904D01*
X133773809Y-113276285D01*
X133630952Y-113276285D01*
X133440476Y-113323904D01*
X133345238Y-113371523D01*
X133250000Y-113466761D01*
X133202380Y-113609619D01*
X133202380Y-113704857D01*
X133250000Y-113847714D01*
X133297619Y-113895333D01*
X133202380Y-114752476D02*
X133202380Y-114562000D01*
X133250000Y-114466761D01*
X133297619Y-114419142D01*
X133440476Y-114323904D01*
X133630952Y-114276285D01*
X134011904Y-114276285D01*
X134107142Y-114323904D01*
X134154761Y-114371523D01*
X134202380Y-114466761D01*
X134202380Y-114657238D01*
X134154761Y-114752476D01*
X134107142Y-114800095D01*
X134011904Y-114847714D01*
X133773809Y-114847714D01*
X133678571Y-114800095D01*
X133630952Y-114752476D01*
X133583333Y-114657238D01*
X133583333Y-114466761D01*
X133630952Y-114371523D01*
X133678571Y-114323904D01*
X133773809Y-114276285D01*
X126866666Y-120507142D02*
X126914285Y-120554761D01*
X127057142Y-120602380D01*
X127152380Y-120602380D01*
X127295238Y-120554761D01*
X127390476Y-120459523D01*
X127438095Y-120364285D01*
X127485714Y-120173809D01*
X127485714Y-120030952D01*
X127438095Y-119840476D01*
X127390476Y-119745238D01*
X127295238Y-119650000D01*
X127152380Y-119602380D01*
X127057142Y-119602380D01*
X126914285Y-119650000D01*
X126866666Y-119697619D01*
X125961904Y-119602380D02*
X126438095Y-119602380D01*
X126485714Y-120078571D01*
X126438095Y-120030952D01*
X126342857Y-119983333D01*
X126104761Y-119983333D01*
X126009523Y-120030952D01*
X125961904Y-120078571D01*
X125914285Y-120173809D01*
X125914285Y-120411904D01*
X125961904Y-120507142D01*
X126009523Y-120554761D01*
X126104761Y-120602380D01*
X126342857Y-120602380D01*
X126438095Y-120554761D01*
X126485714Y-120507142D01*
X127404666Y-101307142D02*
X127452285Y-101354761D01*
X127595142Y-101402380D01*
X127690380Y-101402380D01*
X127833238Y-101354761D01*
X127928476Y-101259523D01*
X127976095Y-101164285D01*
X128023714Y-100973809D01*
X128023714Y-100830952D01*
X127976095Y-100640476D01*
X127928476Y-100545238D01*
X127833238Y-100450000D01*
X127690380Y-100402380D01*
X127595142Y-100402380D01*
X127452285Y-100450000D01*
X127404666Y-100497619D01*
X126547523Y-100735714D02*
X126547523Y-101402380D01*
X126785619Y-100354761D02*
X127023714Y-101069047D01*
X126404666Y-101069047D01*
M02*
