M48
; DRILL file {KiCad (5.1.5)-3} date 2020/03/05 2:40:22
; FORMAT={-:-/ absolute / metric / decimal}
; #@! TF.CreationDate,2020-03-05T02:40:22+09:00
; #@! TF.GenerationSoftware,Kicad,Pcbnew,(5.1.5)-3
FMAT,2
METRIC
T1C0.300
T2C0.400
T3C0.850
T4C0.950
T5C1.000
%
G90
G05
T1
X126.0Y-111.1
X126.02Y-123.512
X126.1Y-48.0
X126.1Y-71.7
X126.15Y-115.7
X126.2Y-113.0
X126.25Y-112.0
X126.9Y-94.5
X127.1Y-41.0
X127.1Y-97.4
X127.2Y-120.8
X127.3Y-101.5
X127.4Y-104.5
X128.2Y-90.4
X128.5Y-87.0
X128.95Y-123.15
X129.1Y-56.0
X129.8Y-78.0
X130.0Y-81.0
X130.3Y-104.1
X130.7Y-120.2
X130.9Y-117.0
X131.7Y-88.2
X132.3Y-106.6
X132.7Y-122.9
X133.1Y-42.5
X133.3Y-111.3
X133.6Y-50.0
X133.6Y-53.6
X133.675Y-87.275
X134.1Y-67.6
X134.4Y-45.0
X134.5Y-103.4
X134.6Y-74.7
X134.7Y-59.5
X134.7Y-70.7
X135.5Y-122.9
X135.655Y-117.16
X136.0Y-111.2
X136.2Y-102.0
X136.4Y-87.2
X137.0Y-71.6
X137.1Y-56.0
X137.3Y-103.2
X137.7Y-67.6
X137.8Y-61.7
X139.0Y-87.4
X139.2Y-90.6
X139.7Y-122.9
X139.9Y-84.7
X139.9Y-111.2
X140.1Y-118.5
X140.3Y-106.3
X141.1Y-78.0
X141.7Y-90.6
X141.7Y-111.0
X141.8Y-108.2
X142.0Y-86.6
X142.2Y-66.4
X142.5Y-120.8
X143.0Y-116.0
X143.3Y-74.8
X143.6Y-50.0
X143.6Y-59.5
X143.6Y-70.4
X144.1Y-41.0
X144.2Y-113.8
X144.7Y-46.4
X144.9Y-95.3
X145.3Y-99.9
X145.7Y-71.6
X146.0Y-106.0
X146.1Y-109.8
X146.7Y-86.1
X147.0Y-95.2
X147.0Y-113.7
X147.0Y-116.1
X147.1Y-62.0
X147.1Y-91.2
X147.5Y-120.8
X147.6Y-66.4
X147.74Y-59.35
X148.1Y-56.0
X148.6Y-118.4
X149.5Y-115.7
X149.7Y-53.7
X150.4Y-66.9
X150.5Y-88.4
X151.1Y-41.0
X151.1Y-121.0
X152.0Y-97.4
X152.0Y-107.0
X152.35Y-74.8
X152.5Y-59.5
X152.5Y-61.85
X152.5Y-70.5
X152.5Y-82.0
X153.0Y-112.7
X153.1Y-56.0
X153.3Y-85.4
X153.3Y-117.5
X155.1Y-50.0
X156.0Y-66.9
X156.5Y-46.8
X156.63Y-59.35
X156.7Y-88.4
X156.9Y-85.3
X156.9Y-100.5
X157.1Y-116.9
X157.1Y-121.1
X157.7Y-62.5
X158.1Y-41.0
X158.5Y-53.7
X158.6Y-78.0
X159.6Y-69.8
X161.3Y-59.5
X161.3Y-74.8
X161.4Y-71.9
X161.5Y-99.5
X161.9Y-90.1
X162.2Y-103.15
X162.5Y-82.0
X162.5Y-110.0
X162.5Y-118.0
X162.5Y-120.8
X162.8Y-88.2
X163.6Y-67.5
X164.1Y-46.5
X164.7Y-62.5
X165.1Y-41.0
X165.1Y-50.0
X165.1Y-57.0
X165.5Y-71.7
X165.52Y-59.35
X165.8Y-88.3
X165.8Y-100.5
X165.9Y-85.2
X170.2Y-74.8
X170.3Y-59.5
X170.3Y-71.7
X170.58Y-100.65
X170.6Y-88.3
X171.0Y-103.0
X171.0Y-110.0
X171.0Y-119.0
X171.4Y-97.5
X172.0Y-113.5
X172.5Y-92.5
X173.3Y-71.8
X173.6Y-39.2
X173.6Y-42.0
X173.6Y-50.0
X173.6Y-78.0
X173.9Y-56.85
X174.2Y-69.9
X174.6Y-60.5
X174.7Y-88.1
X174.8Y-85.2
X174.8Y-100.5
X176.5Y-90.2
X177.5Y-82.0
X177.6Y-106.3
X178.0Y-119.0
X178.4Y-97.5
X179.0Y-38.9
X179.0Y-43.1
X179.2Y-59.5
X179.2Y-74.7
X179.4Y-71.6
X179.47Y-100.65
X179.6Y-113.2
X180.1Y-93.1
X181.0Y-110.0
X182.8Y-42.5
X182.8Y-74.6
X183.0Y-104.0
X183.1Y-47.3
X183.6Y-78.0
X183.6Y-89.5
X183.6Y-98.15
X183.6Y-100.5
X183.75Y-85.2
X184.1Y-53.0
X184.1Y-62.6
X185.0Y-39.0
X185.0Y-119.0
X185.6Y-71.6
X185.7Y-93.1
X186.4Y-106.3
X186.6Y-44.3
X187.5Y-41.6
X188.0Y-104.0
X188.36Y-100.65
X188.5Y-93.6
X188.6Y-39.2
X189.0Y-68.8
X189.0Y-98.0
X189.1Y-43.9
X189.1Y-46.3
X189.1Y-64.8
X189.4Y-73.9
X190.0Y-50.2
X190.1Y-54.0
X190.4Y-88.4
X190.8Y-60.1
X191.2Y-64.7
X191.4Y-113.6
X191.9Y-46.2
X192.0Y-119.0
X192.5Y-89.6
X192.5Y-100.5
X192.5Y-110.0
X192.8Y-85.2
X193.1Y-44.0
X193.6Y-39.2
X193.9Y-93.6
X194.1Y-73.4
X194.3Y-51.8
X194.4Y-49.0
X194.4Y-69.4
X195.0Y-82.0
X195.8Y-53.7
X196.0Y-41.5
X196.2Y-48.8
X196.2Y-75.3
X196.4Y-37.1
X196.9Y-69.4
X197.1Y-72.6
X198.3Y-98.3
X198.4Y-92.4
X198.8Y-56.8
X199.0Y-104.0
X199.1Y-88.4
X199.7Y-72.8
X199.9Y-58.0
X200.1Y-48.8
X200.445Y-42.84
X200.6Y-37.1
X201.4Y-89.3
X201.4Y-100.5
X201.5Y-85.3
X201.6Y-56.6
X201.7Y-115.0
X202.0Y-92.4
X202.425Y-72.725
X202.5Y-106.4
X202.5Y-110.0
X202.8Y-48.7
X203.0Y-117.5
X203.4Y-37.1
X203.8Y-53.4
X204.4Y-71.8
X205.2Y-43.0
X205.4Y-39.8
X205.8Y-55.9
X206.1Y-79.0
X206.3Y-82.0
X207.0Y-104.0
X207.15Y-36.85
X207.6Y-73.0
X207.9Y-69.6
X208.7Y-55.5
X208.8Y-58.5
X208.9Y-39.2
X209.0Y-62.6
X209.0Y-119.0
X209.2Y-65.5
X209.85Y-48.0
X209.9Y-47.0
X209.95Y-44.3
X210.0Y-88.3
X210.0Y-112.0
X210.08Y-36.488
X210.1Y-48.9
T2
X126.9Y-92.3
X127.1Y-63.0
X129.2Y-94.6
X129.9Y-95.4
X131.152Y-101.014
X131.7Y-94.0
X131.718Y-95.024
X131.9Y-120.3
X132.5Y-97.8
X133.0Y-96.0
X133.1Y-93.0
X133.222Y-96.975
X133.538Y-121.64
X134.3Y-105.3
X134.67Y-96.137
X137.9Y-90.5
X138.1Y-63.6
X139.5Y-63.6
X140.1Y-93.8
X140.5Y-95.1
X140.7Y-63.6
X141.8Y-95.9
X150.188Y-92.628
X150.823Y-102.519
X150.895Y-101.285
X151.297Y-92.628
X151.723Y-102.957
X151.864Y-101.586
X152.567Y-92.628
X152.59Y-103.587
X153.009Y-102.413
X183.091Y-57.587
X183.51Y-56.413
X183.533Y-67.372
X184.236Y-58.414
X184.377Y-57.043
X184.803Y-67.372
X185.205Y-58.715
X185.277Y-57.481
X185.912Y-67.372
X194.3Y-64.1
X195.4Y-96.4
X195.6Y-64.9
X196.0Y-66.2
X196.6Y-96.4
X198.0Y-96.4
X198.2Y-69.5
X201.43Y-63.863
X201.8Y-54.7
X202.562Y-38.36
X202.878Y-63.025
X203.0Y-67.0
X203.1Y-64.0
X203.6Y-62.2
X204.2Y-39.7
X204.382Y-64.976
X204.4Y-66.0
X204.948Y-58.986
X206.2Y-64.6
X206.9Y-65.4
X209.0Y-97.0
X209.2Y-67.7
T3
X198.065Y-76.0
X200.565Y-76.0
X203.065Y-76.0
X205.565Y-76.0
X208.065Y-76.0
X128.035Y-84.0
X130.535Y-84.0
X133.035Y-84.0
X135.535Y-84.0
X138.035Y-84.0
T4
X142.68Y-84.14
X145.18Y-84.14
X147.68Y-84.14
X188.42Y-75.86
X190.92Y-75.86
X193.42Y-75.86
T5
X158.13Y-45.38
X158.13Y-47.88
X173.12Y-99.42
X173.12Y-101.92
X145.2Y-73.32
X145.2Y-75.82
X169.08Y-112.12
X169.08Y-114.62
X127.42Y-73.32
X127.42Y-75.82
X199.79Y-84.18
X199.79Y-86.68
X171.87Y-73.32
X171.87Y-75.82
X186.86Y-112.12
X186.86Y-114.62
X190.9Y-99.42
X190.9Y-101.92
X136.31Y-73.32
X136.31Y-75.82
X127.42Y-58.08
X127.42Y-60.58
X173.12Y-84.18
X173.12Y-86.68
X136.31Y-58.08
X136.31Y-60.58
X182.01Y-99.42
X182.01Y-101.92
X190.9Y-84.18
X190.9Y-86.68
X164.23Y-84.18
X164.23Y-86.68
X155.34Y-99.42
X155.34Y-101.92
X162.98Y-73.32
X162.98Y-75.82
X154.09Y-58.08
X154.09Y-60.58
X164.23Y-99.42
X164.23Y-101.92
X199.79Y-99.42
X199.79Y-101.92
X208.68Y-99.42
X208.68Y-101.92
X177.97Y-112.12
X177.97Y-114.62
X180.76Y-73.32
X180.76Y-75.82
X182.01Y-84.18
X182.01Y-86.68
X180.76Y-58.08
X180.76Y-60.58
X171.87Y-58.08
X171.87Y-60.58
X145.2Y-58.08
X145.2Y-60.58
X162.98Y-58.08
X162.98Y-60.58
X208.68Y-84.18
X208.68Y-86.68
X154.09Y-73.32
X154.09Y-75.82
X149.24Y-45.38
X149.24Y-47.88
X167.02Y-45.38
X167.02Y-47.88
X155.34Y-84.18
X155.34Y-86.68
T0
M30
