M48
; DRILL file {KiCad (5.1.6)-1} date 06/21/20 16:44:56
; FORMAT={-:-/ absolute / metric / decimal}
; #@! TF.CreationDate,2020-06-21T16:44:56+09:00
; #@! TF.GenerationSoftware,Kicad,Pcbnew,(5.1.6)-1
; #@! TF.FileFunction,Plated,1,2,PTH
FMAT,2
METRIC
T1C0.300
T2C0.400
T3C0.800
T4C1.000
%
G90
G05
T1
X121.2Y-35.9
X121.2Y-51.1
X121.2Y-66.5
X121.3Y-83.4
X121.3Y-99.8
X121.3Y-114.4
X121.4Y-91.0
X121.7Y-96.6
X122.0Y-106.9
X122.0Y-122.4
X122.4Y-87.0
X122.5Y-101.5
X123.0Y-121.9
X123.3Y-90.9
X123.4Y-114.3
X124.6Y-107.5
X124.8Y-59.1
X125.6Y-42.5
X126.2Y-74.9
X126.3Y-98.7
X127.5Y-99.7
X127.6Y-35.9
X127.6Y-41.1
X127.6Y-47.3
X127.6Y-78.5
X127.6Y-93.2
X127.8Y-56.3
X127.8Y-62.7
X128.0Y-71.7
X128.4Y-123.0
X129.3Y-87.0
X129.5Y-97.9
X129.8Y-44.3
X130.0Y-106.4
X130.2Y-74.9
X130.3Y-59.6
X130.3Y-95.5
X130.5Y-116.5
X130.6Y-123.0
X130.8Y-57.1
X130.8Y-72.3
X130.8Y-120.6
X130.9Y-104.2
X132.0Y-82.8
X132.4Y-80.4
X132.4Y-89.4
X132.4Y-106.4
X132.6Y-48.7
X132.9Y-114.6
X133.0Y-109.6
X133.8Y-66.1
X133.9Y-85.0
X134.0Y-50.9
X134.0Y-97.1
X134.4Y-117.4
X134.6Y-123.0
X134.8Y-44.5
X134.8Y-99.2
X135.0Y-59.7
X135.0Y-74.9
X135.29Y-53.17
X135.29Y-68.41
X135.8Y-95.1
X135.8Y-121.0
X136.0Y-85.2
X136.4Y-35.9
X136.4Y-41.3
X136.56Y-55.71
X136.56Y-70.95
X136.6Y-62.7
X136.6Y-78.5
X136.8Y-89.6
X137.4Y-101.8
X137.6Y-99.2
X137.8Y-97.1
X137.9Y-83.7
X138.2Y-48.7
X138.4Y-44.3
X139.1Y-59.7
X139.1Y-68.41
X139.1Y-74.9
X139.6Y-57.1
X139.6Y-72.3
X140.0Y-47.5
X140.37Y-53.17
X140.5Y-83.7
X140.5Y-123.0
X141.0Y-115.6
X141.1Y-119.5
X141.6Y-90.8
X141.6Y-95.2
X141.6Y-100.4
X141.6Y-106.2
X142.0Y-117.4
X142.2Y-113.8
X142.91Y-54.44
X142.91Y-69.68
X143.8Y-44.3
X144.0Y-59.7
X144.0Y-74.9
X144.4Y-100.4
X144.8Y-80.4
X145.4Y-35.9
X145.4Y-41.3
X145.4Y-50.9
X145.4Y-62.7
X145.4Y-66.1
X145.4Y-78.5
X145.45Y-55.71
X145.45Y-70.95
X145.8Y-47.5
X146.4Y-115.4
X146.5Y-120.6
X146.6Y-90.6
X147.2Y-44.3
X147.6Y-101.6
X147.99Y-54.44
X147.99Y-69.68
X148.0Y-46.5
X148.0Y-59.7
X148.0Y-74.9
X148.0Y-108.0
X148.6Y-57.1
X149.8Y-119.5
X150.2Y-87.0
X151.0Y-103.0
X152.6Y-44.3
X152.6Y-46.5
X152.8Y-59.7
X152.8Y-74.9
X152.8Y-80.4
X152.8Y-92.8
X152.8Y-96.4
X153.0Y-87.0
X154.2Y-35.9
X154.2Y-41.3
X154.2Y-116.0
X154.34Y-55.71
X154.34Y-70.95
X154.4Y-62.7
X154.4Y-66.1
X154.4Y-78.5
X154.4Y-84.0
X154.4Y-99.2
X154.7Y-120.3
X154.7Y-122.9
X156.0Y-44.3
X156.2Y-45.7
X156.4Y-50.9
X156.9Y-59.7
X156.9Y-74.9
X157.2Y-120.6
X157.2Y-123.0
X157.4Y-57.1
X157.4Y-72.3
X158.0Y-108.0
X158.8Y-86.6
X158.8Y-101.8
X159.2Y-84.0
X159.2Y-99.2
X159.8Y-116.0
X161.6Y-44.3
X161.6Y-59.7
X161.6Y-92.8
X161.6Y-96.4
X161.77Y-87.95
X161.77Y-103.19
X161.8Y-74.9
X161.8Y-80.4
X161.8Y-117.8
X161.8Y-123.0
X163.2Y-35.9
X163.2Y-41.1
X163.2Y-78.5
X163.2Y-84.0
X163.23Y-55.71
X163.23Y-70.95
X163.4Y-62.5
X163.4Y-66.1
X163.4Y-99.2
X163.4Y-114.6
X165.2Y-42.9
X165.8Y-59.7
X165.8Y-74.9
X166.2Y-57.1
X166.2Y-72.3
X167.0Y-50.9
X167.6Y-86.6
X167.6Y-101.8
X167.8Y-35.9
X167.8Y-38.3
X168.1Y-84.0
X168.1Y-99.2
X168.6Y-108.0
X168.8Y-113.2
X169.0Y-114.6
X170.3Y-36.0
X170.3Y-38.6
X170.6Y-59.7
X170.6Y-74.9
X170.6Y-80.4
X170.6Y-92.8
X170.6Y-96.2
X170.66Y-87.95
X170.66Y-103.19
X170.8Y-42.9
X170.8Y-117.6
X170.8Y-123.0
X172.0Y-71.9
X172.2Y-62.5
X172.2Y-66.1
X172.2Y-78.5
X172.2Y-84.0
X172.2Y-99.2
X172.4Y-112.4
X172.4Y-114.6
X174.0Y-55.9
X174.8Y-71.9
X175.2Y-39.4
X176.4Y-101.8
X177.0Y-50.9
X177.0Y-84.0
X177.0Y-99.2
X177.0Y-112.4
X177.01Y-89.22
X177.01Y-104.46
X177.4Y-57.3
X177.8Y-114.6
X178.4Y-68.3
X178.5Y-38.3
X178.6Y-43.5
X179.2Y-111.4
X179.55Y-87.95
X179.55Y-103.19
X179.6Y-80.4
X179.6Y-92.8
X179.6Y-96.2
X179.6Y-108.0
X179.6Y-117.6
X179.6Y-123.0
X180.2Y-78.5
X180.6Y-58.5
X181.0Y-84.0
X181.0Y-99.2
X181.2Y-114.6
X182.09Y-89.22
X182.09Y-104.46
X182.8Y-45.1
X183.0Y-41.5
X183.4Y-52.7
X183.4Y-58.5
X183.4Y-63.7
X183.4Y-68.1
X183.9Y-39.4
X184.0Y-43.3
X184.5Y-35.9
X184.5Y-75.2
X184.63Y-105.73
X185.0Y-111.4
X185.4Y-86.6
X185.4Y-101.8
X185.9Y-84.0
X185.9Y-90.49
X185.9Y-99.2
X186.6Y-114.6
X186.8Y-110.2
X187.1Y-75.2
X187.2Y-61.8
X187.4Y-59.7
X187.6Y-57.1
X188.2Y-69.3
X188.4Y-80.4
X188.4Y-96.2
X188.44Y-87.95
X188.44Y-103.19
X188.6Y-117.6
X188.6Y-123.0
X189.0Y-73.7
X189.2Y-37.9
X189.2Y-63.8
X189.71Y-90.49
X189.71Y-105.73
X190.0Y-84.0
X190.0Y-99.2
X190.2Y-59.7
X190.2Y-114.4
X190.4Y-35.9
X190.6Y-41.5
X191.0Y-61.8
X191.0Y-108.0
X191.1Y-73.9
X191.2Y-92.8
X192.0Y-49.3
X192.1Y-44.3
X192.4Y-110.2
X192.6Y-52.5
X192.6Y-69.5
X192.6Y-78.5
X193.0Y-76.1
X194.1Y-54.7
X194.2Y-38.3
X194.2Y-86.6
X194.2Y-101.8
X194.4Y-35.9
X194.5Y-42.4
X194.7Y-63.4
X194.7Y-99.3
X194.8Y-84.0
X195.0Y-52.5
X195.2Y-114.6
X195.5Y-61.0
X195.7Y-71.9
X196.6Y-35.9
X197.0Y-87.2
X197.2Y-96.2
X197.2Y-102.6
X197.4Y-65.7
X197.4Y-80.4
X197.4Y-111.6
X197.4Y-117.8
X197.4Y-123.0
X197.5Y-59.2
X198.7Y-60.2
X198.8Y-84.0
X199.4Y-116.4
X200.2Y-99.8
X200.4Y-51.4
X201.6Y-44.6
X201.7Y-68.0
X202.0Y-37.0
X202.5Y-57.4
X202.6Y-71.9
X203.0Y-36.5
X203.0Y-52.0
X203.3Y-62.3
X203.6Y-67.9
X203.7Y-44.5
X203.7Y-59.1
X203.7Y-75.5
X203.8Y-92.4
X203.8Y-107.8
X203.8Y-123.0
T2
X123.5Y-105.5
X123.503Y-108.701
X124.6Y-104.7
X124.8Y-96.275
X124.988Y-95.218
X125.035Y-103.549
X125.76Y-102.4
X126.1Y-109.6
X126.6Y-94.1
X127.1Y-95.2
X127.6Y-96.5
X127.9Y-91.325
X128.6Y-114.9
X129.2Y-94.4
X129.2Y-110.7
X133.7Y-89.775
X134.3Y-94.1
X142.3Y-116.1
X143.3Y-117.9
X151.3Y-119.0
X173.7Y-39.9
X181.7Y-41.0
X182.7Y-42.8
X190.7Y-64.8
X191.3Y-69.125
X195.8Y-48.2
X195.8Y-64.5
X196.4Y-44.0
X197.1Y-67.575
X197.4Y-62.4
X197.9Y-63.7
X198.4Y-64.8
X198.9Y-49.3
X199.24Y-56.5
X199.965Y-55.351
X200.012Y-63.682
X200.2Y-62.625
X200.4Y-54.2
X201.497Y-50.199
X201.5Y-53.4
T3
X123.0Y-81.7
X123.0Y-89.32
X125.54Y-81.7
X125.54Y-89.32
X128.08Y-81.7
X128.08Y-89.32
X130.62Y-81.7
X130.62Y-89.32
X194.38Y-69.58
X194.38Y-77.2
X196.92Y-69.58
X196.92Y-77.2
X199.46Y-69.58
X199.46Y-77.2
X202.0Y-69.58
X202.0Y-77.2
T4
X181.5Y-76.9
X184.04Y-76.9
X186.58Y-76.9
X161.77Y-82.87
X161.77Y-85.37
X197.33Y-82.91
X197.33Y-85.41
X179.84Y-71.9
X182.38Y-71.9
X184.92Y-71.9
X187.46Y-71.9
X190.0Y-71.9
X161.77Y-113.35
X161.77Y-115.85
X188.44Y-82.87
X188.44Y-85.37
X154.34Y-73.53
X154.34Y-76.03
X145.45Y-58.29
X145.45Y-60.79
X172.12Y-73.53
X172.12Y-76.03
X179.55Y-113.35
X179.55Y-115.85
X127.67Y-58.29
X127.67Y-60.79
X197.33Y-98.11
X197.33Y-100.61
X163.23Y-58.29
X163.23Y-60.79
X170.66Y-113.35
X170.66Y-115.85
X172.12Y-58.29
X172.12Y-60.79
X127.67Y-73.49
X127.67Y-75.99
X136.56Y-43.05
X136.56Y-45.55
X138.42Y-82.0
X140.96Y-82.0
X143.5Y-82.0
X145.45Y-43.05
X145.45Y-45.55
X145.45Y-73.53
X145.45Y-76.03
X197.33Y-113.39
X197.33Y-115.89
X127.67Y-43.01
X127.67Y-45.51
X152.88Y-82.87
X152.88Y-85.37
X161.77Y-98.11
X161.77Y-100.61
X136.56Y-73.53
X136.56Y-76.03
X136.56Y-58.29
X136.56Y-60.79
X188.44Y-98.11
X188.44Y-100.61
X163.23Y-73.53
X163.23Y-76.03
X170.66Y-98.11
X170.66Y-100.61
X163.23Y-43.05
X163.23Y-45.55
X188.44Y-113.35
X188.44Y-115.85
X179.55Y-82.87
X179.55Y-85.37
X179.55Y-98.11
X179.55Y-100.61
X154.34Y-58.29
X154.34Y-60.79
X135.0Y-87.0
X137.54Y-87.0
X140.08Y-87.0
X142.62Y-87.0
X145.16Y-87.0
X152.88Y-98.11
X152.88Y-100.61
X154.34Y-43.05
X154.34Y-45.55
X170.66Y-82.87
X170.66Y-85.37
T0
M30
