%TF.GenerationSoftware,KiCad,Pcbnew,(5.1.6)-1*%
%TF.CreationDate,2020-06-21T16:44:56+09:00*%
%TF.ProjectId,Solenoid_Valve-fin,536f6c65-6e6f-4696-945f-56616c76652d,rev?*%
%TF.SameCoordinates,Original*%
%TF.FileFunction,Profile,NP*%
%FSLAX46Y46*%
G04 Gerber Fmt 4.6, Leading zero omitted, Abs format (unit mm)*
G04 Created by KiCad (PCBNEW (5.1.6)-1) date 2020-06-21 16:44:56*
%MOMM*%
%LPD*%
G01*
G04 APERTURE LIST*
%TA.AperFunction,Profile*%
%ADD10C,0.100000*%
%TD*%
G04 APERTURE END LIST*
D10*
X204650000Y-37850000D02*
X204650000Y-75450000D01*
X204650000Y-75450000D02*
G75*
G02*
X200650000Y-79450000I-4000000J0D01*
G01*
X124350000Y-79450000D02*
G75*
G02*
X120350000Y-75450000I0J4000000D01*
G01*
X120350000Y-37850000D02*
X120350000Y-75450000D01*
X200650000Y-79450000D02*
G75*
G02*
X204650000Y-83450000I0J-4000000D01*
G01*
X120350000Y-83450000D02*
G75*
G02*
X124350000Y-79450000I4000000J0D01*
G01*
X204650000Y-121050000D02*
X204650000Y-83450000D01*
X120350000Y-121050000D02*
X120350000Y-83450000D01*
%TO.C,J20*%
X193450000Y-36900000D02*
X193450000Y-29950000D01*
X191550000Y-36900000D02*
X191550000Y-29950000D01*
X204650000Y-37850000D02*
X204650000Y-29950000D01*
X204150000Y-29450000D02*
X193950000Y-29450000D01*
X120350000Y-37850000D02*
X120350000Y-29950000D01*
X191050000Y-29450000D02*
X120850000Y-29450000D01*
X204650000Y-29950000D02*
X204150000Y-29450000D01*
X193450000Y-29950000D02*
X193950000Y-29450000D01*
X191550000Y-29950000D02*
X191050000Y-29450000D01*
X120350000Y-29950000D02*
X120850000Y-29450000D01*
X193450000Y-36900000D02*
G75*
G02*
X191550000Y-36900000I-950000J0D01*
G01*
X204650000Y-128950000D02*
X204150000Y-129450000D01*
X133450000Y-128950000D02*
X133950000Y-129450000D01*
X131550000Y-128950000D02*
X131050000Y-129450000D01*
X120350000Y-128950000D02*
X120850000Y-129450000D01*
X133950000Y-129450000D02*
X204150000Y-129450000D01*
X204650000Y-121050000D02*
X204650000Y-128950000D01*
X120850000Y-129450000D02*
X131050000Y-129450000D01*
X120350000Y-121050000D02*
X120350000Y-128950000D01*
X133450000Y-122000000D02*
X133450000Y-128950000D01*
X131550000Y-122000000D02*
X131550000Y-128950000D01*
X131550000Y-122000000D02*
G75*
G02*
X133450000Y-122000000I950000J0D01*
G01*
%TD*%
M02*
