G04 #@! TF.GenerationSoftware,KiCad,Pcbnew,(5.1.5)-3*
G04 #@! TF.CreationDate,2020-03-05T02:40:21+09:00*
G04 #@! TF.ProjectId,Solenoid_Valve-fin,536f6c65-6e6f-4696-945f-56616c76652d,rev?*
G04 #@! TF.SameCoordinates,Original*
G04 #@! TF.FileFunction,Soldermask,Top*
G04 #@! TF.FilePolarity,Negative*
%FSLAX46Y46*%
G04 Gerber Fmt 4.6, Leading zero omitted, Abs format (unit mm)*
G04 Created by KiCad (PCBNEW (5.1.5)-3) date 2020-03-05 02:40:21*
%MOMM*%
%LPD*%
G04 APERTURE LIST*
%ADD10C,0.100000*%
G04 APERTURE END LIST*
D10*
X125150000Y-76500000D02*
X125150000Y-39500000D01*
X210750000Y-76500000D02*
G75*
G02X207250000Y-80000000I-3500000J0D01*
G01*
X210750000Y-38950000D02*
X210750000Y-76500000D01*
X126450000Y-38950000D02*
X126450000Y-39500000D01*
X126450000Y-39500000D02*
X125150000Y-39500000D01*
X128650000Y-80000000D02*
G75*
G02X125150000Y-76500000I0J3500000D01*
G01*
X209650000Y-120500000D02*
X210950000Y-120500000D01*
X209650000Y-121050000D02*
X209650000Y-120500000D01*
X125350000Y-121050000D02*
X125350000Y-83500000D01*
X125350000Y-83500000D02*
G75*
G02X128850000Y-80000000I3500000J0D01*
G01*
X207450000Y-80000000D02*
G75*
G02X210950000Y-83500000I0J-3500000D01*
G01*
X210950000Y-83500000D02*
X210950000Y-120500000D01*
G36*
X209401000Y-128201000D02*
G01*
X208599000Y-128201000D01*
X208599000Y-127225999D01*
X208596598Y-127201613D01*
X208589485Y-127178164D01*
X208577934Y-127156553D01*
X208562389Y-127137611D01*
X208543447Y-127122066D01*
X208521836Y-127110515D01*
X208498387Y-127103402D01*
X208474001Y-127101000D01*
X207525999Y-127101000D01*
X207501613Y-127103402D01*
X207478164Y-127110515D01*
X207456553Y-127122066D01*
X207437611Y-127137611D01*
X207422066Y-127156553D01*
X207410515Y-127178164D01*
X207403402Y-127201613D01*
X207401000Y-127225999D01*
X207401000Y-128201000D01*
X138599000Y-128201000D01*
X138599000Y-123799000D01*
X209401000Y-123799000D01*
X209401000Y-128201000D01*
G37*
G36*
X136401000Y-128201000D02*
G01*
X125599000Y-128201000D01*
X125599000Y-123799000D01*
X136401000Y-123799000D01*
X136401000Y-128201000D01*
G37*
G36*
X178878600Y-113722989D02*
G01*
X178911652Y-113733015D01*
X178942103Y-113749292D01*
X178968799Y-113771201D01*
X178990708Y-113797897D01*
X179006985Y-113828348D01*
X179017011Y-113861400D01*
X179021000Y-113901903D01*
X179021000Y-115338097D01*
X179017011Y-115378600D01*
X179006985Y-115411652D01*
X178990708Y-115442103D01*
X178968799Y-115468799D01*
X178942103Y-115490708D01*
X178911652Y-115506985D01*
X178878600Y-115517011D01*
X178838097Y-115521000D01*
X177101903Y-115521000D01*
X177061400Y-115517011D01*
X177028348Y-115506985D01*
X176997897Y-115490708D01*
X176971201Y-115468799D01*
X176949292Y-115442103D01*
X176933015Y-115411652D01*
X176922989Y-115378600D01*
X176919000Y-115338097D01*
X176919000Y-113901903D01*
X176922989Y-113861400D01*
X176933015Y-113828348D01*
X176949292Y-113797897D01*
X176971201Y-113771201D01*
X176997897Y-113749292D01*
X177028348Y-113733015D01*
X177061400Y-113722989D01*
X177101903Y-113719000D01*
X178838097Y-113719000D01*
X178878600Y-113722989D01*
G37*
G36*
X169988600Y-113722989D02*
G01*
X170021652Y-113733015D01*
X170052103Y-113749292D01*
X170078799Y-113771201D01*
X170100708Y-113797897D01*
X170116985Y-113828348D01*
X170127011Y-113861400D01*
X170131000Y-113901903D01*
X170131000Y-115338097D01*
X170127011Y-115378600D01*
X170116985Y-115411652D01*
X170100708Y-115442103D01*
X170078799Y-115468799D01*
X170052103Y-115490708D01*
X170021652Y-115506985D01*
X169988600Y-115517011D01*
X169948097Y-115521000D01*
X168211903Y-115521000D01*
X168171400Y-115517011D01*
X168138348Y-115506985D01*
X168107897Y-115490708D01*
X168081201Y-115468799D01*
X168059292Y-115442103D01*
X168043015Y-115411652D01*
X168032989Y-115378600D01*
X168029000Y-115338097D01*
X168029000Y-113901903D01*
X168032989Y-113861400D01*
X168043015Y-113828348D01*
X168059292Y-113797897D01*
X168081201Y-113771201D01*
X168107897Y-113749292D01*
X168138348Y-113733015D01*
X168171400Y-113722989D01*
X168211903Y-113719000D01*
X169948097Y-113719000D01*
X169988600Y-113722989D01*
G37*
G36*
X187768600Y-113722989D02*
G01*
X187801652Y-113733015D01*
X187832103Y-113749292D01*
X187858799Y-113771201D01*
X187880708Y-113797897D01*
X187896985Y-113828348D01*
X187907011Y-113861400D01*
X187911000Y-113901903D01*
X187911000Y-115338097D01*
X187907011Y-115378600D01*
X187896985Y-115411652D01*
X187880708Y-115442103D01*
X187858799Y-115468799D01*
X187832103Y-115490708D01*
X187801652Y-115506985D01*
X187768600Y-115517011D01*
X187728097Y-115521000D01*
X185991903Y-115521000D01*
X185951400Y-115517011D01*
X185918348Y-115506985D01*
X185887897Y-115490708D01*
X185861201Y-115468799D01*
X185839292Y-115442103D01*
X185823015Y-115411652D01*
X185812989Y-115378600D01*
X185809000Y-115338097D01*
X185809000Y-113901903D01*
X185812989Y-113861400D01*
X185823015Y-113828348D01*
X185839292Y-113797897D01*
X185861201Y-113771201D01*
X185887897Y-113749292D01*
X185918348Y-113733015D01*
X185951400Y-113722989D01*
X185991903Y-113719000D01*
X187728097Y-113719000D01*
X187768600Y-113722989D01*
G37*
G36*
X127676674Y-113953465D02*
G01*
X127714367Y-113964899D01*
X127749103Y-113983466D01*
X127779548Y-114008452D01*
X127804534Y-114038897D01*
X127823101Y-114073633D01*
X127834535Y-114111326D01*
X127839000Y-114156661D01*
X127839000Y-115243339D01*
X127834535Y-115288674D01*
X127823101Y-115326367D01*
X127804534Y-115361103D01*
X127779548Y-115391548D01*
X127749103Y-115416534D01*
X127714367Y-115435101D01*
X127676674Y-115446535D01*
X127631339Y-115451000D01*
X126794661Y-115451000D01*
X126749326Y-115446535D01*
X126711633Y-115435101D01*
X126676897Y-115416534D01*
X126646452Y-115391548D01*
X126621466Y-115361103D01*
X126602899Y-115326367D01*
X126591465Y-115288674D01*
X126587000Y-115243339D01*
X126587000Y-114156661D01*
X126591465Y-114111326D01*
X126602899Y-114073633D01*
X126621466Y-114038897D01*
X126646452Y-114008452D01*
X126676897Y-113983466D01*
X126711633Y-113964899D01*
X126749326Y-113953465D01*
X126794661Y-113949000D01*
X127631339Y-113949000D01*
X127676674Y-113953465D01*
G37*
G36*
X129726674Y-113953465D02*
G01*
X129764367Y-113964899D01*
X129799103Y-113983466D01*
X129829548Y-114008452D01*
X129854534Y-114038897D01*
X129873101Y-114073633D01*
X129884535Y-114111326D01*
X129889000Y-114156661D01*
X129889000Y-115243339D01*
X129884535Y-115288674D01*
X129873101Y-115326367D01*
X129854534Y-115361103D01*
X129829548Y-115391548D01*
X129799103Y-115416534D01*
X129764367Y-115435101D01*
X129726674Y-115446535D01*
X129681339Y-115451000D01*
X128844661Y-115451000D01*
X128799326Y-115446535D01*
X128761633Y-115435101D01*
X128726897Y-115416534D01*
X128696452Y-115391548D01*
X128671466Y-115361103D01*
X128652899Y-115326367D01*
X128641465Y-115288674D01*
X128637000Y-115243339D01*
X128637000Y-114156661D01*
X128641465Y-114111326D01*
X128652899Y-114073633D01*
X128671466Y-114038897D01*
X128696452Y-114008452D01*
X128726897Y-113983466D01*
X128761633Y-113964899D01*
X128799326Y-113953465D01*
X128844661Y-113949000D01*
X129681339Y-113949000D01*
X129726674Y-113953465D01*
G37*
G36*
X134226674Y-113953465D02*
G01*
X134264367Y-113964899D01*
X134299103Y-113983466D01*
X134329548Y-114008452D01*
X134354534Y-114038897D01*
X134373101Y-114073633D01*
X134384535Y-114111326D01*
X134389000Y-114156661D01*
X134389000Y-115243339D01*
X134384535Y-115288674D01*
X134373101Y-115326367D01*
X134354534Y-115361103D01*
X134329548Y-115391548D01*
X134299103Y-115416534D01*
X134264367Y-115435101D01*
X134226674Y-115446535D01*
X134181339Y-115451000D01*
X133344661Y-115451000D01*
X133299326Y-115446535D01*
X133261633Y-115435101D01*
X133226897Y-115416534D01*
X133196452Y-115391548D01*
X133171466Y-115361103D01*
X133152899Y-115326367D01*
X133141465Y-115288674D01*
X133137000Y-115243339D01*
X133137000Y-114156661D01*
X133141465Y-114111326D01*
X133152899Y-114073633D01*
X133171466Y-114038897D01*
X133196452Y-114008452D01*
X133226897Y-113983466D01*
X133261633Y-113964899D01*
X133299326Y-113953465D01*
X133344661Y-113949000D01*
X134181339Y-113949000D01*
X134226674Y-113953465D01*
G37*
G36*
X132176674Y-113953465D02*
G01*
X132214367Y-113964899D01*
X132249103Y-113983466D01*
X132279548Y-114008452D01*
X132304534Y-114038897D01*
X132323101Y-114073633D01*
X132334535Y-114111326D01*
X132339000Y-114156661D01*
X132339000Y-115243339D01*
X132334535Y-115288674D01*
X132323101Y-115326367D01*
X132304534Y-115361103D01*
X132279548Y-115391548D01*
X132249103Y-115416534D01*
X132214367Y-115435101D01*
X132176674Y-115446535D01*
X132131339Y-115451000D01*
X131294661Y-115451000D01*
X131249326Y-115446535D01*
X131211633Y-115435101D01*
X131176897Y-115416534D01*
X131146452Y-115391548D01*
X131121466Y-115361103D01*
X131102899Y-115326367D01*
X131091465Y-115288674D01*
X131087000Y-115243339D01*
X131087000Y-114156661D01*
X131091465Y-114111326D01*
X131102899Y-114073633D01*
X131121466Y-114038897D01*
X131146452Y-114008452D01*
X131176897Y-113983466D01*
X131211633Y-113964899D01*
X131249326Y-113953465D01*
X131294661Y-113949000D01*
X132131339Y-113949000D01*
X132176674Y-113953465D01*
G37*
G36*
X178230442Y-111225518D02*
G01*
X178296627Y-111232037D01*
X178466466Y-111283557D01*
X178622991Y-111367222D01*
X178658729Y-111396552D01*
X178760186Y-111479814D01*
X178843448Y-111581271D01*
X178872778Y-111617009D01*
X178956443Y-111773534D01*
X179007963Y-111943373D01*
X179025359Y-112120000D01*
X179007963Y-112296627D01*
X178956443Y-112466466D01*
X178872778Y-112622991D01*
X178843448Y-112658729D01*
X178760186Y-112760186D01*
X178658729Y-112843448D01*
X178622991Y-112872778D01*
X178466466Y-112956443D01*
X178296627Y-113007963D01*
X178230442Y-113014482D01*
X178164260Y-113021000D01*
X177775740Y-113021000D01*
X177709558Y-113014482D01*
X177643373Y-113007963D01*
X177473534Y-112956443D01*
X177317009Y-112872778D01*
X177281271Y-112843448D01*
X177179814Y-112760186D01*
X177096552Y-112658729D01*
X177067222Y-112622991D01*
X176983557Y-112466466D01*
X176932037Y-112296627D01*
X176914641Y-112120000D01*
X176932037Y-111943373D01*
X176983557Y-111773534D01*
X177067222Y-111617009D01*
X177096552Y-111581271D01*
X177179814Y-111479814D01*
X177281271Y-111396552D01*
X177317009Y-111367222D01*
X177473534Y-111283557D01*
X177643373Y-111232037D01*
X177709558Y-111225518D01*
X177775740Y-111219000D01*
X178164260Y-111219000D01*
X178230442Y-111225518D01*
G37*
G36*
X169340442Y-111225518D02*
G01*
X169406627Y-111232037D01*
X169576466Y-111283557D01*
X169732991Y-111367222D01*
X169768729Y-111396552D01*
X169870186Y-111479814D01*
X169953448Y-111581271D01*
X169982778Y-111617009D01*
X170066443Y-111773534D01*
X170117963Y-111943373D01*
X170135359Y-112120000D01*
X170117963Y-112296627D01*
X170066443Y-112466466D01*
X169982778Y-112622991D01*
X169953448Y-112658729D01*
X169870186Y-112760186D01*
X169768729Y-112843448D01*
X169732991Y-112872778D01*
X169576466Y-112956443D01*
X169406627Y-113007963D01*
X169340442Y-113014482D01*
X169274260Y-113021000D01*
X168885740Y-113021000D01*
X168819558Y-113014482D01*
X168753373Y-113007963D01*
X168583534Y-112956443D01*
X168427009Y-112872778D01*
X168391271Y-112843448D01*
X168289814Y-112760186D01*
X168206552Y-112658729D01*
X168177222Y-112622991D01*
X168093557Y-112466466D01*
X168042037Y-112296627D01*
X168024641Y-112120000D01*
X168042037Y-111943373D01*
X168093557Y-111773534D01*
X168177222Y-111617009D01*
X168206552Y-111581271D01*
X168289814Y-111479814D01*
X168391271Y-111396552D01*
X168427009Y-111367222D01*
X168583534Y-111283557D01*
X168753373Y-111232037D01*
X168819558Y-111225518D01*
X168885740Y-111219000D01*
X169274260Y-111219000D01*
X169340442Y-111225518D01*
G37*
G36*
X187120442Y-111225518D02*
G01*
X187186627Y-111232037D01*
X187356466Y-111283557D01*
X187512991Y-111367222D01*
X187548729Y-111396552D01*
X187650186Y-111479814D01*
X187733448Y-111581271D01*
X187762778Y-111617009D01*
X187846443Y-111773534D01*
X187897963Y-111943373D01*
X187915359Y-112120000D01*
X187897963Y-112296627D01*
X187846443Y-112466466D01*
X187762778Y-112622991D01*
X187733448Y-112658729D01*
X187650186Y-112760186D01*
X187548729Y-112843448D01*
X187512991Y-112872778D01*
X187356466Y-112956443D01*
X187186627Y-113007963D01*
X187120442Y-113014482D01*
X187054260Y-113021000D01*
X186665740Y-113021000D01*
X186599558Y-113014482D01*
X186533373Y-113007963D01*
X186363534Y-112956443D01*
X186207009Y-112872778D01*
X186171271Y-112843448D01*
X186069814Y-112760186D01*
X185986552Y-112658729D01*
X185957222Y-112622991D01*
X185873557Y-112466466D01*
X185822037Y-112296627D01*
X185804641Y-112120000D01*
X185822037Y-111943373D01*
X185873557Y-111773534D01*
X185957222Y-111617009D01*
X185986552Y-111581271D01*
X186069814Y-111479814D01*
X186171271Y-111396552D01*
X186207009Y-111367222D01*
X186363534Y-111283557D01*
X186533373Y-111232037D01*
X186599558Y-111225518D01*
X186665740Y-111219000D01*
X187054260Y-111219000D01*
X187120442Y-111225518D01*
G37*
G36*
X149645000Y-111990000D02*
G01*
X147955000Y-111990000D01*
X147955000Y-111250000D01*
X149645000Y-111250000D01*
X149645000Y-111990000D01*
G37*
G36*
X144245000Y-111990000D02*
G01*
X142555000Y-111990000D01*
X142555000Y-111250000D01*
X144245000Y-111250000D01*
X144245000Y-111990000D01*
G37*
G36*
X129451000Y-111751000D02*
G01*
X127349000Y-111751000D01*
X127349000Y-110149000D01*
X129451000Y-110149000D01*
X129451000Y-111751000D01*
G37*
G36*
X149645000Y-110720000D02*
G01*
X147955000Y-110720000D01*
X147955000Y-109980000D01*
X149645000Y-109980000D01*
X149645000Y-110720000D01*
G37*
G36*
X144245000Y-110720000D02*
G01*
X142555000Y-110720000D01*
X142555000Y-109980000D01*
X144245000Y-109980000D01*
X144245000Y-110720000D01*
G37*
G36*
X135751000Y-110601000D02*
G01*
X133649000Y-110601000D01*
X133649000Y-106699000D01*
X135751000Y-106699000D01*
X135751000Y-110601000D01*
G37*
G36*
X129451000Y-109451000D02*
G01*
X127349000Y-109451000D01*
X127349000Y-107849000D01*
X129451000Y-107849000D01*
X129451000Y-109451000D01*
G37*
G36*
X144245000Y-109450000D02*
G01*
X142555000Y-109450000D01*
X142555000Y-108710000D01*
X144245000Y-108710000D01*
X144245000Y-109450000D01*
G37*
G36*
X149645000Y-109450000D02*
G01*
X147955000Y-109450000D01*
X147955000Y-108710000D01*
X149645000Y-108710000D01*
X149645000Y-109450000D01*
G37*
G36*
X144245000Y-108180000D02*
G01*
X142555000Y-108180000D01*
X142555000Y-107440000D01*
X144245000Y-107440000D01*
X144245000Y-108180000D01*
G37*
G36*
X149645000Y-108180000D02*
G01*
X147955000Y-108180000D01*
X147955000Y-107440000D01*
X149645000Y-107440000D01*
X149645000Y-108180000D01*
G37*
G36*
X129451000Y-107151000D02*
G01*
X127349000Y-107151000D01*
X127349000Y-105549000D01*
X129451000Y-105549000D01*
X129451000Y-107151000D01*
G37*
G36*
X149645000Y-106910000D02*
G01*
X147955000Y-106910000D01*
X147955000Y-106170000D01*
X149645000Y-106170000D01*
X149645000Y-106910000D01*
G37*
G36*
X144245000Y-106910000D02*
G01*
X142555000Y-106910000D01*
X142555000Y-106170000D01*
X144245000Y-106170000D01*
X144245000Y-106910000D01*
G37*
G36*
X144245000Y-105640000D02*
G01*
X142555000Y-105640000D01*
X142555000Y-104900000D01*
X144245000Y-104900000D01*
X144245000Y-105640000D01*
G37*
G36*
X149645000Y-105640000D02*
G01*
X147955000Y-105640000D01*
X147955000Y-104900000D01*
X149645000Y-104900000D01*
X149645000Y-105640000D01*
G37*
G36*
X149645000Y-104370000D02*
G01*
X147955000Y-104370000D01*
X147955000Y-103630000D01*
X149645000Y-103630000D01*
X149645000Y-104370000D01*
G37*
G36*
X144245000Y-104370000D02*
G01*
X142555000Y-104370000D01*
X142555000Y-103630000D01*
X144245000Y-103630000D01*
X144245000Y-104370000D01*
G37*
G36*
X149645000Y-103100000D02*
G01*
X147955000Y-103100000D01*
X147955000Y-102360000D01*
X149645000Y-102360000D01*
X149645000Y-103100000D01*
G37*
G36*
X144245000Y-103100000D02*
G01*
X142555000Y-103100000D01*
X142555000Y-102360000D01*
X144245000Y-102360000D01*
X144245000Y-103100000D01*
G37*
G36*
X182918600Y-101022989D02*
G01*
X182951652Y-101033015D01*
X182982103Y-101049292D01*
X183008799Y-101071201D01*
X183030708Y-101097897D01*
X183046985Y-101128348D01*
X183057011Y-101161400D01*
X183061000Y-101201903D01*
X183061000Y-102638097D01*
X183057011Y-102678600D01*
X183046985Y-102711652D01*
X183030708Y-102742103D01*
X183008799Y-102768799D01*
X182982103Y-102790708D01*
X182951652Y-102806985D01*
X182918600Y-102817011D01*
X182878097Y-102821000D01*
X181141903Y-102821000D01*
X181101400Y-102817011D01*
X181068348Y-102806985D01*
X181037897Y-102790708D01*
X181011201Y-102768799D01*
X180989292Y-102742103D01*
X180973015Y-102711652D01*
X180962989Y-102678600D01*
X180959000Y-102638097D01*
X180959000Y-101201903D01*
X180962989Y-101161400D01*
X180973015Y-101128348D01*
X180989292Y-101097897D01*
X181011201Y-101071201D01*
X181037897Y-101049292D01*
X181068348Y-101033015D01*
X181101400Y-101022989D01*
X181141903Y-101019000D01*
X182878097Y-101019000D01*
X182918600Y-101022989D01*
G37*
G36*
X174028600Y-101022989D02*
G01*
X174061652Y-101033015D01*
X174092103Y-101049292D01*
X174118799Y-101071201D01*
X174140708Y-101097897D01*
X174156985Y-101128348D01*
X174167011Y-101161400D01*
X174171000Y-101201903D01*
X174171000Y-102638097D01*
X174167011Y-102678600D01*
X174156985Y-102711652D01*
X174140708Y-102742103D01*
X174118799Y-102768799D01*
X174092103Y-102790708D01*
X174061652Y-102806985D01*
X174028600Y-102817011D01*
X173988097Y-102821000D01*
X172251903Y-102821000D01*
X172211400Y-102817011D01*
X172178348Y-102806985D01*
X172147897Y-102790708D01*
X172121201Y-102768799D01*
X172099292Y-102742103D01*
X172083015Y-102711652D01*
X172072989Y-102678600D01*
X172069000Y-102638097D01*
X172069000Y-101201903D01*
X172072989Y-101161400D01*
X172083015Y-101128348D01*
X172099292Y-101097897D01*
X172121201Y-101071201D01*
X172147897Y-101049292D01*
X172178348Y-101033015D01*
X172211400Y-101022989D01*
X172251903Y-101019000D01*
X173988097Y-101019000D01*
X174028600Y-101022989D01*
G37*
G36*
X156248600Y-101022989D02*
G01*
X156281652Y-101033015D01*
X156312103Y-101049292D01*
X156338799Y-101071201D01*
X156360708Y-101097897D01*
X156376985Y-101128348D01*
X156387011Y-101161400D01*
X156391000Y-101201903D01*
X156391000Y-102638097D01*
X156387011Y-102678600D01*
X156376985Y-102711652D01*
X156360708Y-102742103D01*
X156338799Y-102768799D01*
X156312103Y-102790708D01*
X156281652Y-102806985D01*
X156248600Y-102817011D01*
X156208097Y-102821000D01*
X154471903Y-102821000D01*
X154431400Y-102817011D01*
X154398348Y-102806985D01*
X154367897Y-102790708D01*
X154341201Y-102768799D01*
X154319292Y-102742103D01*
X154303015Y-102711652D01*
X154292989Y-102678600D01*
X154289000Y-102638097D01*
X154289000Y-101201903D01*
X154292989Y-101161400D01*
X154303015Y-101128348D01*
X154319292Y-101097897D01*
X154341201Y-101071201D01*
X154367897Y-101049292D01*
X154398348Y-101033015D01*
X154431400Y-101022989D01*
X154471903Y-101019000D01*
X156208097Y-101019000D01*
X156248600Y-101022989D01*
G37*
G36*
X209588600Y-101022989D02*
G01*
X209621652Y-101033015D01*
X209652103Y-101049292D01*
X209678799Y-101071201D01*
X209700708Y-101097897D01*
X209716985Y-101128348D01*
X209727011Y-101161400D01*
X209731000Y-101201903D01*
X209731000Y-102638097D01*
X209727011Y-102678600D01*
X209716985Y-102711652D01*
X209700708Y-102742103D01*
X209678799Y-102768799D01*
X209652103Y-102790708D01*
X209621652Y-102806985D01*
X209588600Y-102817011D01*
X209548097Y-102821000D01*
X207811903Y-102821000D01*
X207771400Y-102817011D01*
X207738348Y-102806985D01*
X207707897Y-102790708D01*
X207681201Y-102768799D01*
X207659292Y-102742103D01*
X207643015Y-102711652D01*
X207632989Y-102678600D01*
X207629000Y-102638097D01*
X207629000Y-101201903D01*
X207632989Y-101161400D01*
X207643015Y-101128348D01*
X207659292Y-101097897D01*
X207681201Y-101071201D01*
X207707897Y-101049292D01*
X207738348Y-101033015D01*
X207771400Y-101022989D01*
X207811903Y-101019000D01*
X209548097Y-101019000D01*
X209588600Y-101022989D01*
G37*
G36*
X165138600Y-101022989D02*
G01*
X165171652Y-101033015D01*
X165202103Y-101049292D01*
X165228799Y-101071201D01*
X165250708Y-101097897D01*
X165266985Y-101128348D01*
X165277011Y-101161400D01*
X165281000Y-101201903D01*
X165281000Y-102638097D01*
X165277011Y-102678600D01*
X165266985Y-102711652D01*
X165250708Y-102742103D01*
X165228799Y-102768799D01*
X165202103Y-102790708D01*
X165171652Y-102806985D01*
X165138600Y-102817011D01*
X165098097Y-102821000D01*
X163361903Y-102821000D01*
X163321400Y-102817011D01*
X163288348Y-102806985D01*
X163257897Y-102790708D01*
X163231201Y-102768799D01*
X163209292Y-102742103D01*
X163193015Y-102711652D01*
X163182989Y-102678600D01*
X163179000Y-102638097D01*
X163179000Y-101201903D01*
X163182989Y-101161400D01*
X163193015Y-101128348D01*
X163209292Y-101097897D01*
X163231201Y-101071201D01*
X163257897Y-101049292D01*
X163288348Y-101033015D01*
X163321400Y-101022989D01*
X163361903Y-101019000D01*
X165098097Y-101019000D01*
X165138600Y-101022989D01*
G37*
G36*
X191808600Y-101022989D02*
G01*
X191841652Y-101033015D01*
X191872103Y-101049292D01*
X191898799Y-101071201D01*
X191920708Y-101097897D01*
X191936985Y-101128348D01*
X191947011Y-101161400D01*
X191951000Y-101201903D01*
X191951000Y-102638097D01*
X191947011Y-102678600D01*
X191936985Y-102711652D01*
X191920708Y-102742103D01*
X191898799Y-102768799D01*
X191872103Y-102790708D01*
X191841652Y-102806985D01*
X191808600Y-102817011D01*
X191768097Y-102821000D01*
X190031903Y-102821000D01*
X189991400Y-102817011D01*
X189958348Y-102806985D01*
X189927897Y-102790708D01*
X189901201Y-102768799D01*
X189879292Y-102742103D01*
X189863015Y-102711652D01*
X189852989Y-102678600D01*
X189849000Y-102638097D01*
X189849000Y-101201903D01*
X189852989Y-101161400D01*
X189863015Y-101128348D01*
X189879292Y-101097897D01*
X189901201Y-101071201D01*
X189927897Y-101049292D01*
X189958348Y-101033015D01*
X189991400Y-101022989D01*
X190031903Y-101019000D01*
X191768097Y-101019000D01*
X191808600Y-101022989D01*
G37*
G36*
X200698600Y-101022989D02*
G01*
X200731652Y-101033015D01*
X200762103Y-101049292D01*
X200788799Y-101071201D01*
X200810708Y-101097897D01*
X200826985Y-101128348D01*
X200837011Y-101161400D01*
X200841000Y-101201903D01*
X200841000Y-102638097D01*
X200837011Y-102678600D01*
X200826985Y-102711652D01*
X200810708Y-102742103D01*
X200788799Y-102768799D01*
X200762103Y-102790708D01*
X200731652Y-102806985D01*
X200698600Y-102817011D01*
X200658097Y-102821000D01*
X198921903Y-102821000D01*
X198881400Y-102817011D01*
X198848348Y-102806985D01*
X198817897Y-102790708D01*
X198791201Y-102768799D01*
X198769292Y-102742103D01*
X198753015Y-102711652D01*
X198742989Y-102678600D01*
X198739000Y-102638097D01*
X198739000Y-101201903D01*
X198742989Y-101161400D01*
X198753015Y-101128348D01*
X198769292Y-101097897D01*
X198791201Y-101071201D01*
X198817897Y-101049292D01*
X198848348Y-101033015D01*
X198881400Y-101022989D01*
X198921903Y-101019000D01*
X200658097Y-101019000D01*
X200698600Y-101022989D01*
G37*
G36*
X182270442Y-98525518D02*
G01*
X182336627Y-98532037D01*
X182506466Y-98583557D01*
X182662991Y-98667222D01*
X182698729Y-98696552D01*
X182800186Y-98779814D01*
X182883448Y-98881271D01*
X182912778Y-98917009D01*
X182996443Y-99073534D01*
X183047963Y-99243373D01*
X183065359Y-99420000D01*
X183047963Y-99596627D01*
X182996443Y-99766466D01*
X182912778Y-99922991D01*
X182883448Y-99958729D01*
X182800186Y-100060186D01*
X182698729Y-100143448D01*
X182662991Y-100172778D01*
X182506466Y-100256443D01*
X182336627Y-100307963D01*
X182270443Y-100314481D01*
X182204260Y-100321000D01*
X181815740Y-100321000D01*
X181749557Y-100314481D01*
X181683373Y-100307963D01*
X181513534Y-100256443D01*
X181357009Y-100172778D01*
X181321271Y-100143448D01*
X181219814Y-100060186D01*
X181136552Y-99958729D01*
X181107222Y-99922991D01*
X181023557Y-99766466D01*
X180972037Y-99596627D01*
X180954641Y-99420000D01*
X180972037Y-99243373D01*
X181023557Y-99073534D01*
X181107222Y-98917009D01*
X181136552Y-98881271D01*
X181219814Y-98779814D01*
X181321271Y-98696552D01*
X181357009Y-98667222D01*
X181513534Y-98583557D01*
X181683373Y-98532037D01*
X181749557Y-98525519D01*
X181815740Y-98519000D01*
X182204260Y-98519000D01*
X182270442Y-98525518D01*
G37*
G36*
X155600442Y-98525518D02*
G01*
X155666627Y-98532037D01*
X155836466Y-98583557D01*
X155992991Y-98667222D01*
X156028729Y-98696552D01*
X156130186Y-98779814D01*
X156213448Y-98881271D01*
X156242778Y-98917009D01*
X156326443Y-99073534D01*
X156377963Y-99243373D01*
X156395359Y-99420000D01*
X156377963Y-99596627D01*
X156326443Y-99766466D01*
X156242778Y-99922991D01*
X156213448Y-99958729D01*
X156130186Y-100060186D01*
X156028729Y-100143448D01*
X155992991Y-100172778D01*
X155836466Y-100256443D01*
X155666627Y-100307963D01*
X155600443Y-100314481D01*
X155534260Y-100321000D01*
X155145740Y-100321000D01*
X155079557Y-100314481D01*
X155013373Y-100307963D01*
X154843534Y-100256443D01*
X154687009Y-100172778D01*
X154651271Y-100143448D01*
X154549814Y-100060186D01*
X154466552Y-99958729D01*
X154437222Y-99922991D01*
X154353557Y-99766466D01*
X154302037Y-99596627D01*
X154284641Y-99420000D01*
X154302037Y-99243373D01*
X154353557Y-99073534D01*
X154437222Y-98917009D01*
X154466552Y-98881271D01*
X154549814Y-98779814D01*
X154651271Y-98696552D01*
X154687009Y-98667222D01*
X154843534Y-98583557D01*
X155013373Y-98532037D01*
X155079557Y-98525519D01*
X155145740Y-98519000D01*
X155534260Y-98519000D01*
X155600442Y-98525518D01*
G37*
G36*
X164490442Y-98525518D02*
G01*
X164556627Y-98532037D01*
X164726466Y-98583557D01*
X164882991Y-98667222D01*
X164918729Y-98696552D01*
X165020186Y-98779814D01*
X165103448Y-98881271D01*
X165132778Y-98917009D01*
X165216443Y-99073534D01*
X165267963Y-99243373D01*
X165285359Y-99420000D01*
X165267963Y-99596627D01*
X165216443Y-99766466D01*
X165132778Y-99922991D01*
X165103448Y-99958729D01*
X165020186Y-100060186D01*
X164918729Y-100143448D01*
X164882991Y-100172778D01*
X164726466Y-100256443D01*
X164556627Y-100307963D01*
X164490443Y-100314481D01*
X164424260Y-100321000D01*
X164035740Y-100321000D01*
X163969557Y-100314481D01*
X163903373Y-100307963D01*
X163733534Y-100256443D01*
X163577009Y-100172778D01*
X163541271Y-100143448D01*
X163439814Y-100060186D01*
X163356552Y-99958729D01*
X163327222Y-99922991D01*
X163243557Y-99766466D01*
X163192037Y-99596627D01*
X163174641Y-99420000D01*
X163192037Y-99243373D01*
X163243557Y-99073534D01*
X163327222Y-98917009D01*
X163356552Y-98881271D01*
X163439814Y-98779814D01*
X163541271Y-98696552D01*
X163577009Y-98667222D01*
X163733534Y-98583557D01*
X163903373Y-98532037D01*
X163969557Y-98525519D01*
X164035740Y-98519000D01*
X164424260Y-98519000D01*
X164490442Y-98525518D01*
G37*
G36*
X173380442Y-98525518D02*
G01*
X173446627Y-98532037D01*
X173616466Y-98583557D01*
X173772991Y-98667222D01*
X173808729Y-98696552D01*
X173910186Y-98779814D01*
X173993448Y-98881271D01*
X174022778Y-98917009D01*
X174106443Y-99073534D01*
X174157963Y-99243373D01*
X174175359Y-99420000D01*
X174157963Y-99596627D01*
X174106443Y-99766466D01*
X174022778Y-99922991D01*
X173993448Y-99958729D01*
X173910186Y-100060186D01*
X173808729Y-100143448D01*
X173772991Y-100172778D01*
X173616466Y-100256443D01*
X173446627Y-100307963D01*
X173380443Y-100314481D01*
X173314260Y-100321000D01*
X172925740Y-100321000D01*
X172859557Y-100314481D01*
X172793373Y-100307963D01*
X172623534Y-100256443D01*
X172467009Y-100172778D01*
X172431271Y-100143448D01*
X172329814Y-100060186D01*
X172246552Y-99958729D01*
X172217222Y-99922991D01*
X172133557Y-99766466D01*
X172082037Y-99596627D01*
X172064641Y-99420000D01*
X172082037Y-99243373D01*
X172133557Y-99073534D01*
X172217222Y-98917009D01*
X172246552Y-98881271D01*
X172329814Y-98779814D01*
X172431271Y-98696552D01*
X172467009Y-98667222D01*
X172623534Y-98583557D01*
X172793373Y-98532037D01*
X172859557Y-98525519D01*
X172925740Y-98519000D01*
X173314260Y-98519000D01*
X173380442Y-98525518D01*
G37*
G36*
X191160442Y-98525518D02*
G01*
X191226627Y-98532037D01*
X191396466Y-98583557D01*
X191552991Y-98667222D01*
X191588729Y-98696552D01*
X191690186Y-98779814D01*
X191773448Y-98881271D01*
X191802778Y-98917009D01*
X191886443Y-99073534D01*
X191937963Y-99243373D01*
X191955359Y-99420000D01*
X191937963Y-99596627D01*
X191886443Y-99766466D01*
X191802778Y-99922991D01*
X191773448Y-99958729D01*
X191690186Y-100060186D01*
X191588729Y-100143448D01*
X191552991Y-100172778D01*
X191396466Y-100256443D01*
X191226627Y-100307963D01*
X191160443Y-100314481D01*
X191094260Y-100321000D01*
X190705740Y-100321000D01*
X190639557Y-100314481D01*
X190573373Y-100307963D01*
X190403534Y-100256443D01*
X190247009Y-100172778D01*
X190211271Y-100143448D01*
X190109814Y-100060186D01*
X190026552Y-99958729D01*
X189997222Y-99922991D01*
X189913557Y-99766466D01*
X189862037Y-99596627D01*
X189844641Y-99420000D01*
X189862037Y-99243373D01*
X189913557Y-99073534D01*
X189997222Y-98917009D01*
X190026552Y-98881271D01*
X190109814Y-98779814D01*
X190211271Y-98696552D01*
X190247009Y-98667222D01*
X190403534Y-98583557D01*
X190573373Y-98532037D01*
X190639557Y-98525519D01*
X190705740Y-98519000D01*
X191094260Y-98519000D01*
X191160442Y-98525518D01*
G37*
G36*
X200050442Y-98525518D02*
G01*
X200116627Y-98532037D01*
X200286466Y-98583557D01*
X200442991Y-98667222D01*
X200478729Y-98696552D01*
X200580186Y-98779814D01*
X200663448Y-98881271D01*
X200692778Y-98917009D01*
X200776443Y-99073534D01*
X200827963Y-99243373D01*
X200845359Y-99420000D01*
X200827963Y-99596627D01*
X200776443Y-99766466D01*
X200692778Y-99922991D01*
X200663448Y-99958729D01*
X200580186Y-100060186D01*
X200478729Y-100143448D01*
X200442991Y-100172778D01*
X200286466Y-100256443D01*
X200116627Y-100307963D01*
X200050443Y-100314481D01*
X199984260Y-100321000D01*
X199595740Y-100321000D01*
X199529557Y-100314481D01*
X199463373Y-100307963D01*
X199293534Y-100256443D01*
X199137009Y-100172778D01*
X199101271Y-100143448D01*
X198999814Y-100060186D01*
X198916552Y-99958729D01*
X198887222Y-99922991D01*
X198803557Y-99766466D01*
X198752037Y-99596627D01*
X198734641Y-99420000D01*
X198752037Y-99243373D01*
X198803557Y-99073534D01*
X198887222Y-98917009D01*
X198916552Y-98881271D01*
X198999814Y-98779814D01*
X199101271Y-98696552D01*
X199137009Y-98667222D01*
X199293534Y-98583557D01*
X199463373Y-98532037D01*
X199529557Y-98525519D01*
X199595740Y-98519000D01*
X199984260Y-98519000D01*
X200050442Y-98525518D01*
G37*
G36*
X208940442Y-98525518D02*
G01*
X209006627Y-98532037D01*
X209176466Y-98583557D01*
X209332991Y-98667222D01*
X209368729Y-98696552D01*
X209470186Y-98779814D01*
X209553448Y-98881271D01*
X209582778Y-98917009D01*
X209666443Y-99073534D01*
X209717963Y-99243373D01*
X209735359Y-99420000D01*
X209717963Y-99596627D01*
X209666443Y-99766466D01*
X209582778Y-99922991D01*
X209553448Y-99958729D01*
X209470186Y-100060186D01*
X209368729Y-100143448D01*
X209332991Y-100172778D01*
X209176466Y-100256443D01*
X209006627Y-100307963D01*
X208940443Y-100314481D01*
X208874260Y-100321000D01*
X208485740Y-100321000D01*
X208419557Y-100314481D01*
X208353373Y-100307963D01*
X208183534Y-100256443D01*
X208027009Y-100172778D01*
X207991271Y-100143448D01*
X207889814Y-100060186D01*
X207806552Y-99958729D01*
X207777222Y-99922991D01*
X207693557Y-99766466D01*
X207642037Y-99596627D01*
X207624641Y-99420000D01*
X207642037Y-99243373D01*
X207693557Y-99073534D01*
X207777222Y-98917009D01*
X207806552Y-98881271D01*
X207889814Y-98779814D01*
X207991271Y-98696552D01*
X208027009Y-98667222D01*
X208183534Y-98583557D01*
X208353373Y-98532037D01*
X208419557Y-98525519D01*
X208485740Y-98519000D01*
X208874260Y-98519000D01*
X208940442Y-98525518D01*
G37*
G36*
X141371000Y-98951000D02*
G01*
X140469000Y-98951000D01*
X140469000Y-97249000D01*
X141371000Y-97249000D01*
X141371000Y-98951000D01*
G37*
G36*
X143911000Y-98951000D02*
G01*
X143009000Y-98951000D01*
X143009000Y-97249000D01*
X143911000Y-97249000D01*
X143911000Y-98951000D01*
G37*
G36*
X146451000Y-98951000D02*
G01*
X145549000Y-98951000D01*
X145549000Y-97249000D01*
X146451000Y-97249000D01*
X146451000Y-98951000D01*
G37*
G36*
X148991000Y-98951000D02*
G01*
X148089000Y-98951000D01*
X148089000Y-97249000D01*
X148991000Y-97249000D01*
X148991000Y-98951000D01*
G37*
G36*
X146451000Y-89851000D02*
G01*
X145549000Y-89851000D01*
X145549000Y-88149000D01*
X146451000Y-88149000D01*
X146451000Y-89851000D01*
G37*
G36*
X143911000Y-89851000D02*
G01*
X143009000Y-89851000D01*
X143009000Y-88149000D01*
X143911000Y-88149000D01*
X143911000Y-89851000D01*
G37*
G36*
X141371000Y-89851000D02*
G01*
X140469000Y-89851000D01*
X140469000Y-88149000D01*
X141371000Y-88149000D01*
X141371000Y-89851000D01*
G37*
G36*
X148991000Y-89851000D02*
G01*
X148089000Y-89851000D01*
X148089000Y-88149000D01*
X148991000Y-88149000D01*
X148991000Y-89851000D01*
G37*
G36*
X209588600Y-85782989D02*
G01*
X209621652Y-85793015D01*
X209652103Y-85809292D01*
X209678799Y-85831201D01*
X209700708Y-85857897D01*
X209716985Y-85888348D01*
X209727011Y-85921400D01*
X209731000Y-85961903D01*
X209731000Y-87398097D01*
X209727011Y-87438600D01*
X209716985Y-87471652D01*
X209700708Y-87502103D01*
X209678799Y-87528799D01*
X209652103Y-87550708D01*
X209621652Y-87566985D01*
X209588600Y-87577011D01*
X209548097Y-87581000D01*
X207811903Y-87581000D01*
X207771400Y-87577011D01*
X207738348Y-87566985D01*
X207707897Y-87550708D01*
X207681201Y-87528799D01*
X207659292Y-87502103D01*
X207643015Y-87471652D01*
X207632989Y-87438600D01*
X207629000Y-87398097D01*
X207629000Y-85961903D01*
X207632989Y-85921400D01*
X207643015Y-85888348D01*
X207659292Y-85857897D01*
X207681201Y-85831201D01*
X207707897Y-85809292D01*
X207738348Y-85793015D01*
X207771400Y-85782989D01*
X207811903Y-85779000D01*
X209548097Y-85779000D01*
X209588600Y-85782989D01*
G37*
G36*
X200698600Y-85782989D02*
G01*
X200731652Y-85793015D01*
X200762103Y-85809292D01*
X200788799Y-85831201D01*
X200810708Y-85857897D01*
X200826985Y-85888348D01*
X200837011Y-85921400D01*
X200841000Y-85961903D01*
X200841000Y-87398097D01*
X200837011Y-87438600D01*
X200826985Y-87471652D01*
X200810708Y-87502103D01*
X200788799Y-87528799D01*
X200762103Y-87550708D01*
X200731652Y-87566985D01*
X200698600Y-87577011D01*
X200658097Y-87581000D01*
X198921903Y-87581000D01*
X198881400Y-87577011D01*
X198848348Y-87566985D01*
X198817897Y-87550708D01*
X198791201Y-87528799D01*
X198769292Y-87502103D01*
X198753015Y-87471652D01*
X198742989Y-87438600D01*
X198739000Y-87398097D01*
X198739000Y-85961903D01*
X198742989Y-85921400D01*
X198753015Y-85888348D01*
X198769292Y-85857897D01*
X198791201Y-85831201D01*
X198817897Y-85809292D01*
X198848348Y-85793015D01*
X198881400Y-85782989D01*
X198921903Y-85779000D01*
X200658097Y-85779000D01*
X200698600Y-85782989D01*
G37*
G36*
X182918600Y-85782989D02*
G01*
X182951652Y-85793015D01*
X182982103Y-85809292D01*
X183008799Y-85831201D01*
X183030708Y-85857897D01*
X183046985Y-85888348D01*
X183057011Y-85921400D01*
X183061000Y-85961903D01*
X183061000Y-87398097D01*
X183057011Y-87438600D01*
X183046985Y-87471652D01*
X183030708Y-87502103D01*
X183008799Y-87528799D01*
X182982103Y-87550708D01*
X182951652Y-87566985D01*
X182918600Y-87577011D01*
X182878097Y-87581000D01*
X181141903Y-87581000D01*
X181101400Y-87577011D01*
X181068348Y-87566985D01*
X181037897Y-87550708D01*
X181011201Y-87528799D01*
X180989292Y-87502103D01*
X180973015Y-87471652D01*
X180962989Y-87438600D01*
X180959000Y-87398097D01*
X180959000Y-85961903D01*
X180962989Y-85921400D01*
X180973015Y-85888348D01*
X180989292Y-85857897D01*
X181011201Y-85831201D01*
X181037897Y-85809292D01*
X181068348Y-85793015D01*
X181101400Y-85782989D01*
X181141903Y-85779000D01*
X182878097Y-85779000D01*
X182918600Y-85782989D01*
G37*
G36*
X191808600Y-85782989D02*
G01*
X191841652Y-85793015D01*
X191872103Y-85809292D01*
X191898799Y-85831201D01*
X191920708Y-85857897D01*
X191936985Y-85888348D01*
X191947011Y-85921400D01*
X191951000Y-85961903D01*
X191951000Y-87398097D01*
X191947011Y-87438600D01*
X191936985Y-87471652D01*
X191920708Y-87502103D01*
X191898799Y-87528799D01*
X191872103Y-87550708D01*
X191841652Y-87566985D01*
X191808600Y-87577011D01*
X191768097Y-87581000D01*
X190031903Y-87581000D01*
X189991400Y-87577011D01*
X189958348Y-87566985D01*
X189927897Y-87550708D01*
X189901201Y-87528799D01*
X189879292Y-87502103D01*
X189863015Y-87471652D01*
X189852989Y-87438600D01*
X189849000Y-87398097D01*
X189849000Y-85961903D01*
X189852989Y-85921400D01*
X189863015Y-85888348D01*
X189879292Y-85857897D01*
X189901201Y-85831201D01*
X189927897Y-85809292D01*
X189958348Y-85793015D01*
X189991400Y-85782989D01*
X190031903Y-85779000D01*
X191768097Y-85779000D01*
X191808600Y-85782989D01*
G37*
G36*
X165138600Y-85782989D02*
G01*
X165171652Y-85793015D01*
X165202103Y-85809292D01*
X165228799Y-85831201D01*
X165250708Y-85857897D01*
X165266985Y-85888348D01*
X165277011Y-85921400D01*
X165281000Y-85961903D01*
X165281000Y-87398097D01*
X165277011Y-87438600D01*
X165266985Y-87471652D01*
X165250708Y-87502103D01*
X165228799Y-87528799D01*
X165202103Y-87550708D01*
X165171652Y-87566985D01*
X165138600Y-87577011D01*
X165098097Y-87581000D01*
X163361903Y-87581000D01*
X163321400Y-87577011D01*
X163288348Y-87566985D01*
X163257897Y-87550708D01*
X163231201Y-87528799D01*
X163209292Y-87502103D01*
X163193015Y-87471652D01*
X163182989Y-87438600D01*
X163179000Y-87398097D01*
X163179000Y-85961903D01*
X163182989Y-85921400D01*
X163193015Y-85888348D01*
X163209292Y-85857897D01*
X163231201Y-85831201D01*
X163257897Y-85809292D01*
X163288348Y-85793015D01*
X163321400Y-85782989D01*
X163361903Y-85779000D01*
X165098097Y-85779000D01*
X165138600Y-85782989D01*
G37*
G36*
X156248600Y-85782989D02*
G01*
X156281652Y-85793015D01*
X156312103Y-85809292D01*
X156338799Y-85831201D01*
X156360708Y-85857897D01*
X156376985Y-85888348D01*
X156387011Y-85921400D01*
X156391000Y-85961903D01*
X156391000Y-87398097D01*
X156387011Y-87438600D01*
X156376985Y-87471652D01*
X156360708Y-87502103D01*
X156338799Y-87528799D01*
X156312103Y-87550708D01*
X156281652Y-87566985D01*
X156248600Y-87577011D01*
X156208097Y-87581000D01*
X154471903Y-87581000D01*
X154431400Y-87577011D01*
X154398348Y-87566985D01*
X154367897Y-87550708D01*
X154341201Y-87528799D01*
X154319292Y-87502103D01*
X154303015Y-87471652D01*
X154292989Y-87438600D01*
X154289000Y-87398097D01*
X154289000Y-85961903D01*
X154292989Y-85921400D01*
X154303015Y-85888348D01*
X154319292Y-85857897D01*
X154341201Y-85831201D01*
X154367897Y-85809292D01*
X154398348Y-85793015D01*
X154431400Y-85782989D01*
X154471903Y-85779000D01*
X156208097Y-85779000D01*
X156248600Y-85782989D01*
G37*
G36*
X174028600Y-85782989D02*
G01*
X174061652Y-85793015D01*
X174092103Y-85809292D01*
X174118799Y-85831201D01*
X174140708Y-85857897D01*
X174156985Y-85888348D01*
X174167011Y-85921400D01*
X174171000Y-85961903D01*
X174171000Y-87398097D01*
X174167011Y-87438600D01*
X174156985Y-87471652D01*
X174140708Y-87502103D01*
X174118799Y-87528799D01*
X174092103Y-87550708D01*
X174061652Y-87566985D01*
X174028600Y-87577011D01*
X173988097Y-87581000D01*
X172251903Y-87581000D01*
X172211400Y-87577011D01*
X172178348Y-87566985D01*
X172147897Y-87550708D01*
X172121201Y-87528799D01*
X172099292Y-87502103D01*
X172083015Y-87471652D01*
X172072989Y-87438600D01*
X172069000Y-87398097D01*
X172069000Y-85961903D01*
X172072989Y-85921400D01*
X172083015Y-85888348D01*
X172099292Y-85857897D01*
X172121201Y-85831201D01*
X172147897Y-85809292D01*
X172178348Y-85793015D01*
X172211400Y-85782989D01*
X172251903Y-85779000D01*
X173988097Y-85779000D01*
X174028600Y-85782989D01*
G37*
G36*
X145356627Y-83127037D02*
G01*
X145526466Y-83178557D01*
X145682991Y-83262222D01*
X145703435Y-83279000D01*
X145820186Y-83374814D01*
X145863195Y-83427222D01*
X145932778Y-83512009D01*
X146016443Y-83668534D01*
X146067963Y-83838374D01*
X146081000Y-83970743D01*
X146081000Y-84309258D01*
X146067963Y-84441627D01*
X146016443Y-84611466D01*
X145932778Y-84767991D01*
X145903448Y-84803729D01*
X145820186Y-84905186D01*
X145682989Y-85017779D01*
X145526467Y-85101442D01*
X145526465Y-85101443D01*
X145356626Y-85152963D01*
X145180000Y-85170359D01*
X145003373Y-85152963D01*
X144833534Y-85101443D01*
X144677009Y-85017778D01*
X144632630Y-84981357D01*
X144539814Y-84905186D01*
X144427221Y-84767989D01*
X144343558Y-84611467D01*
X144343557Y-84611465D01*
X144292037Y-84441626D01*
X144279000Y-84309257D01*
X144279000Y-83970742D01*
X144292037Y-83838373D01*
X144343557Y-83668534D01*
X144427222Y-83512009D01*
X144539815Y-83374815D01*
X144677010Y-83262222D01*
X144833535Y-83178557D01*
X145003374Y-83127037D01*
X145180000Y-83109641D01*
X145356627Y-83127037D01*
G37*
G36*
X142856627Y-83127037D02*
G01*
X143026466Y-83178557D01*
X143182991Y-83262222D01*
X143203435Y-83279000D01*
X143320186Y-83374814D01*
X143363195Y-83427222D01*
X143432778Y-83512009D01*
X143516443Y-83668534D01*
X143567963Y-83838374D01*
X143581000Y-83970743D01*
X143581000Y-84309258D01*
X143567963Y-84441627D01*
X143516443Y-84611466D01*
X143432778Y-84767991D01*
X143403448Y-84803729D01*
X143320186Y-84905186D01*
X143182989Y-85017779D01*
X143026467Y-85101442D01*
X143026465Y-85101443D01*
X142856626Y-85152963D01*
X142680000Y-85170359D01*
X142503373Y-85152963D01*
X142333534Y-85101443D01*
X142177009Y-85017778D01*
X142132630Y-84981357D01*
X142039814Y-84905186D01*
X141927221Y-84767989D01*
X141843558Y-84611467D01*
X141843557Y-84611465D01*
X141792037Y-84441626D01*
X141779000Y-84309257D01*
X141779000Y-83970742D01*
X141792037Y-83838373D01*
X141843557Y-83668534D01*
X141927222Y-83512009D01*
X142039815Y-83374815D01*
X142177010Y-83262222D01*
X142333535Y-83178557D01*
X142503374Y-83127037D01*
X142680000Y-83109641D01*
X142856627Y-83127037D01*
G37*
G36*
X148438600Y-83117989D02*
G01*
X148471652Y-83128015D01*
X148502103Y-83144292D01*
X148528799Y-83166201D01*
X148550708Y-83192897D01*
X148566985Y-83223348D01*
X148577011Y-83256400D01*
X148581000Y-83296903D01*
X148581000Y-84983097D01*
X148577011Y-85023600D01*
X148566985Y-85056652D01*
X148550708Y-85087103D01*
X148528799Y-85113799D01*
X148502103Y-85135708D01*
X148471652Y-85151985D01*
X148438600Y-85162011D01*
X148398097Y-85166000D01*
X146961903Y-85166000D01*
X146921400Y-85162011D01*
X146888348Y-85151985D01*
X146857897Y-85135708D01*
X146831201Y-85113799D01*
X146809292Y-85087103D01*
X146793015Y-85056652D01*
X146782989Y-85023600D01*
X146779000Y-84983097D01*
X146779000Y-83296903D01*
X146782989Y-83256400D01*
X146793015Y-83223348D01*
X146809292Y-83192897D01*
X146831201Y-83166201D01*
X146857897Y-83144292D01*
X146888348Y-83128015D01*
X146921400Y-83117989D01*
X146961903Y-83114000D01*
X148398097Y-83114000D01*
X148438600Y-83117989D01*
G37*
G36*
X173380443Y-83285519D02*
G01*
X173446627Y-83292037D01*
X173616466Y-83343557D01*
X173772991Y-83427222D01*
X173808729Y-83456552D01*
X173910186Y-83539814D01*
X173993448Y-83641271D01*
X174022778Y-83677009D01*
X174106443Y-83833534D01*
X174157963Y-84003373D01*
X174175359Y-84180000D01*
X174157963Y-84356627D01*
X174106443Y-84526466D01*
X174022778Y-84682991D01*
X173993448Y-84718729D01*
X173910186Y-84820186D01*
X173832795Y-84883698D01*
X173772991Y-84932778D01*
X173772989Y-84932779D01*
X173678852Y-84983097D01*
X173616466Y-85016443D01*
X173446627Y-85067963D01*
X173380442Y-85074482D01*
X173314260Y-85081000D01*
X172925740Y-85081000D01*
X172859558Y-85074482D01*
X172793373Y-85067963D01*
X172623534Y-85016443D01*
X172561149Y-84983097D01*
X172467011Y-84932779D01*
X172467009Y-84932778D01*
X172407205Y-84883698D01*
X172329814Y-84820186D01*
X172246552Y-84718729D01*
X172217222Y-84682991D01*
X172133557Y-84526466D01*
X172082037Y-84356627D01*
X172064641Y-84180000D01*
X172082037Y-84003373D01*
X172133557Y-83833534D01*
X172217222Y-83677009D01*
X172246552Y-83641271D01*
X172329814Y-83539814D01*
X172431271Y-83456552D01*
X172467009Y-83427222D01*
X172623534Y-83343557D01*
X172793373Y-83292037D01*
X172859557Y-83285519D01*
X172925740Y-83279000D01*
X173314260Y-83279000D01*
X173380443Y-83285519D01*
G37*
G36*
X208940443Y-83285519D02*
G01*
X209006627Y-83292037D01*
X209176466Y-83343557D01*
X209332991Y-83427222D01*
X209368729Y-83456552D01*
X209470186Y-83539814D01*
X209553448Y-83641271D01*
X209582778Y-83677009D01*
X209666443Y-83833534D01*
X209717963Y-84003373D01*
X209735359Y-84180000D01*
X209717963Y-84356627D01*
X209666443Y-84526466D01*
X209582778Y-84682991D01*
X209553448Y-84718729D01*
X209470186Y-84820186D01*
X209392795Y-84883698D01*
X209332991Y-84932778D01*
X209332989Y-84932779D01*
X209238852Y-84983097D01*
X209176466Y-85016443D01*
X209006627Y-85067963D01*
X208940442Y-85074482D01*
X208874260Y-85081000D01*
X208485740Y-85081000D01*
X208419558Y-85074482D01*
X208353373Y-85067963D01*
X208183534Y-85016443D01*
X208121149Y-84983097D01*
X208027011Y-84932779D01*
X208027009Y-84932778D01*
X207967205Y-84883698D01*
X207889814Y-84820186D01*
X207806552Y-84718729D01*
X207777222Y-84682991D01*
X207693557Y-84526466D01*
X207642037Y-84356627D01*
X207624641Y-84180000D01*
X207642037Y-84003373D01*
X207693557Y-83833534D01*
X207777222Y-83677009D01*
X207806552Y-83641271D01*
X207889814Y-83539814D01*
X207991271Y-83456552D01*
X208027009Y-83427222D01*
X208183534Y-83343557D01*
X208353373Y-83292037D01*
X208419557Y-83285519D01*
X208485740Y-83279000D01*
X208874260Y-83279000D01*
X208940443Y-83285519D01*
G37*
G36*
X155600443Y-83285519D02*
G01*
X155666627Y-83292037D01*
X155836466Y-83343557D01*
X155992991Y-83427222D01*
X156028729Y-83456552D01*
X156130186Y-83539814D01*
X156213448Y-83641271D01*
X156242778Y-83677009D01*
X156326443Y-83833534D01*
X156377963Y-84003373D01*
X156395359Y-84180000D01*
X156377963Y-84356627D01*
X156326443Y-84526466D01*
X156242778Y-84682991D01*
X156213448Y-84718729D01*
X156130186Y-84820186D01*
X156052795Y-84883698D01*
X155992991Y-84932778D01*
X155992989Y-84932779D01*
X155898852Y-84983097D01*
X155836466Y-85016443D01*
X155666627Y-85067963D01*
X155600442Y-85074482D01*
X155534260Y-85081000D01*
X155145740Y-85081000D01*
X155079558Y-85074482D01*
X155013373Y-85067963D01*
X154843534Y-85016443D01*
X154781149Y-84983097D01*
X154687011Y-84932779D01*
X154687009Y-84932778D01*
X154627205Y-84883698D01*
X154549814Y-84820186D01*
X154466552Y-84718729D01*
X154437222Y-84682991D01*
X154353557Y-84526466D01*
X154302037Y-84356627D01*
X154284641Y-84180000D01*
X154302037Y-84003373D01*
X154353557Y-83833534D01*
X154437222Y-83677009D01*
X154466552Y-83641271D01*
X154549814Y-83539814D01*
X154651271Y-83456552D01*
X154687009Y-83427222D01*
X154843534Y-83343557D01*
X155013373Y-83292037D01*
X155079557Y-83285519D01*
X155145740Y-83279000D01*
X155534260Y-83279000D01*
X155600443Y-83285519D01*
G37*
G36*
X182270443Y-83285519D02*
G01*
X182336627Y-83292037D01*
X182506466Y-83343557D01*
X182662991Y-83427222D01*
X182698729Y-83456552D01*
X182800186Y-83539814D01*
X182883448Y-83641271D01*
X182912778Y-83677009D01*
X182996443Y-83833534D01*
X183047963Y-84003373D01*
X183065359Y-84180000D01*
X183047963Y-84356627D01*
X182996443Y-84526466D01*
X182912778Y-84682991D01*
X182883448Y-84718729D01*
X182800186Y-84820186D01*
X182722795Y-84883698D01*
X182662991Y-84932778D01*
X182662989Y-84932779D01*
X182568852Y-84983097D01*
X182506466Y-85016443D01*
X182336627Y-85067963D01*
X182270442Y-85074482D01*
X182204260Y-85081000D01*
X181815740Y-85081000D01*
X181749558Y-85074482D01*
X181683373Y-85067963D01*
X181513534Y-85016443D01*
X181451149Y-84983097D01*
X181357011Y-84932779D01*
X181357009Y-84932778D01*
X181297205Y-84883698D01*
X181219814Y-84820186D01*
X181136552Y-84718729D01*
X181107222Y-84682991D01*
X181023557Y-84526466D01*
X180972037Y-84356627D01*
X180954641Y-84180000D01*
X180972037Y-84003373D01*
X181023557Y-83833534D01*
X181107222Y-83677009D01*
X181136552Y-83641271D01*
X181219814Y-83539814D01*
X181321271Y-83456552D01*
X181357009Y-83427222D01*
X181513534Y-83343557D01*
X181683373Y-83292037D01*
X181749557Y-83285519D01*
X181815740Y-83279000D01*
X182204260Y-83279000D01*
X182270443Y-83285519D01*
G37*
G36*
X191160443Y-83285519D02*
G01*
X191226627Y-83292037D01*
X191396466Y-83343557D01*
X191552991Y-83427222D01*
X191588729Y-83456552D01*
X191690186Y-83539814D01*
X191773448Y-83641271D01*
X191802778Y-83677009D01*
X191886443Y-83833534D01*
X191937963Y-84003373D01*
X191955359Y-84180000D01*
X191937963Y-84356627D01*
X191886443Y-84526466D01*
X191802778Y-84682991D01*
X191773448Y-84718729D01*
X191690186Y-84820186D01*
X191612795Y-84883698D01*
X191552991Y-84932778D01*
X191552989Y-84932779D01*
X191458852Y-84983097D01*
X191396466Y-85016443D01*
X191226627Y-85067963D01*
X191160442Y-85074482D01*
X191094260Y-85081000D01*
X190705740Y-85081000D01*
X190639558Y-85074482D01*
X190573373Y-85067963D01*
X190403534Y-85016443D01*
X190341149Y-84983097D01*
X190247011Y-84932779D01*
X190247009Y-84932778D01*
X190187205Y-84883698D01*
X190109814Y-84820186D01*
X190026552Y-84718729D01*
X189997222Y-84682991D01*
X189913557Y-84526466D01*
X189862037Y-84356627D01*
X189844641Y-84180000D01*
X189862037Y-84003373D01*
X189913557Y-83833534D01*
X189997222Y-83677009D01*
X190026552Y-83641271D01*
X190109814Y-83539814D01*
X190211271Y-83456552D01*
X190247009Y-83427222D01*
X190403534Y-83343557D01*
X190573373Y-83292037D01*
X190639557Y-83285519D01*
X190705740Y-83279000D01*
X191094260Y-83279000D01*
X191160443Y-83285519D01*
G37*
G36*
X200050443Y-83285519D02*
G01*
X200116627Y-83292037D01*
X200286466Y-83343557D01*
X200442991Y-83427222D01*
X200478729Y-83456552D01*
X200580186Y-83539814D01*
X200663448Y-83641271D01*
X200692778Y-83677009D01*
X200776443Y-83833534D01*
X200827963Y-84003373D01*
X200845359Y-84180000D01*
X200827963Y-84356627D01*
X200776443Y-84526466D01*
X200692778Y-84682991D01*
X200663448Y-84718729D01*
X200580186Y-84820186D01*
X200502795Y-84883698D01*
X200442991Y-84932778D01*
X200442989Y-84932779D01*
X200348852Y-84983097D01*
X200286466Y-85016443D01*
X200116627Y-85067963D01*
X200050442Y-85074482D01*
X199984260Y-85081000D01*
X199595740Y-85081000D01*
X199529558Y-85074482D01*
X199463373Y-85067963D01*
X199293534Y-85016443D01*
X199231149Y-84983097D01*
X199137011Y-84932779D01*
X199137009Y-84932778D01*
X199077205Y-84883698D01*
X198999814Y-84820186D01*
X198916552Y-84718729D01*
X198887222Y-84682991D01*
X198803557Y-84526466D01*
X198752037Y-84356627D01*
X198734641Y-84180000D01*
X198752037Y-84003373D01*
X198803557Y-83833534D01*
X198887222Y-83677009D01*
X198916552Y-83641271D01*
X198999814Y-83539814D01*
X199101271Y-83456552D01*
X199137009Y-83427222D01*
X199293534Y-83343557D01*
X199463373Y-83292037D01*
X199529557Y-83285519D01*
X199595740Y-83279000D01*
X199984260Y-83279000D01*
X200050443Y-83285519D01*
G37*
G36*
X164490443Y-83285519D02*
G01*
X164556627Y-83292037D01*
X164726466Y-83343557D01*
X164882991Y-83427222D01*
X164918729Y-83456552D01*
X165020186Y-83539814D01*
X165103448Y-83641271D01*
X165132778Y-83677009D01*
X165216443Y-83833534D01*
X165267963Y-84003373D01*
X165285359Y-84180000D01*
X165267963Y-84356627D01*
X165216443Y-84526466D01*
X165132778Y-84682991D01*
X165103448Y-84718729D01*
X165020186Y-84820186D01*
X164942795Y-84883698D01*
X164882991Y-84932778D01*
X164882989Y-84932779D01*
X164788852Y-84983097D01*
X164726466Y-85016443D01*
X164556627Y-85067963D01*
X164490442Y-85074482D01*
X164424260Y-85081000D01*
X164035740Y-85081000D01*
X163969558Y-85074482D01*
X163903373Y-85067963D01*
X163733534Y-85016443D01*
X163671149Y-84983097D01*
X163577011Y-84932779D01*
X163577009Y-84932778D01*
X163517205Y-84883698D01*
X163439814Y-84820186D01*
X163356552Y-84718729D01*
X163327222Y-84682991D01*
X163243557Y-84526466D01*
X163192037Y-84356627D01*
X163174641Y-84180000D01*
X163192037Y-84003373D01*
X163243557Y-83833534D01*
X163327222Y-83677009D01*
X163356552Y-83641271D01*
X163439814Y-83539814D01*
X163541271Y-83456552D01*
X163577009Y-83427222D01*
X163733534Y-83343557D01*
X163903373Y-83292037D01*
X163969557Y-83285519D01*
X164035740Y-83279000D01*
X164424260Y-83279000D01*
X164490443Y-83285519D01*
G37*
G36*
X138211626Y-82987037D02*
G01*
X138381465Y-83038557D01*
X138381467Y-83038558D01*
X138537989Y-83122221D01*
X138675186Y-83234814D01*
X138726140Y-83296903D01*
X138787778Y-83372009D01*
X138871443Y-83528534D01*
X138922963Y-83698373D01*
X138936000Y-83830742D01*
X138936000Y-84169257D01*
X138922963Y-84301626D01*
X138871443Y-84471466D01*
X138787778Y-84627991D01*
X138758448Y-84663729D01*
X138675186Y-84765186D01*
X138608167Y-84820186D01*
X138537991Y-84877778D01*
X138381466Y-84961443D01*
X138211627Y-85012963D01*
X138035000Y-85030359D01*
X137858374Y-85012963D01*
X137688535Y-84961443D01*
X137532010Y-84877778D01*
X137394815Y-84765185D01*
X137282222Y-84627991D01*
X137198557Y-84471466D01*
X137147037Y-84301627D01*
X137134000Y-84169258D01*
X137134000Y-83830743D01*
X137147037Y-83698374D01*
X137198557Y-83528535D01*
X137252711Y-83427221D01*
X137282221Y-83372011D01*
X137394814Y-83234814D01*
X137517448Y-83134172D01*
X137532009Y-83122222D01*
X137688534Y-83038557D01*
X137858373Y-82987037D01*
X138035000Y-82969641D01*
X138211626Y-82987037D01*
G37*
G36*
X130711626Y-82987037D02*
G01*
X130881465Y-83038557D01*
X130881467Y-83038558D01*
X131037989Y-83122221D01*
X131175186Y-83234814D01*
X131226140Y-83296903D01*
X131287778Y-83372009D01*
X131371443Y-83528534D01*
X131422963Y-83698373D01*
X131436000Y-83830742D01*
X131436000Y-84169257D01*
X131422963Y-84301626D01*
X131371443Y-84471466D01*
X131287778Y-84627991D01*
X131258448Y-84663729D01*
X131175186Y-84765186D01*
X131108167Y-84820186D01*
X131037991Y-84877778D01*
X130881466Y-84961443D01*
X130711627Y-85012963D01*
X130535000Y-85030359D01*
X130358374Y-85012963D01*
X130188535Y-84961443D01*
X130032010Y-84877778D01*
X129894815Y-84765185D01*
X129782222Y-84627991D01*
X129698557Y-84471466D01*
X129647037Y-84301627D01*
X129634000Y-84169258D01*
X129634000Y-83830743D01*
X129647037Y-83698374D01*
X129698557Y-83528535D01*
X129752711Y-83427221D01*
X129782221Y-83372011D01*
X129894814Y-83234814D01*
X130017448Y-83134172D01*
X130032009Y-83122222D01*
X130188534Y-83038557D01*
X130358373Y-82987037D01*
X130535000Y-82969641D01*
X130711626Y-82987037D01*
G37*
G36*
X133211626Y-82987037D02*
G01*
X133381465Y-83038557D01*
X133381467Y-83038558D01*
X133537989Y-83122221D01*
X133675186Y-83234814D01*
X133726140Y-83296903D01*
X133787778Y-83372009D01*
X133871443Y-83528534D01*
X133922963Y-83698373D01*
X133936000Y-83830742D01*
X133936000Y-84169257D01*
X133922963Y-84301626D01*
X133871443Y-84471466D01*
X133787778Y-84627991D01*
X133758448Y-84663729D01*
X133675186Y-84765186D01*
X133608167Y-84820186D01*
X133537991Y-84877778D01*
X133381466Y-84961443D01*
X133211627Y-85012963D01*
X133035000Y-85030359D01*
X132858374Y-85012963D01*
X132688535Y-84961443D01*
X132532010Y-84877778D01*
X132394815Y-84765185D01*
X132282222Y-84627991D01*
X132198557Y-84471466D01*
X132147037Y-84301627D01*
X132134000Y-84169258D01*
X132134000Y-83830743D01*
X132147037Y-83698374D01*
X132198557Y-83528535D01*
X132252711Y-83427221D01*
X132282221Y-83372011D01*
X132394814Y-83234814D01*
X132517448Y-83134172D01*
X132532009Y-83122222D01*
X132688534Y-83038557D01*
X132858373Y-82987037D01*
X133035000Y-82969641D01*
X133211626Y-82987037D01*
G37*
G36*
X135711626Y-82987037D02*
G01*
X135881465Y-83038557D01*
X135881467Y-83038558D01*
X136037989Y-83122221D01*
X136175186Y-83234814D01*
X136226140Y-83296903D01*
X136287778Y-83372009D01*
X136371443Y-83528534D01*
X136422963Y-83698373D01*
X136436000Y-83830742D01*
X136436000Y-84169257D01*
X136422963Y-84301626D01*
X136371443Y-84471466D01*
X136287778Y-84627991D01*
X136258448Y-84663729D01*
X136175186Y-84765186D01*
X136108167Y-84820186D01*
X136037991Y-84877778D01*
X135881466Y-84961443D01*
X135711627Y-85012963D01*
X135535000Y-85030359D01*
X135358374Y-85012963D01*
X135188535Y-84961443D01*
X135032010Y-84877778D01*
X134894815Y-84765185D01*
X134782222Y-84627991D01*
X134698557Y-84471466D01*
X134647037Y-84301627D01*
X134634000Y-84169258D01*
X134634000Y-83830743D01*
X134647037Y-83698374D01*
X134698557Y-83528535D01*
X134752711Y-83427221D01*
X134782221Y-83372011D01*
X134894814Y-83234814D01*
X135017448Y-83134172D01*
X135032009Y-83122222D01*
X135188534Y-83038557D01*
X135358373Y-82987037D01*
X135535000Y-82969641D01*
X135711626Y-82987037D01*
G37*
G36*
X128793698Y-82977987D02*
G01*
X128826724Y-82988005D01*
X128857159Y-83004273D01*
X128883835Y-83026165D01*
X128905727Y-83052841D01*
X128921995Y-83083276D01*
X128932013Y-83116302D01*
X128936000Y-83156784D01*
X128936000Y-84843216D01*
X128932013Y-84883698D01*
X128921995Y-84916724D01*
X128905727Y-84947159D01*
X128883835Y-84973835D01*
X128857159Y-84995727D01*
X128826724Y-85011995D01*
X128793698Y-85022013D01*
X128753216Y-85026000D01*
X127316784Y-85026000D01*
X127276302Y-85022013D01*
X127243276Y-85011995D01*
X127212841Y-84995727D01*
X127186165Y-84973835D01*
X127164273Y-84947159D01*
X127148005Y-84916724D01*
X127137987Y-84883698D01*
X127134000Y-84843216D01*
X127134000Y-83156784D01*
X127137987Y-83116302D01*
X127148005Y-83083276D01*
X127164273Y-83052841D01*
X127186165Y-83026165D01*
X127212841Y-83004273D01*
X127243276Y-82988005D01*
X127276302Y-82977987D01*
X127316784Y-82974000D01*
X128753216Y-82974000D01*
X128793698Y-82977987D01*
G37*
G36*
X198241627Y-74987037D02*
G01*
X198411466Y-75038557D01*
X198567991Y-75122222D01*
X198586635Y-75137523D01*
X198705186Y-75234814D01*
X198772642Y-75317011D01*
X198817778Y-75372009D01*
X198901443Y-75528534D01*
X198952963Y-75698374D01*
X198966000Y-75830743D01*
X198966000Y-76169258D01*
X198952963Y-76301627D01*
X198901443Y-76471466D01*
X198817778Y-76627991D01*
X198794429Y-76656442D01*
X198705186Y-76765186D01*
X198567989Y-76877779D01*
X198411467Y-76961442D01*
X198411465Y-76961443D01*
X198241626Y-77012963D01*
X198065000Y-77030359D01*
X197888373Y-77012963D01*
X197718534Y-76961443D01*
X197562009Y-76877778D01*
X197517608Y-76841339D01*
X197424814Y-76765186D01*
X197312221Y-76627989D01*
X197228558Y-76471467D01*
X197225136Y-76460186D01*
X197177037Y-76301626D01*
X197164000Y-76169257D01*
X197164000Y-75830742D01*
X197177037Y-75698373D01*
X197228557Y-75528534D01*
X197312222Y-75372009D01*
X197424815Y-75234815D01*
X197562010Y-75122222D01*
X197718535Y-75038557D01*
X197888374Y-74987037D01*
X198065000Y-74969641D01*
X198241627Y-74987037D01*
G37*
G36*
X203241627Y-74987037D02*
G01*
X203411466Y-75038557D01*
X203567991Y-75122222D01*
X203586635Y-75137523D01*
X203705186Y-75234814D01*
X203772642Y-75317011D01*
X203817778Y-75372009D01*
X203901443Y-75528534D01*
X203952963Y-75698374D01*
X203966000Y-75830743D01*
X203966000Y-76169258D01*
X203952963Y-76301627D01*
X203901443Y-76471466D01*
X203817778Y-76627991D01*
X203794429Y-76656442D01*
X203705186Y-76765186D01*
X203567989Y-76877779D01*
X203411467Y-76961442D01*
X203411465Y-76961443D01*
X203241626Y-77012963D01*
X203065000Y-77030359D01*
X202888373Y-77012963D01*
X202718534Y-76961443D01*
X202562009Y-76877778D01*
X202517608Y-76841339D01*
X202424814Y-76765186D01*
X202312221Y-76627989D01*
X202228558Y-76471467D01*
X202225136Y-76460186D01*
X202177037Y-76301626D01*
X202164000Y-76169257D01*
X202164000Y-75830742D01*
X202177037Y-75698373D01*
X202228557Y-75528534D01*
X202312222Y-75372009D01*
X202424815Y-75234815D01*
X202562010Y-75122222D01*
X202718535Y-75038557D01*
X202888374Y-74987037D01*
X203065000Y-74969641D01*
X203241627Y-74987037D01*
G37*
G36*
X200741627Y-74987037D02*
G01*
X200911466Y-75038557D01*
X201067991Y-75122222D01*
X201086635Y-75137523D01*
X201205186Y-75234814D01*
X201272642Y-75317011D01*
X201317778Y-75372009D01*
X201401443Y-75528534D01*
X201452963Y-75698374D01*
X201466000Y-75830743D01*
X201466000Y-76169258D01*
X201452963Y-76301627D01*
X201401443Y-76471466D01*
X201317778Y-76627991D01*
X201294429Y-76656442D01*
X201205186Y-76765186D01*
X201067989Y-76877779D01*
X200911467Y-76961442D01*
X200911465Y-76961443D01*
X200741626Y-77012963D01*
X200565000Y-77030359D01*
X200388373Y-77012963D01*
X200218534Y-76961443D01*
X200062009Y-76877778D01*
X200017608Y-76841339D01*
X199924814Y-76765186D01*
X199812221Y-76627989D01*
X199728558Y-76471467D01*
X199725136Y-76460186D01*
X199677037Y-76301626D01*
X199664000Y-76169257D01*
X199664000Y-75830742D01*
X199677037Y-75698373D01*
X199728557Y-75528534D01*
X199812222Y-75372009D01*
X199924815Y-75234815D01*
X200062010Y-75122222D01*
X200218535Y-75038557D01*
X200388374Y-74987037D01*
X200565000Y-74969641D01*
X200741627Y-74987037D01*
G37*
G36*
X205741627Y-74987037D02*
G01*
X205911466Y-75038557D01*
X206067991Y-75122222D01*
X206086635Y-75137523D01*
X206205186Y-75234814D01*
X206272642Y-75317011D01*
X206317778Y-75372009D01*
X206401443Y-75528534D01*
X206452963Y-75698374D01*
X206466000Y-75830743D01*
X206466000Y-76169258D01*
X206452963Y-76301627D01*
X206401443Y-76471466D01*
X206317778Y-76627991D01*
X206294429Y-76656442D01*
X206205186Y-76765186D01*
X206067989Y-76877779D01*
X205911467Y-76961442D01*
X205911465Y-76961443D01*
X205741626Y-77012963D01*
X205565000Y-77030359D01*
X205388373Y-77012963D01*
X205218534Y-76961443D01*
X205062009Y-76877778D01*
X205017608Y-76841339D01*
X204924814Y-76765186D01*
X204812221Y-76627989D01*
X204728558Y-76471467D01*
X204725136Y-76460186D01*
X204677037Y-76301626D01*
X204664000Y-76169257D01*
X204664000Y-75830742D01*
X204677037Y-75698373D01*
X204728557Y-75528534D01*
X204812222Y-75372009D01*
X204924815Y-75234815D01*
X205062010Y-75122222D01*
X205218535Y-75038557D01*
X205388374Y-74987037D01*
X205565000Y-74969641D01*
X205741627Y-74987037D01*
G37*
G36*
X208823698Y-74977987D02*
G01*
X208856724Y-74988005D01*
X208887159Y-75004273D01*
X208913835Y-75026165D01*
X208935727Y-75052841D01*
X208951995Y-75083276D01*
X208962013Y-75116302D01*
X208966000Y-75156784D01*
X208966000Y-76843216D01*
X208962013Y-76883698D01*
X208951995Y-76916724D01*
X208935727Y-76947159D01*
X208913835Y-76973835D01*
X208887159Y-76995727D01*
X208856724Y-77011995D01*
X208823698Y-77022013D01*
X208783216Y-77026000D01*
X207346784Y-77026000D01*
X207306302Y-77022013D01*
X207273276Y-77011995D01*
X207242841Y-76995727D01*
X207216165Y-76973835D01*
X207194273Y-76947159D01*
X207178005Y-76916724D01*
X207167987Y-76883698D01*
X207164000Y-76843216D01*
X207164000Y-75156784D01*
X207167987Y-75116302D01*
X207178005Y-75083276D01*
X207194273Y-75052841D01*
X207216165Y-75026165D01*
X207242841Y-75004273D01*
X207273276Y-74988005D01*
X207306302Y-74977987D01*
X207346784Y-74974000D01*
X208783216Y-74974000D01*
X208823698Y-74977987D01*
G37*
G36*
X193596626Y-74847037D02*
G01*
X193766465Y-74898557D01*
X193766467Y-74898558D01*
X193922989Y-74982221D01*
X194060186Y-75094814D01*
X194129943Y-75179815D01*
X194172778Y-75232009D01*
X194256443Y-75388534D01*
X194307963Y-75558373D01*
X194321000Y-75690742D01*
X194321000Y-76029257D01*
X194307963Y-76161626D01*
X194256443Y-76331466D01*
X194172778Y-76487991D01*
X194143448Y-76523729D01*
X194060186Y-76625186D01*
X193965250Y-76703097D01*
X193922991Y-76737778D01*
X193766466Y-76821443D01*
X193596627Y-76872963D01*
X193420000Y-76890359D01*
X193243374Y-76872963D01*
X193073535Y-76821443D01*
X192917010Y-76737778D01*
X192779815Y-76625185D01*
X192667222Y-76487991D01*
X192583557Y-76331466D01*
X192532037Y-76161627D01*
X192519000Y-76029258D01*
X192519000Y-75690743D01*
X192532037Y-75558374D01*
X192583557Y-75388535D01*
X192592390Y-75372009D01*
X192667221Y-75232011D01*
X192779814Y-75094814D01*
X192890140Y-75004273D01*
X192917009Y-74982222D01*
X193073534Y-74898557D01*
X193243373Y-74847037D01*
X193420000Y-74829641D01*
X193596626Y-74847037D01*
G37*
G36*
X191096626Y-74847037D02*
G01*
X191266465Y-74898557D01*
X191266467Y-74898558D01*
X191422989Y-74982221D01*
X191560186Y-75094814D01*
X191629943Y-75179815D01*
X191672778Y-75232009D01*
X191756443Y-75388534D01*
X191807963Y-75558373D01*
X191821000Y-75690742D01*
X191821000Y-76029257D01*
X191807963Y-76161626D01*
X191756443Y-76331466D01*
X191672778Y-76487991D01*
X191643448Y-76523729D01*
X191560186Y-76625186D01*
X191465250Y-76703097D01*
X191422991Y-76737778D01*
X191266466Y-76821443D01*
X191096627Y-76872963D01*
X190920000Y-76890359D01*
X190743374Y-76872963D01*
X190573535Y-76821443D01*
X190417010Y-76737778D01*
X190279815Y-76625185D01*
X190167222Y-76487991D01*
X190083557Y-76331466D01*
X190032037Y-76161627D01*
X190019000Y-76029258D01*
X190019000Y-75690743D01*
X190032037Y-75558374D01*
X190083557Y-75388535D01*
X190092390Y-75372009D01*
X190167221Y-75232011D01*
X190279814Y-75094814D01*
X190390140Y-75004273D01*
X190417009Y-74982222D01*
X190573534Y-74898557D01*
X190743373Y-74847037D01*
X190920000Y-74829641D01*
X191096626Y-74847037D01*
G37*
G36*
X189178600Y-74837989D02*
G01*
X189211652Y-74848015D01*
X189242103Y-74864292D01*
X189268799Y-74886201D01*
X189290708Y-74912897D01*
X189306985Y-74943348D01*
X189317011Y-74976400D01*
X189321000Y-75016903D01*
X189321000Y-76703097D01*
X189317011Y-76743600D01*
X189306985Y-76776652D01*
X189290708Y-76807103D01*
X189268799Y-76833799D01*
X189242103Y-76855708D01*
X189211652Y-76871985D01*
X189178600Y-76882011D01*
X189138097Y-76886000D01*
X187701903Y-76886000D01*
X187661400Y-76882011D01*
X187628348Y-76871985D01*
X187597897Y-76855708D01*
X187571201Y-76833799D01*
X187549292Y-76807103D01*
X187533015Y-76776652D01*
X187522989Y-76743600D01*
X187519000Y-76703097D01*
X187519000Y-75016903D01*
X187522989Y-74976400D01*
X187533015Y-74943348D01*
X187549292Y-74912897D01*
X187571201Y-74886201D01*
X187597897Y-74864292D01*
X187628348Y-74848015D01*
X187661400Y-74837989D01*
X187701903Y-74834000D01*
X189138097Y-74834000D01*
X189178600Y-74837989D01*
G37*
G36*
X145460443Y-74925519D02*
G01*
X145526627Y-74932037D01*
X145696466Y-74983557D01*
X145696468Y-74983558D01*
X145762107Y-75018643D01*
X145852991Y-75067222D01*
X145882850Y-75091727D01*
X145990186Y-75179814D01*
X146073448Y-75281271D01*
X146102778Y-75317009D01*
X146186443Y-75473534D01*
X146237963Y-75643373D01*
X146255359Y-75820000D01*
X146237963Y-75996627D01*
X146186443Y-76166466D01*
X146102778Y-76322991D01*
X146095821Y-76331468D01*
X145990186Y-76460186D01*
X145888729Y-76543448D01*
X145852991Y-76572778D01*
X145696466Y-76656443D01*
X145526627Y-76707963D01*
X145460443Y-76714481D01*
X145394260Y-76721000D01*
X145005740Y-76721000D01*
X144939557Y-76714481D01*
X144873373Y-76707963D01*
X144703534Y-76656443D01*
X144547009Y-76572778D01*
X144511271Y-76543448D01*
X144409814Y-76460186D01*
X144304179Y-76331468D01*
X144297222Y-76322991D01*
X144213557Y-76166466D01*
X144162037Y-75996627D01*
X144144641Y-75820000D01*
X144162037Y-75643373D01*
X144213557Y-75473534D01*
X144297222Y-75317009D01*
X144326552Y-75281271D01*
X144409814Y-75179814D01*
X144517150Y-75091727D01*
X144547009Y-75067222D01*
X144637893Y-75018643D01*
X144703532Y-74983558D01*
X144703534Y-74983557D01*
X144873373Y-74932037D01*
X144939557Y-74925519D01*
X145005740Y-74919000D01*
X145394260Y-74919000D01*
X145460443Y-74925519D01*
G37*
G36*
X172130443Y-74925519D02*
G01*
X172196627Y-74932037D01*
X172366466Y-74983557D01*
X172366468Y-74983558D01*
X172432107Y-75018643D01*
X172522991Y-75067222D01*
X172552850Y-75091727D01*
X172660186Y-75179814D01*
X172743448Y-75281271D01*
X172772778Y-75317009D01*
X172856443Y-75473534D01*
X172907963Y-75643373D01*
X172925359Y-75820000D01*
X172907963Y-75996627D01*
X172856443Y-76166466D01*
X172772778Y-76322991D01*
X172765821Y-76331468D01*
X172660186Y-76460186D01*
X172558729Y-76543448D01*
X172522991Y-76572778D01*
X172366466Y-76656443D01*
X172196627Y-76707963D01*
X172130443Y-76714481D01*
X172064260Y-76721000D01*
X171675740Y-76721000D01*
X171609557Y-76714481D01*
X171543373Y-76707963D01*
X171373534Y-76656443D01*
X171217009Y-76572778D01*
X171181271Y-76543448D01*
X171079814Y-76460186D01*
X170974179Y-76331468D01*
X170967222Y-76322991D01*
X170883557Y-76166466D01*
X170832037Y-75996627D01*
X170814641Y-75820000D01*
X170832037Y-75643373D01*
X170883557Y-75473534D01*
X170967222Y-75317009D01*
X170996552Y-75281271D01*
X171079814Y-75179814D01*
X171187150Y-75091727D01*
X171217009Y-75067222D01*
X171307893Y-75018643D01*
X171373532Y-74983558D01*
X171373534Y-74983557D01*
X171543373Y-74932037D01*
X171609557Y-74925519D01*
X171675740Y-74919000D01*
X172064260Y-74919000D01*
X172130443Y-74925519D01*
G37*
G36*
X181020443Y-74925519D02*
G01*
X181086627Y-74932037D01*
X181256466Y-74983557D01*
X181256468Y-74983558D01*
X181322107Y-75018643D01*
X181412991Y-75067222D01*
X181442850Y-75091727D01*
X181550186Y-75179814D01*
X181633448Y-75281271D01*
X181662778Y-75317009D01*
X181746443Y-75473534D01*
X181797963Y-75643373D01*
X181815359Y-75820000D01*
X181797963Y-75996627D01*
X181746443Y-76166466D01*
X181662778Y-76322991D01*
X181655821Y-76331468D01*
X181550186Y-76460186D01*
X181448729Y-76543448D01*
X181412991Y-76572778D01*
X181256466Y-76656443D01*
X181086627Y-76707963D01*
X181020443Y-76714481D01*
X180954260Y-76721000D01*
X180565740Y-76721000D01*
X180499557Y-76714481D01*
X180433373Y-76707963D01*
X180263534Y-76656443D01*
X180107009Y-76572778D01*
X180071271Y-76543448D01*
X179969814Y-76460186D01*
X179864179Y-76331468D01*
X179857222Y-76322991D01*
X179773557Y-76166466D01*
X179722037Y-75996627D01*
X179704641Y-75820000D01*
X179722037Y-75643373D01*
X179773557Y-75473534D01*
X179857222Y-75317009D01*
X179886552Y-75281271D01*
X179969814Y-75179814D01*
X180077150Y-75091727D01*
X180107009Y-75067222D01*
X180197893Y-75018643D01*
X180263532Y-74983558D01*
X180263534Y-74983557D01*
X180433373Y-74932037D01*
X180499557Y-74925519D01*
X180565740Y-74919000D01*
X180954260Y-74919000D01*
X181020443Y-74925519D01*
G37*
G36*
X163240443Y-74925519D02*
G01*
X163306627Y-74932037D01*
X163476466Y-74983557D01*
X163476468Y-74983558D01*
X163542107Y-75018643D01*
X163632991Y-75067222D01*
X163662850Y-75091727D01*
X163770186Y-75179814D01*
X163853448Y-75281271D01*
X163882778Y-75317009D01*
X163966443Y-75473534D01*
X164017963Y-75643373D01*
X164035359Y-75820000D01*
X164017963Y-75996627D01*
X163966443Y-76166466D01*
X163882778Y-76322991D01*
X163875821Y-76331468D01*
X163770186Y-76460186D01*
X163668729Y-76543448D01*
X163632991Y-76572778D01*
X163476466Y-76656443D01*
X163306627Y-76707963D01*
X163240443Y-76714481D01*
X163174260Y-76721000D01*
X162785740Y-76721000D01*
X162719557Y-76714481D01*
X162653373Y-76707963D01*
X162483534Y-76656443D01*
X162327009Y-76572778D01*
X162291271Y-76543448D01*
X162189814Y-76460186D01*
X162084179Y-76331468D01*
X162077222Y-76322991D01*
X161993557Y-76166466D01*
X161942037Y-75996627D01*
X161924641Y-75820000D01*
X161942037Y-75643373D01*
X161993557Y-75473534D01*
X162077222Y-75317009D01*
X162106552Y-75281271D01*
X162189814Y-75179814D01*
X162297150Y-75091727D01*
X162327009Y-75067222D01*
X162417893Y-75018643D01*
X162483532Y-74983558D01*
X162483534Y-74983557D01*
X162653373Y-74932037D01*
X162719557Y-74925519D01*
X162785740Y-74919000D01*
X163174260Y-74919000D01*
X163240443Y-74925519D01*
G37*
G36*
X154350443Y-74925519D02*
G01*
X154416627Y-74932037D01*
X154586466Y-74983557D01*
X154586468Y-74983558D01*
X154652107Y-75018643D01*
X154742991Y-75067222D01*
X154772850Y-75091727D01*
X154880186Y-75179814D01*
X154963448Y-75281271D01*
X154992778Y-75317009D01*
X155076443Y-75473534D01*
X155127963Y-75643373D01*
X155145359Y-75820000D01*
X155127963Y-75996627D01*
X155076443Y-76166466D01*
X154992778Y-76322991D01*
X154985821Y-76331468D01*
X154880186Y-76460186D01*
X154778729Y-76543448D01*
X154742991Y-76572778D01*
X154586466Y-76656443D01*
X154416627Y-76707963D01*
X154350443Y-76714481D01*
X154284260Y-76721000D01*
X153895740Y-76721000D01*
X153829557Y-76714481D01*
X153763373Y-76707963D01*
X153593534Y-76656443D01*
X153437009Y-76572778D01*
X153401271Y-76543448D01*
X153299814Y-76460186D01*
X153194179Y-76331468D01*
X153187222Y-76322991D01*
X153103557Y-76166466D01*
X153052037Y-75996627D01*
X153034641Y-75820000D01*
X153052037Y-75643373D01*
X153103557Y-75473534D01*
X153187222Y-75317009D01*
X153216552Y-75281271D01*
X153299814Y-75179814D01*
X153407150Y-75091727D01*
X153437009Y-75067222D01*
X153527893Y-75018643D01*
X153593532Y-74983558D01*
X153593534Y-74983557D01*
X153763373Y-74932037D01*
X153829557Y-74925519D01*
X153895740Y-74919000D01*
X154284260Y-74919000D01*
X154350443Y-74925519D01*
G37*
G36*
X136570443Y-74925519D02*
G01*
X136636627Y-74932037D01*
X136806466Y-74983557D01*
X136806468Y-74983558D01*
X136872107Y-75018643D01*
X136962991Y-75067222D01*
X136992850Y-75091727D01*
X137100186Y-75179814D01*
X137183448Y-75281271D01*
X137212778Y-75317009D01*
X137296443Y-75473534D01*
X137347963Y-75643373D01*
X137365359Y-75820000D01*
X137347963Y-75996627D01*
X137296443Y-76166466D01*
X137212778Y-76322991D01*
X137205821Y-76331468D01*
X137100186Y-76460186D01*
X136998729Y-76543448D01*
X136962991Y-76572778D01*
X136806466Y-76656443D01*
X136636627Y-76707963D01*
X136570443Y-76714481D01*
X136504260Y-76721000D01*
X136115740Y-76721000D01*
X136049557Y-76714481D01*
X135983373Y-76707963D01*
X135813534Y-76656443D01*
X135657009Y-76572778D01*
X135621271Y-76543448D01*
X135519814Y-76460186D01*
X135414179Y-76331468D01*
X135407222Y-76322991D01*
X135323557Y-76166466D01*
X135272037Y-75996627D01*
X135254641Y-75820000D01*
X135272037Y-75643373D01*
X135323557Y-75473534D01*
X135407222Y-75317009D01*
X135436552Y-75281271D01*
X135519814Y-75179814D01*
X135627150Y-75091727D01*
X135657009Y-75067222D01*
X135747893Y-75018643D01*
X135813532Y-74983558D01*
X135813534Y-74983557D01*
X135983373Y-74932037D01*
X136049557Y-74925519D01*
X136115740Y-74919000D01*
X136504260Y-74919000D01*
X136570443Y-74925519D01*
G37*
G36*
X127680443Y-74925519D02*
G01*
X127746627Y-74932037D01*
X127916466Y-74983557D01*
X127916468Y-74983558D01*
X127982107Y-75018643D01*
X128072991Y-75067222D01*
X128102850Y-75091727D01*
X128210186Y-75179814D01*
X128293448Y-75281271D01*
X128322778Y-75317009D01*
X128406443Y-75473534D01*
X128457963Y-75643373D01*
X128475359Y-75820000D01*
X128457963Y-75996627D01*
X128406443Y-76166466D01*
X128322778Y-76322991D01*
X128315821Y-76331468D01*
X128210186Y-76460186D01*
X128108729Y-76543448D01*
X128072991Y-76572778D01*
X127916466Y-76656443D01*
X127746627Y-76707963D01*
X127680443Y-76714481D01*
X127614260Y-76721000D01*
X127225740Y-76721000D01*
X127159557Y-76714481D01*
X127093373Y-76707963D01*
X126923534Y-76656443D01*
X126767009Y-76572778D01*
X126731271Y-76543448D01*
X126629814Y-76460186D01*
X126524179Y-76331468D01*
X126517222Y-76322991D01*
X126433557Y-76166466D01*
X126382037Y-75996627D01*
X126364641Y-75820000D01*
X126382037Y-75643373D01*
X126433557Y-75473534D01*
X126517222Y-75317009D01*
X126546552Y-75281271D01*
X126629814Y-75179814D01*
X126737150Y-75091727D01*
X126767009Y-75067222D01*
X126857893Y-75018643D01*
X126923532Y-74983558D01*
X126923534Y-74983557D01*
X127093373Y-74932037D01*
X127159557Y-74925519D01*
X127225740Y-74919000D01*
X127614260Y-74919000D01*
X127680443Y-74925519D01*
G37*
G36*
X146108600Y-72422989D02*
G01*
X146141652Y-72433015D01*
X146172103Y-72449292D01*
X146198799Y-72471201D01*
X146220708Y-72497897D01*
X146236985Y-72528348D01*
X146247011Y-72561400D01*
X146251000Y-72601903D01*
X146251000Y-74038097D01*
X146247011Y-74078600D01*
X146236985Y-74111652D01*
X146220708Y-74142103D01*
X146198799Y-74168799D01*
X146172103Y-74190708D01*
X146141652Y-74206985D01*
X146108600Y-74217011D01*
X146068097Y-74221000D01*
X144331903Y-74221000D01*
X144291400Y-74217011D01*
X144258348Y-74206985D01*
X144227897Y-74190708D01*
X144201201Y-74168799D01*
X144179292Y-74142103D01*
X144163015Y-74111652D01*
X144152989Y-74078600D01*
X144149000Y-74038097D01*
X144149000Y-72601903D01*
X144152989Y-72561400D01*
X144163015Y-72528348D01*
X144179292Y-72497897D01*
X144201201Y-72471201D01*
X144227897Y-72449292D01*
X144258348Y-72433015D01*
X144291400Y-72422989D01*
X144331903Y-72419000D01*
X146068097Y-72419000D01*
X146108600Y-72422989D01*
G37*
G36*
X137218600Y-72422989D02*
G01*
X137251652Y-72433015D01*
X137282103Y-72449292D01*
X137308799Y-72471201D01*
X137330708Y-72497897D01*
X137346985Y-72528348D01*
X137357011Y-72561400D01*
X137361000Y-72601903D01*
X137361000Y-74038097D01*
X137357011Y-74078600D01*
X137346985Y-74111652D01*
X137330708Y-74142103D01*
X137308799Y-74168799D01*
X137282103Y-74190708D01*
X137251652Y-74206985D01*
X137218600Y-74217011D01*
X137178097Y-74221000D01*
X135441903Y-74221000D01*
X135401400Y-74217011D01*
X135368348Y-74206985D01*
X135337897Y-74190708D01*
X135311201Y-74168799D01*
X135289292Y-74142103D01*
X135273015Y-74111652D01*
X135262989Y-74078600D01*
X135259000Y-74038097D01*
X135259000Y-72601903D01*
X135262989Y-72561400D01*
X135273015Y-72528348D01*
X135289292Y-72497897D01*
X135311201Y-72471201D01*
X135337897Y-72449292D01*
X135368348Y-72433015D01*
X135401400Y-72422989D01*
X135441903Y-72419000D01*
X137178097Y-72419000D01*
X137218600Y-72422989D01*
G37*
G36*
X181668600Y-72422989D02*
G01*
X181701652Y-72433015D01*
X181732103Y-72449292D01*
X181758799Y-72471201D01*
X181780708Y-72497897D01*
X181796985Y-72528348D01*
X181807011Y-72561400D01*
X181811000Y-72601903D01*
X181811000Y-74038097D01*
X181807011Y-74078600D01*
X181796985Y-74111652D01*
X181780708Y-74142103D01*
X181758799Y-74168799D01*
X181732103Y-74190708D01*
X181701652Y-74206985D01*
X181668600Y-74217011D01*
X181628097Y-74221000D01*
X179891903Y-74221000D01*
X179851400Y-74217011D01*
X179818348Y-74206985D01*
X179787897Y-74190708D01*
X179761201Y-74168799D01*
X179739292Y-74142103D01*
X179723015Y-74111652D01*
X179712989Y-74078600D01*
X179709000Y-74038097D01*
X179709000Y-72601903D01*
X179712989Y-72561400D01*
X179723015Y-72528348D01*
X179739292Y-72497897D01*
X179761201Y-72471201D01*
X179787897Y-72449292D01*
X179818348Y-72433015D01*
X179851400Y-72422989D01*
X179891903Y-72419000D01*
X181628097Y-72419000D01*
X181668600Y-72422989D01*
G37*
G36*
X154998600Y-72422989D02*
G01*
X155031652Y-72433015D01*
X155062103Y-72449292D01*
X155088799Y-72471201D01*
X155110708Y-72497897D01*
X155126985Y-72528348D01*
X155137011Y-72561400D01*
X155141000Y-72601903D01*
X155141000Y-74038097D01*
X155137011Y-74078600D01*
X155126985Y-74111652D01*
X155110708Y-74142103D01*
X155088799Y-74168799D01*
X155062103Y-74190708D01*
X155031652Y-74206985D01*
X154998600Y-74217011D01*
X154958097Y-74221000D01*
X153221903Y-74221000D01*
X153181400Y-74217011D01*
X153148348Y-74206985D01*
X153117897Y-74190708D01*
X153091201Y-74168799D01*
X153069292Y-74142103D01*
X153053015Y-74111652D01*
X153042989Y-74078600D01*
X153039000Y-74038097D01*
X153039000Y-72601903D01*
X153042989Y-72561400D01*
X153053015Y-72528348D01*
X153069292Y-72497897D01*
X153091201Y-72471201D01*
X153117897Y-72449292D01*
X153148348Y-72433015D01*
X153181400Y-72422989D01*
X153221903Y-72419000D01*
X154958097Y-72419000D01*
X154998600Y-72422989D01*
G37*
G36*
X172778600Y-72422989D02*
G01*
X172811652Y-72433015D01*
X172842103Y-72449292D01*
X172868799Y-72471201D01*
X172890708Y-72497897D01*
X172906985Y-72528348D01*
X172917011Y-72561400D01*
X172921000Y-72601903D01*
X172921000Y-74038097D01*
X172917011Y-74078600D01*
X172906985Y-74111652D01*
X172890708Y-74142103D01*
X172868799Y-74168799D01*
X172842103Y-74190708D01*
X172811652Y-74206985D01*
X172778600Y-74217011D01*
X172738097Y-74221000D01*
X171001903Y-74221000D01*
X170961400Y-74217011D01*
X170928348Y-74206985D01*
X170897897Y-74190708D01*
X170871201Y-74168799D01*
X170849292Y-74142103D01*
X170833015Y-74111652D01*
X170822989Y-74078600D01*
X170819000Y-74038097D01*
X170819000Y-72601903D01*
X170822989Y-72561400D01*
X170833015Y-72528348D01*
X170849292Y-72497897D01*
X170871201Y-72471201D01*
X170897897Y-72449292D01*
X170928348Y-72433015D01*
X170961400Y-72422989D01*
X171001903Y-72419000D01*
X172738097Y-72419000D01*
X172778600Y-72422989D01*
G37*
G36*
X163888600Y-72422989D02*
G01*
X163921652Y-72433015D01*
X163952103Y-72449292D01*
X163978799Y-72471201D01*
X164000708Y-72497897D01*
X164016985Y-72528348D01*
X164027011Y-72561400D01*
X164031000Y-72601903D01*
X164031000Y-74038097D01*
X164027011Y-74078600D01*
X164016985Y-74111652D01*
X164000708Y-74142103D01*
X163978799Y-74168799D01*
X163952103Y-74190708D01*
X163921652Y-74206985D01*
X163888600Y-74217011D01*
X163848097Y-74221000D01*
X162111903Y-74221000D01*
X162071400Y-74217011D01*
X162038348Y-74206985D01*
X162007897Y-74190708D01*
X161981201Y-74168799D01*
X161959292Y-74142103D01*
X161943015Y-74111652D01*
X161932989Y-74078600D01*
X161929000Y-74038097D01*
X161929000Y-72601903D01*
X161932989Y-72561400D01*
X161943015Y-72528348D01*
X161959292Y-72497897D01*
X161981201Y-72471201D01*
X162007897Y-72449292D01*
X162038348Y-72433015D01*
X162071400Y-72422989D01*
X162111903Y-72419000D01*
X163848097Y-72419000D01*
X163888600Y-72422989D01*
G37*
G36*
X128328600Y-72422989D02*
G01*
X128361652Y-72433015D01*
X128392103Y-72449292D01*
X128418799Y-72471201D01*
X128440708Y-72497897D01*
X128456985Y-72528348D01*
X128467011Y-72561400D01*
X128471000Y-72601903D01*
X128471000Y-74038097D01*
X128467011Y-74078600D01*
X128456985Y-74111652D01*
X128440708Y-74142103D01*
X128418799Y-74168799D01*
X128392103Y-74190708D01*
X128361652Y-74206985D01*
X128328600Y-74217011D01*
X128288097Y-74221000D01*
X126551903Y-74221000D01*
X126511400Y-74217011D01*
X126478348Y-74206985D01*
X126447897Y-74190708D01*
X126421201Y-74168799D01*
X126399292Y-74142103D01*
X126383015Y-74111652D01*
X126372989Y-74078600D01*
X126369000Y-74038097D01*
X126369000Y-72601903D01*
X126372989Y-72561400D01*
X126383015Y-72528348D01*
X126399292Y-72497897D01*
X126421201Y-72471201D01*
X126447897Y-72449292D01*
X126478348Y-72433015D01*
X126511400Y-72422989D01*
X126551903Y-72419000D01*
X128288097Y-72419000D01*
X128328600Y-72422989D01*
G37*
G36*
X195631000Y-71851000D02*
G01*
X194729000Y-71851000D01*
X194729000Y-70149000D01*
X195631000Y-70149000D01*
X195631000Y-71851000D01*
G37*
G36*
X188011000Y-71851000D02*
G01*
X187109000Y-71851000D01*
X187109000Y-70149000D01*
X188011000Y-70149000D01*
X188011000Y-71851000D01*
G37*
G36*
X190551000Y-71851000D02*
G01*
X189649000Y-71851000D01*
X189649000Y-70149000D01*
X190551000Y-70149000D01*
X190551000Y-71851000D01*
G37*
G36*
X193091000Y-71851000D02*
G01*
X192189000Y-71851000D01*
X192189000Y-70149000D01*
X193091000Y-70149000D01*
X193091000Y-71851000D01*
G37*
G36*
X190551000Y-62751000D02*
G01*
X189649000Y-62751000D01*
X189649000Y-61049000D01*
X190551000Y-61049000D01*
X190551000Y-62751000D01*
G37*
G36*
X188011000Y-62751000D02*
G01*
X187109000Y-62751000D01*
X187109000Y-61049000D01*
X188011000Y-61049000D01*
X188011000Y-62751000D01*
G37*
G36*
X195631000Y-62751000D02*
G01*
X194729000Y-62751000D01*
X194729000Y-61049000D01*
X195631000Y-61049000D01*
X195631000Y-62751000D01*
G37*
G36*
X193091000Y-62751000D02*
G01*
X192189000Y-62751000D01*
X192189000Y-61049000D01*
X193091000Y-61049000D01*
X193091000Y-62751000D01*
G37*
G36*
X154350442Y-59685518D02*
G01*
X154416627Y-59692037D01*
X154586466Y-59743557D01*
X154742991Y-59827222D01*
X154778729Y-59856552D01*
X154880186Y-59939814D01*
X154963448Y-60041271D01*
X154992778Y-60077009D01*
X155076443Y-60233534D01*
X155127963Y-60403373D01*
X155145359Y-60580000D01*
X155127963Y-60756627D01*
X155076443Y-60926466D01*
X154992778Y-61082991D01*
X154963448Y-61118729D01*
X154880186Y-61220186D01*
X154778729Y-61303448D01*
X154742991Y-61332778D01*
X154586466Y-61416443D01*
X154416627Y-61467963D01*
X154350442Y-61474482D01*
X154284260Y-61481000D01*
X153895740Y-61481000D01*
X153829558Y-61474482D01*
X153763373Y-61467963D01*
X153593534Y-61416443D01*
X153437009Y-61332778D01*
X153401271Y-61303448D01*
X153299814Y-61220186D01*
X153216552Y-61118729D01*
X153187222Y-61082991D01*
X153103557Y-60926466D01*
X153052037Y-60756627D01*
X153034641Y-60580000D01*
X153052037Y-60403373D01*
X153103557Y-60233534D01*
X153187222Y-60077009D01*
X153216552Y-60041271D01*
X153299814Y-59939814D01*
X153401271Y-59856552D01*
X153437009Y-59827222D01*
X153593534Y-59743557D01*
X153763373Y-59692037D01*
X153829558Y-59685518D01*
X153895740Y-59679000D01*
X154284260Y-59679000D01*
X154350442Y-59685518D01*
G37*
G36*
X172130442Y-59685518D02*
G01*
X172196627Y-59692037D01*
X172366466Y-59743557D01*
X172522991Y-59827222D01*
X172558729Y-59856552D01*
X172660186Y-59939814D01*
X172743448Y-60041271D01*
X172772778Y-60077009D01*
X172856443Y-60233534D01*
X172907963Y-60403373D01*
X172925359Y-60580000D01*
X172907963Y-60756627D01*
X172856443Y-60926466D01*
X172772778Y-61082991D01*
X172743448Y-61118729D01*
X172660186Y-61220186D01*
X172558729Y-61303448D01*
X172522991Y-61332778D01*
X172366466Y-61416443D01*
X172196627Y-61467963D01*
X172130442Y-61474482D01*
X172064260Y-61481000D01*
X171675740Y-61481000D01*
X171609558Y-61474482D01*
X171543373Y-61467963D01*
X171373534Y-61416443D01*
X171217009Y-61332778D01*
X171181271Y-61303448D01*
X171079814Y-61220186D01*
X170996552Y-61118729D01*
X170967222Y-61082991D01*
X170883557Y-60926466D01*
X170832037Y-60756627D01*
X170814641Y-60580000D01*
X170832037Y-60403373D01*
X170883557Y-60233534D01*
X170967222Y-60077009D01*
X170996552Y-60041271D01*
X171079814Y-59939814D01*
X171181271Y-59856552D01*
X171217009Y-59827222D01*
X171373534Y-59743557D01*
X171543373Y-59692037D01*
X171609558Y-59685518D01*
X171675740Y-59679000D01*
X172064260Y-59679000D01*
X172130442Y-59685518D01*
G37*
G36*
X163240442Y-59685518D02*
G01*
X163306627Y-59692037D01*
X163476466Y-59743557D01*
X163632991Y-59827222D01*
X163668729Y-59856552D01*
X163770186Y-59939814D01*
X163853448Y-60041271D01*
X163882778Y-60077009D01*
X163966443Y-60233534D01*
X164017963Y-60403373D01*
X164035359Y-60580000D01*
X164017963Y-60756627D01*
X163966443Y-60926466D01*
X163882778Y-61082991D01*
X163853448Y-61118729D01*
X163770186Y-61220186D01*
X163668729Y-61303448D01*
X163632991Y-61332778D01*
X163476466Y-61416443D01*
X163306627Y-61467963D01*
X163240442Y-61474482D01*
X163174260Y-61481000D01*
X162785740Y-61481000D01*
X162719558Y-61474482D01*
X162653373Y-61467963D01*
X162483534Y-61416443D01*
X162327009Y-61332778D01*
X162291271Y-61303448D01*
X162189814Y-61220186D01*
X162106552Y-61118729D01*
X162077222Y-61082991D01*
X161993557Y-60926466D01*
X161942037Y-60756627D01*
X161924641Y-60580000D01*
X161942037Y-60403373D01*
X161993557Y-60233534D01*
X162077222Y-60077009D01*
X162106552Y-60041271D01*
X162189814Y-59939814D01*
X162291271Y-59856552D01*
X162327009Y-59827222D01*
X162483534Y-59743557D01*
X162653373Y-59692037D01*
X162719558Y-59685518D01*
X162785740Y-59679000D01*
X163174260Y-59679000D01*
X163240442Y-59685518D01*
G37*
G36*
X127680442Y-59685518D02*
G01*
X127746627Y-59692037D01*
X127916466Y-59743557D01*
X128072991Y-59827222D01*
X128108729Y-59856552D01*
X128210186Y-59939814D01*
X128293448Y-60041271D01*
X128322778Y-60077009D01*
X128406443Y-60233534D01*
X128457963Y-60403373D01*
X128475359Y-60580000D01*
X128457963Y-60756627D01*
X128406443Y-60926466D01*
X128322778Y-61082991D01*
X128293448Y-61118729D01*
X128210186Y-61220186D01*
X128108729Y-61303448D01*
X128072991Y-61332778D01*
X127916466Y-61416443D01*
X127746627Y-61467963D01*
X127680442Y-61474482D01*
X127614260Y-61481000D01*
X127225740Y-61481000D01*
X127159558Y-61474482D01*
X127093373Y-61467963D01*
X126923534Y-61416443D01*
X126767009Y-61332778D01*
X126731271Y-61303448D01*
X126629814Y-61220186D01*
X126546552Y-61118729D01*
X126517222Y-61082991D01*
X126433557Y-60926466D01*
X126382037Y-60756627D01*
X126364641Y-60580000D01*
X126382037Y-60403373D01*
X126433557Y-60233534D01*
X126517222Y-60077009D01*
X126546552Y-60041271D01*
X126629814Y-59939814D01*
X126731271Y-59856552D01*
X126767009Y-59827222D01*
X126923534Y-59743557D01*
X127093373Y-59692037D01*
X127159558Y-59685518D01*
X127225740Y-59679000D01*
X127614260Y-59679000D01*
X127680442Y-59685518D01*
G37*
G36*
X181020442Y-59685518D02*
G01*
X181086627Y-59692037D01*
X181256466Y-59743557D01*
X181412991Y-59827222D01*
X181448729Y-59856552D01*
X181550186Y-59939814D01*
X181633448Y-60041271D01*
X181662778Y-60077009D01*
X181746443Y-60233534D01*
X181797963Y-60403373D01*
X181815359Y-60580000D01*
X181797963Y-60756627D01*
X181746443Y-60926466D01*
X181662778Y-61082991D01*
X181633448Y-61118729D01*
X181550186Y-61220186D01*
X181448729Y-61303448D01*
X181412991Y-61332778D01*
X181256466Y-61416443D01*
X181086627Y-61467963D01*
X181020442Y-61474482D01*
X180954260Y-61481000D01*
X180565740Y-61481000D01*
X180499558Y-61474482D01*
X180433373Y-61467963D01*
X180263534Y-61416443D01*
X180107009Y-61332778D01*
X180071271Y-61303448D01*
X179969814Y-61220186D01*
X179886552Y-61118729D01*
X179857222Y-61082991D01*
X179773557Y-60926466D01*
X179722037Y-60756627D01*
X179704641Y-60580000D01*
X179722037Y-60403373D01*
X179773557Y-60233534D01*
X179857222Y-60077009D01*
X179886552Y-60041271D01*
X179969814Y-59939814D01*
X180071271Y-59856552D01*
X180107009Y-59827222D01*
X180263534Y-59743557D01*
X180433373Y-59692037D01*
X180499558Y-59685518D01*
X180565740Y-59679000D01*
X180954260Y-59679000D01*
X181020442Y-59685518D01*
G37*
G36*
X136570442Y-59685518D02*
G01*
X136636627Y-59692037D01*
X136806466Y-59743557D01*
X136962991Y-59827222D01*
X136998729Y-59856552D01*
X137100186Y-59939814D01*
X137183448Y-60041271D01*
X137212778Y-60077009D01*
X137296443Y-60233534D01*
X137347963Y-60403373D01*
X137365359Y-60580000D01*
X137347963Y-60756627D01*
X137296443Y-60926466D01*
X137212778Y-61082991D01*
X137183448Y-61118729D01*
X137100186Y-61220186D01*
X136998729Y-61303448D01*
X136962991Y-61332778D01*
X136806466Y-61416443D01*
X136636627Y-61467963D01*
X136570442Y-61474482D01*
X136504260Y-61481000D01*
X136115740Y-61481000D01*
X136049558Y-61474482D01*
X135983373Y-61467963D01*
X135813534Y-61416443D01*
X135657009Y-61332778D01*
X135621271Y-61303448D01*
X135519814Y-61220186D01*
X135436552Y-61118729D01*
X135407222Y-61082991D01*
X135323557Y-60926466D01*
X135272037Y-60756627D01*
X135254641Y-60580000D01*
X135272037Y-60403373D01*
X135323557Y-60233534D01*
X135407222Y-60077009D01*
X135436552Y-60041271D01*
X135519814Y-59939814D01*
X135621271Y-59856552D01*
X135657009Y-59827222D01*
X135813534Y-59743557D01*
X135983373Y-59692037D01*
X136049558Y-59685518D01*
X136115740Y-59679000D01*
X136504260Y-59679000D01*
X136570442Y-59685518D01*
G37*
G36*
X145460442Y-59685518D02*
G01*
X145526627Y-59692037D01*
X145696466Y-59743557D01*
X145852991Y-59827222D01*
X145888729Y-59856552D01*
X145990186Y-59939814D01*
X146073448Y-60041271D01*
X146102778Y-60077009D01*
X146186443Y-60233534D01*
X146237963Y-60403373D01*
X146255359Y-60580000D01*
X146237963Y-60756627D01*
X146186443Y-60926466D01*
X146102778Y-61082991D01*
X146073448Y-61118729D01*
X145990186Y-61220186D01*
X145888729Y-61303448D01*
X145852991Y-61332778D01*
X145696466Y-61416443D01*
X145526627Y-61467963D01*
X145460442Y-61474482D01*
X145394260Y-61481000D01*
X145005740Y-61481000D01*
X144939558Y-61474482D01*
X144873373Y-61467963D01*
X144703534Y-61416443D01*
X144547009Y-61332778D01*
X144511271Y-61303448D01*
X144409814Y-61220186D01*
X144326552Y-61118729D01*
X144297222Y-61082991D01*
X144213557Y-60926466D01*
X144162037Y-60756627D01*
X144144641Y-60580000D01*
X144162037Y-60403373D01*
X144213557Y-60233534D01*
X144297222Y-60077009D01*
X144326552Y-60041271D01*
X144409814Y-59939814D01*
X144511271Y-59856552D01*
X144547009Y-59827222D01*
X144703534Y-59743557D01*
X144873373Y-59692037D01*
X144939558Y-59685518D01*
X145005740Y-59679000D01*
X145394260Y-59679000D01*
X145460442Y-59685518D01*
G37*
G36*
X181668600Y-57182989D02*
G01*
X181701652Y-57193015D01*
X181732103Y-57209292D01*
X181758799Y-57231201D01*
X181780708Y-57257897D01*
X181796985Y-57288348D01*
X181807011Y-57321400D01*
X181811000Y-57361903D01*
X181811000Y-58798097D01*
X181807011Y-58838600D01*
X181796985Y-58871652D01*
X181780708Y-58902103D01*
X181758799Y-58928799D01*
X181732103Y-58950708D01*
X181701652Y-58966985D01*
X181668600Y-58977011D01*
X181628097Y-58981000D01*
X179891903Y-58981000D01*
X179851400Y-58977011D01*
X179818348Y-58966985D01*
X179787897Y-58950708D01*
X179761201Y-58928799D01*
X179739292Y-58902103D01*
X179723015Y-58871652D01*
X179712989Y-58838600D01*
X179709000Y-58798097D01*
X179709000Y-57361903D01*
X179712989Y-57321400D01*
X179723015Y-57288348D01*
X179739292Y-57257897D01*
X179761201Y-57231201D01*
X179787897Y-57209292D01*
X179818348Y-57193015D01*
X179851400Y-57182989D01*
X179891903Y-57179000D01*
X181628097Y-57179000D01*
X181668600Y-57182989D01*
G37*
G36*
X172778600Y-57182989D02*
G01*
X172811652Y-57193015D01*
X172842103Y-57209292D01*
X172868799Y-57231201D01*
X172890708Y-57257897D01*
X172906985Y-57288348D01*
X172917011Y-57321400D01*
X172921000Y-57361903D01*
X172921000Y-58798097D01*
X172917011Y-58838600D01*
X172906985Y-58871652D01*
X172890708Y-58902103D01*
X172868799Y-58928799D01*
X172842103Y-58950708D01*
X172811652Y-58966985D01*
X172778600Y-58977011D01*
X172738097Y-58981000D01*
X171001903Y-58981000D01*
X170961400Y-58977011D01*
X170928348Y-58966985D01*
X170897897Y-58950708D01*
X170871201Y-58928799D01*
X170849292Y-58902103D01*
X170833015Y-58871652D01*
X170822989Y-58838600D01*
X170819000Y-58798097D01*
X170819000Y-57361903D01*
X170822989Y-57321400D01*
X170833015Y-57288348D01*
X170849292Y-57257897D01*
X170871201Y-57231201D01*
X170897897Y-57209292D01*
X170928348Y-57193015D01*
X170961400Y-57182989D01*
X171001903Y-57179000D01*
X172738097Y-57179000D01*
X172778600Y-57182989D01*
G37*
G36*
X163888600Y-57182989D02*
G01*
X163921652Y-57193015D01*
X163952103Y-57209292D01*
X163978799Y-57231201D01*
X164000708Y-57257897D01*
X164016985Y-57288348D01*
X164027011Y-57321400D01*
X164031000Y-57361903D01*
X164031000Y-58798097D01*
X164027011Y-58838600D01*
X164016985Y-58871652D01*
X164000708Y-58902103D01*
X163978799Y-58928799D01*
X163952103Y-58950708D01*
X163921652Y-58966985D01*
X163888600Y-58977011D01*
X163848097Y-58981000D01*
X162111903Y-58981000D01*
X162071400Y-58977011D01*
X162038348Y-58966985D01*
X162007897Y-58950708D01*
X161981201Y-58928799D01*
X161959292Y-58902103D01*
X161943015Y-58871652D01*
X161932989Y-58838600D01*
X161929000Y-58798097D01*
X161929000Y-57361903D01*
X161932989Y-57321400D01*
X161943015Y-57288348D01*
X161959292Y-57257897D01*
X161981201Y-57231201D01*
X162007897Y-57209292D01*
X162038348Y-57193015D01*
X162071400Y-57182989D01*
X162111903Y-57179000D01*
X163848097Y-57179000D01*
X163888600Y-57182989D01*
G37*
G36*
X154998600Y-57182989D02*
G01*
X155031652Y-57193015D01*
X155062103Y-57209292D01*
X155088799Y-57231201D01*
X155110708Y-57257897D01*
X155126985Y-57288348D01*
X155137011Y-57321400D01*
X155141000Y-57361903D01*
X155141000Y-58798097D01*
X155137011Y-58838600D01*
X155126985Y-58871652D01*
X155110708Y-58902103D01*
X155088799Y-58928799D01*
X155062103Y-58950708D01*
X155031652Y-58966985D01*
X154998600Y-58977011D01*
X154958097Y-58981000D01*
X153221903Y-58981000D01*
X153181400Y-58977011D01*
X153148348Y-58966985D01*
X153117897Y-58950708D01*
X153091201Y-58928799D01*
X153069292Y-58902103D01*
X153053015Y-58871652D01*
X153042989Y-58838600D01*
X153039000Y-58798097D01*
X153039000Y-57361903D01*
X153042989Y-57321400D01*
X153053015Y-57288348D01*
X153069292Y-57257897D01*
X153091201Y-57231201D01*
X153117897Y-57209292D01*
X153148348Y-57193015D01*
X153181400Y-57182989D01*
X153221903Y-57179000D01*
X154958097Y-57179000D01*
X154998600Y-57182989D01*
G37*
G36*
X128328600Y-57182989D02*
G01*
X128361652Y-57193015D01*
X128392103Y-57209292D01*
X128418799Y-57231201D01*
X128440708Y-57257897D01*
X128456985Y-57288348D01*
X128467011Y-57321400D01*
X128471000Y-57361903D01*
X128471000Y-58798097D01*
X128467011Y-58838600D01*
X128456985Y-58871652D01*
X128440708Y-58902103D01*
X128418799Y-58928799D01*
X128392103Y-58950708D01*
X128361652Y-58966985D01*
X128328600Y-58977011D01*
X128288097Y-58981000D01*
X126551903Y-58981000D01*
X126511400Y-58977011D01*
X126478348Y-58966985D01*
X126447897Y-58950708D01*
X126421201Y-58928799D01*
X126399292Y-58902103D01*
X126383015Y-58871652D01*
X126372989Y-58838600D01*
X126369000Y-58798097D01*
X126369000Y-57361903D01*
X126372989Y-57321400D01*
X126383015Y-57288348D01*
X126399292Y-57257897D01*
X126421201Y-57231201D01*
X126447897Y-57209292D01*
X126478348Y-57193015D01*
X126511400Y-57182989D01*
X126551903Y-57179000D01*
X128288097Y-57179000D01*
X128328600Y-57182989D01*
G37*
G36*
X146108600Y-57182989D02*
G01*
X146141652Y-57193015D01*
X146172103Y-57209292D01*
X146198799Y-57231201D01*
X146220708Y-57257897D01*
X146236985Y-57288348D01*
X146247011Y-57321400D01*
X146251000Y-57361903D01*
X146251000Y-58798097D01*
X146247011Y-58838600D01*
X146236985Y-58871652D01*
X146220708Y-58902103D01*
X146198799Y-58928799D01*
X146172103Y-58950708D01*
X146141652Y-58966985D01*
X146108600Y-58977011D01*
X146068097Y-58981000D01*
X144331903Y-58981000D01*
X144291400Y-58977011D01*
X144258348Y-58966985D01*
X144227897Y-58950708D01*
X144201201Y-58928799D01*
X144179292Y-58902103D01*
X144163015Y-58871652D01*
X144152989Y-58838600D01*
X144149000Y-58798097D01*
X144149000Y-57361903D01*
X144152989Y-57321400D01*
X144163015Y-57288348D01*
X144179292Y-57257897D01*
X144201201Y-57231201D01*
X144227897Y-57209292D01*
X144258348Y-57193015D01*
X144291400Y-57182989D01*
X144331903Y-57179000D01*
X146068097Y-57179000D01*
X146108600Y-57182989D01*
G37*
G36*
X137218600Y-57182989D02*
G01*
X137251652Y-57193015D01*
X137282103Y-57209292D01*
X137308799Y-57231201D01*
X137330708Y-57257897D01*
X137346985Y-57288348D01*
X137357011Y-57321400D01*
X137361000Y-57361903D01*
X137361000Y-58798097D01*
X137357011Y-58838600D01*
X137346985Y-58871652D01*
X137330708Y-58902103D01*
X137308799Y-58928799D01*
X137282103Y-58950708D01*
X137251652Y-58966985D01*
X137218600Y-58977011D01*
X137178097Y-58981000D01*
X135441903Y-58981000D01*
X135401400Y-58977011D01*
X135368348Y-58966985D01*
X135337897Y-58950708D01*
X135311201Y-58928799D01*
X135289292Y-58902103D01*
X135273015Y-58871652D01*
X135262989Y-58838600D01*
X135259000Y-58798097D01*
X135259000Y-57361903D01*
X135262989Y-57321400D01*
X135273015Y-57288348D01*
X135289292Y-57257897D01*
X135311201Y-57231201D01*
X135337897Y-57209292D01*
X135368348Y-57193015D01*
X135401400Y-57182989D01*
X135441903Y-57179000D01*
X137178097Y-57179000D01*
X137218600Y-57182989D01*
G37*
G36*
X188145000Y-57640000D02*
G01*
X186455000Y-57640000D01*
X186455000Y-56900000D01*
X188145000Y-56900000D01*
X188145000Y-57640000D01*
G37*
G36*
X193545000Y-57640000D02*
G01*
X191855000Y-57640000D01*
X191855000Y-56900000D01*
X193545000Y-56900000D01*
X193545000Y-57640000D01*
G37*
G36*
X188145000Y-56370000D02*
G01*
X186455000Y-56370000D01*
X186455000Y-55630000D01*
X188145000Y-55630000D01*
X188145000Y-56370000D01*
G37*
G36*
X193545000Y-56370000D02*
G01*
X191855000Y-56370000D01*
X191855000Y-55630000D01*
X193545000Y-55630000D01*
X193545000Y-56370000D01*
G37*
G36*
X188145000Y-55100000D02*
G01*
X186455000Y-55100000D01*
X186455000Y-54360000D01*
X188145000Y-54360000D01*
X188145000Y-55100000D01*
G37*
G36*
X193545000Y-55100000D02*
G01*
X191855000Y-55100000D01*
X191855000Y-54360000D01*
X193545000Y-54360000D01*
X193545000Y-55100000D01*
G37*
G36*
X208751000Y-54451000D02*
G01*
X206649000Y-54451000D01*
X206649000Y-52849000D01*
X208751000Y-52849000D01*
X208751000Y-54451000D01*
G37*
G36*
X193545000Y-53830000D02*
G01*
X191855000Y-53830000D01*
X191855000Y-53090000D01*
X193545000Y-53090000D01*
X193545000Y-53830000D01*
G37*
G36*
X188145000Y-53830000D02*
G01*
X186455000Y-53830000D01*
X186455000Y-53090000D01*
X188145000Y-53090000D01*
X188145000Y-53830000D01*
G37*
G36*
X202451000Y-53301000D02*
G01*
X200349000Y-53301000D01*
X200349000Y-49399000D01*
X202451000Y-49399000D01*
X202451000Y-53301000D01*
G37*
G36*
X188145000Y-52560000D02*
G01*
X186455000Y-52560000D01*
X186455000Y-51820000D01*
X188145000Y-51820000D01*
X188145000Y-52560000D01*
G37*
G36*
X193545000Y-52560000D02*
G01*
X191855000Y-52560000D01*
X191855000Y-51820000D01*
X193545000Y-51820000D01*
X193545000Y-52560000D01*
G37*
G36*
X208751000Y-52151000D02*
G01*
X206649000Y-52151000D01*
X206649000Y-50549000D01*
X208751000Y-50549000D01*
X208751000Y-52151000D01*
G37*
G36*
X193545000Y-51290000D02*
G01*
X191855000Y-51290000D01*
X191855000Y-50550000D01*
X193545000Y-50550000D01*
X193545000Y-51290000D01*
G37*
G36*
X188145000Y-51290000D02*
G01*
X186455000Y-51290000D01*
X186455000Y-50550000D01*
X188145000Y-50550000D01*
X188145000Y-51290000D01*
G37*
G36*
X193545000Y-50020000D02*
G01*
X191855000Y-50020000D01*
X191855000Y-49280000D01*
X193545000Y-49280000D01*
X193545000Y-50020000D01*
G37*
G36*
X188145000Y-50020000D02*
G01*
X186455000Y-50020000D01*
X186455000Y-49280000D01*
X188145000Y-49280000D01*
X188145000Y-50020000D01*
G37*
G36*
X208751000Y-49851000D02*
G01*
X206649000Y-49851000D01*
X206649000Y-48249000D01*
X208751000Y-48249000D01*
X208751000Y-49851000D01*
G37*
G36*
X149500442Y-46985518D02*
G01*
X149566627Y-46992037D01*
X149736466Y-47043557D01*
X149892991Y-47127222D01*
X149928729Y-47156552D01*
X150030186Y-47239814D01*
X150113448Y-47341271D01*
X150142778Y-47377009D01*
X150226443Y-47533534D01*
X150277963Y-47703373D01*
X150295359Y-47880000D01*
X150277963Y-48056627D01*
X150226443Y-48226466D01*
X150142778Y-48382991D01*
X150113448Y-48418729D01*
X150030186Y-48520186D01*
X149928729Y-48603448D01*
X149892991Y-48632778D01*
X149736466Y-48716443D01*
X149566627Y-48767963D01*
X149500442Y-48774482D01*
X149434260Y-48781000D01*
X149045740Y-48781000D01*
X148979557Y-48774481D01*
X148913373Y-48767963D01*
X148743534Y-48716443D01*
X148587009Y-48632778D01*
X148551271Y-48603448D01*
X148449814Y-48520186D01*
X148366552Y-48418729D01*
X148337222Y-48382991D01*
X148253557Y-48226466D01*
X148202037Y-48056627D01*
X148184641Y-47880000D01*
X148202037Y-47703373D01*
X148253557Y-47533534D01*
X148337222Y-47377009D01*
X148366552Y-47341271D01*
X148449814Y-47239814D01*
X148551271Y-47156552D01*
X148587009Y-47127222D01*
X148743534Y-47043557D01*
X148913373Y-46992037D01*
X148979557Y-46985519D01*
X149045740Y-46979000D01*
X149434260Y-46979000D01*
X149500442Y-46985518D01*
G37*
G36*
X158390442Y-46985518D02*
G01*
X158456627Y-46992037D01*
X158626466Y-47043557D01*
X158782991Y-47127222D01*
X158818729Y-47156552D01*
X158920186Y-47239814D01*
X159003448Y-47341271D01*
X159032778Y-47377009D01*
X159116443Y-47533534D01*
X159167963Y-47703373D01*
X159185359Y-47880000D01*
X159167963Y-48056627D01*
X159116443Y-48226466D01*
X159032778Y-48382991D01*
X159003448Y-48418729D01*
X158920186Y-48520186D01*
X158818729Y-48603448D01*
X158782991Y-48632778D01*
X158626466Y-48716443D01*
X158456627Y-48767963D01*
X158390442Y-48774482D01*
X158324260Y-48781000D01*
X157935740Y-48781000D01*
X157869557Y-48774481D01*
X157803373Y-48767963D01*
X157633534Y-48716443D01*
X157477009Y-48632778D01*
X157441271Y-48603448D01*
X157339814Y-48520186D01*
X157256552Y-48418729D01*
X157227222Y-48382991D01*
X157143557Y-48226466D01*
X157092037Y-48056627D01*
X157074641Y-47880000D01*
X157092037Y-47703373D01*
X157143557Y-47533534D01*
X157227222Y-47377009D01*
X157256552Y-47341271D01*
X157339814Y-47239814D01*
X157441271Y-47156552D01*
X157477009Y-47127222D01*
X157633534Y-47043557D01*
X157803373Y-46992037D01*
X157869557Y-46985519D01*
X157935740Y-46979000D01*
X158324260Y-46979000D01*
X158390442Y-46985518D01*
G37*
G36*
X167280442Y-46985518D02*
G01*
X167346627Y-46992037D01*
X167516466Y-47043557D01*
X167672991Y-47127222D01*
X167708729Y-47156552D01*
X167810186Y-47239814D01*
X167893448Y-47341271D01*
X167922778Y-47377009D01*
X168006443Y-47533534D01*
X168057963Y-47703373D01*
X168075359Y-47880000D01*
X168057963Y-48056627D01*
X168006443Y-48226466D01*
X167922778Y-48382991D01*
X167893448Y-48418729D01*
X167810186Y-48520186D01*
X167708729Y-48603448D01*
X167672991Y-48632778D01*
X167516466Y-48716443D01*
X167346627Y-48767963D01*
X167280442Y-48774482D01*
X167214260Y-48781000D01*
X166825740Y-48781000D01*
X166759557Y-48774481D01*
X166693373Y-48767963D01*
X166523534Y-48716443D01*
X166367009Y-48632778D01*
X166331271Y-48603448D01*
X166229814Y-48520186D01*
X166146552Y-48418729D01*
X166117222Y-48382991D01*
X166033557Y-48226466D01*
X165982037Y-48056627D01*
X165964641Y-47880000D01*
X165982037Y-47703373D01*
X166033557Y-47533534D01*
X166117222Y-47377009D01*
X166146552Y-47341271D01*
X166229814Y-47239814D01*
X166331271Y-47156552D01*
X166367009Y-47127222D01*
X166523534Y-47043557D01*
X166693373Y-46992037D01*
X166759557Y-46985519D01*
X166825740Y-46979000D01*
X167214260Y-46979000D01*
X167280442Y-46985518D01*
G37*
G36*
X188145000Y-48750000D02*
G01*
X186455000Y-48750000D01*
X186455000Y-48010000D01*
X188145000Y-48010000D01*
X188145000Y-48750000D01*
G37*
G36*
X193545000Y-48750000D02*
G01*
X191855000Y-48750000D01*
X191855000Y-48010000D01*
X193545000Y-48010000D01*
X193545000Y-48750000D01*
G37*
G36*
X159038600Y-44482989D02*
G01*
X159071652Y-44493015D01*
X159102103Y-44509292D01*
X159128799Y-44531201D01*
X159150708Y-44557897D01*
X159166985Y-44588348D01*
X159177011Y-44621400D01*
X159181000Y-44661903D01*
X159181000Y-46098097D01*
X159177011Y-46138600D01*
X159166985Y-46171652D01*
X159150708Y-46202103D01*
X159128799Y-46228799D01*
X159102103Y-46250708D01*
X159071652Y-46266985D01*
X159038600Y-46277011D01*
X158998097Y-46281000D01*
X157261903Y-46281000D01*
X157221400Y-46277011D01*
X157188348Y-46266985D01*
X157157897Y-46250708D01*
X157131201Y-46228799D01*
X157109292Y-46202103D01*
X157093015Y-46171652D01*
X157082989Y-46138600D01*
X157079000Y-46098097D01*
X157079000Y-44661903D01*
X157082989Y-44621400D01*
X157093015Y-44588348D01*
X157109292Y-44557897D01*
X157131201Y-44531201D01*
X157157897Y-44509292D01*
X157188348Y-44493015D01*
X157221400Y-44482989D01*
X157261903Y-44479000D01*
X158998097Y-44479000D01*
X159038600Y-44482989D01*
G37*
G36*
X167928600Y-44482989D02*
G01*
X167961652Y-44493015D01*
X167992103Y-44509292D01*
X168018799Y-44531201D01*
X168040708Y-44557897D01*
X168056985Y-44588348D01*
X168067011Y-44621400D01*
X168071000Y-44661903D01*
X168071000Y-46098097D01*
X168067011Y-46138600D01*
X168056985Y-46171652D01*
X168040708Y-46202103D01*
X168018799Y-46228799D01*
X167992103Y-46250708D01*
X167961652Y-46266985D01*
X167928600Y-46277011D01*
X167888097Y-46281000D01*
X166151903Y-46281000D01*
X166111400Y-46277011D01*
X166078348Y-46266985D01*
X166047897Y-46250708D01*
X166021201Y-46228799D01*
X165999292Y-46202103D01*
X165983015Y-46171652D01*
X165972989Y-46138600D01*
X165969000Y-46098097D01*
X165969000Y-44661903D01*
X165972989Y-44621400D01*
X165983015Y-44588348D01*
X165999292Y-44557897D01*
X166021201Y-44531201D01*
X166047897Y-44509292D01*
X166078348Y-44493015D01*
X166111400Y-44482989D01*
X166151903Y-44479000D01*
X167888097Y-44479000D01*
X167928600Y-44482989D01*
G37*
G36*
X150148600Y-44482989D02*
G01*
X150181652Y-44493015D01*
X150212103Y-44509292D01*
X150238799Y-44531201D01*
X150260708Y-44557897D01*
X150276985Y-44588348D01*
X150287011Y-44621400D01*
X150291000Y-44661903D01*
X150291000Y-46098097D01*
X150287011Y-46138600D01*
X150276985Y-46171652D01*
X150260708Y-46202103D01*
X150238799Y-46228799D01*
X150212103Y-46250708D01*
X150181652Y-46266985D01*
X150148600Y-46277011D01*
X150108097Y-46281000D01*
X148371903Y-46281000D01*
X148331400Y-46277011D01*
X148298348Y-46266985D01*
X148267897Y-46250708D01*
X148241201Y-46228799D01*
X148219292Y-46202103D01*
X148203015Y-46171652D01*
X148192989Y-46138600D01*
X148189000Y-46098097D01*
X148189000Y-44661903D01*
X148192989Y-44621400D01*
X148203015Y-44588348D01*
X148219292Y-44557897D01*
X148241201Y-44531201D01*
X148267897Y-44509292D01*
X148298348Y-44493015D01*
X148331400Y-44482989D01*
X148371903Y-44479000D01*
X150108097Y-44479000D01*
X150148600Y-44482989D01*
G37*
G36*
X202800674Y-44553465D02*
G01*
X202838367Y-44564899D01*
X202873103Y-44583466D01*
X202903548Y-44608452D01*
X202928534Y-44638897D01*
X202947101Y-44673633D01*
X202958535Y-44711326D01*
X202963000Y-44756661D01*
X202963000Y-45843339D01*
X202958535Y-45888674D01*
X202947101Y-45926367D01*
X202928534Y-45961103D01*
X202903548Y-45991548D01*
X202873103Y-46016534D01*
X202838367Y-46035101D01*
X202800674Y-46046535D01*
X202755339Y-46051000D01*
X201918661Y-46051000D01*
X201873326Y-46046535D01*
X201835633Y-46035101D01*
X201800897Y-46016534D01*
X201770452Y-45991548D01*
X201745466Y-45961103D01*
X201726899Y-45926367D01*
X201715465Y-45888674D01*
X201711000Y-45843339D01*
X201711000Y-44756661D01*
X201715465Y-44711326D01*
X201726899Y-44673633D01*
X201745466Y-44638897D01*
X201770452Y-44608452D01*
X201800897Y-44583466D01*
X201835633Y-44564899D01*
X201873326Y-44553465D01*
X201918661Y-44549000D01*
X202755339Y-44549000D01*
X202800674Y-44553465D01*
G37*
G36*
X204850674Y-44553465D02*
G01*
X204888367Y-44564899D01*
X204923103Y-44583466D01*
X204953548Y-44608452D01*
X204978534Y-44638897D01*
X204997101Y-44673633D01*
X205008535Y-44711326D01*
X205013000Y-44756661D01*
X205013000Y-45843339D01*
X205008535Y-45888674D01*
X204997101Y-45926367D01*
X204978534Y-45961103D01*
X204953548Y-45991548D01*
X204923103Y-46016534D01*
X204888367Y-46035101D01*
X204850674Y-46046535D01*
X204805339Y-46051000D01*
X203968661Y-46051000D01*
X203923326Y-46046535D01*
X203885633Y-46035101D01*
X203850897Y-46016534D01*
X203820452Y-45991548D01*
X203795466Y-45961103D01*
X203776899Y-45926367D01*
X203765465Y-45888674D01*
X203761000Y-45843339D01*
X203761000Y-44756661D01*
X203765465Y-44711326D01*
X203776899Y-44673633D01*
X203795466Y-44638897D01*
X203820452Y-44608452D01*
X203850897Y-44583466D01*
X203885633Y-44564899D01*
X203923326Y-44553465D01*
X203968661Y-44549000D01*
X204805339Y-44549000D01*
X204850674Y-44553465D01*
G37*
G36*
X209350674Y-44553465D02*
G01*
X209388367Y-44564899D01*
X209423103Y-44583466D01*
X209453548Y-44608452D01*
X209478534Y-44638897D01*
X209497101Y-44673633D01*
X209508535Y-44711326D01*
X209513000Y-44756661D01*
X209513000Y-45843339D01*
X209508535Y-45888674D01*
X209497101Y-45926367D01*
X209478534Y-45961103D01*
X209453548Y-45991548D01*
X209423103Y-46016534D01*
X209388367Y-46035101D01*
X209350674Y-46046535D01*
X209305339Y-46051000D01*
X208468661Y-46051000D01*
X208423326Y-46046535D01*
X208385633Y-46035101D01*
X208350897Y-46016534D01*
X208320452Y-45991548D01*
X208295466Y-45961103D01*
X208276899Y-45926367D01*
X208265465Y-45888674D01*
X208261000Y-45843339D01*
X208261000Y-44756661D01*
X208265465Y-44711326D01*
X208276899Y-44673633D01*
X208295466Y-44638897D01*
X208320452Y-44608452D01*
X208350897Y-44583466D01*
X208385633Y-44564899D01*
X208423326Y-44553465D01*
X208468661Y-44549000D01*
X209305339Y-44549000D01*
X209350674Y-44553465D01*
G37*
G36*
X207300674Y-44553465D02*
G01*
X207338367Y-44564899D01*
X207373103Y-44583466D01*
X207403548Y-44608452D01*
X207428534Y-44638897D01*
X207447101Y-44673633D01*
X207458535Y-44711326D01*
X207463000Y-44756661D01*
X207463000Y-45843339D01*
X207458535Y-45888674D01*
X207447101Y-45926367D01*
X207428534Y-45961103D01*
X207403548Y-45991548D01*
X207373103Y-46016534D01*
X207338367Y-46035101D01*
X207300674Y-46046535D01*
X207255339Y-46051000D01*
X206418661Y-46051000D01*
X206373326Y-46046535D01*
X206335633Y-46035101D01*
X206300897Y-46016534D01*
X206270452Y-45991548D01*
X206245466Y-45961103D01*
X206226899Y-45926367D01*
X206215465Y-45888674D01*
X206211000Y-45843339D01*
X206211000Y-44756661D01*
X206215465Y-44711326D01*
X206226899Y-44673633D01*
X206245466Y-44638897D01*
X206270452Y-44608452D01*
X206300897Y-44583466D01*
X206335633Y-44564899D01*
X206373326Y-44553465D01*
X206418661Y-44549000D01*
X207255339Y-44549000D01*
X207300674Y-44553465D01*
G37*
G36*
X210501000Y-36201000D02*
G01*
X199699000Y-36201000D01*
X199699000Y-31799000D01*
X210501000Y-31799000D01*
X210501000Y-36201000D01*
G37*
G36*
X127501000Y-32774001D02*
G01*
X127503402Y-32798387D01*
X127510515Y-32821836D01*
X127522066Y-32843447D01*
X127537611Y-32862389D01*
X127556553Y-32877934D01*
X127578164Y-32889485D01*
X127601613Y-32896598D01*
X127625999Y-32899000D01*
X128574001Y-32899000D01*
X128598387Y-32896598D01*
X128621836Y-32889485D01*
X128643447Y-32877934D01*
X128662389Y-32862389D01*
X128677934Y-32843447D01*
X128689485Y-32821836D01*
X128696598Y-32798387D01*
X128699000Y-32774001D01*
X128699000Y-31799000D01*
X197501000Y-31799000D01*
X197501000Y-36201000D01*
X126699000Y-36201000D01*
X126699000Y-31799000D01*
X127501000Y-31799000D01*
X127501000Y-32774001D01*
G37*
M02*
